{
.appVersion = "1064";
DisplayStrings = (
".?/_partG (op).,,,,;-\U00AB\U00BB:/quoteright/slashlongcomb \U00B0\012n..\012/ellipsis \012\U00B4/circumflex i\U00A8u/emdash/endash e\U00B4/slashlongcomb \U00E9/slashlongcomb \U00EA\U00EB\U00E8\U00EF<>/quotedblleft/quoteright-g/quotedblright",
";,/quoteright",
"(u) /slashlongcomb/braceleft-up ({pouf} [eu]",
"\U00E8"
);
date = "2017-10-13 07:30:52 +0000";
familyName = Baskerwille;
featurePrefixes = (
{
automatic = 1;
code = "languagesystem DFLT dflt;\012";
name = Languagesystems;
}
);
features = (
{
automatic = 1;
code = "feature salt;\012feature ss01;\012";
name = aalt;
},
{
automatic = 1;
code = "sub r by r.ss01;\012";
name = salt;
},
{
automatic = 1;
code = "sub r by r.ss01;\012";
name = ss01;
}
);
fontMaster = (
{
alignmentZones = (
"{710, 14}",
"{436, 18}",
"{0, -14}",
"{-280, -14}"
);
ascender = 710;
capHeight = 710;
descender = -280;
id = "9372F035-DA38-4B54-966C-CEBA9B53DD02";
userData = {
GSCornerRadius = 3;
};
verticalStems = (
90,
70
);
visible = 1;
xHeight = 436;
},
{
alignmentZones = (
"{710, 14}",
"{436, 18}",
"{0, -14}",
"{-280, -14}"
);
ascender = 710;
capHeight = 710;
descender = -280;
id = "E6B8952F-D64A-490A-9CF5-6DF985D88222";
italicAngle = 20;
weightValue = 95;
widthValue = 95;
xHeight = 436;
}
);
glyphs = (
{
glyphname = A;
lastChange = "2017-10-17 11:46:15 +0000";
layers = (
{
backgroundImage = {
crop = "{{1330.095, 1862.19}, {76.19, 94.286}}";
imagePath = "../../Glyphs-171017/archive/Workshop Baskerville/1878 Limprimerie Berger Levrault Notice historique/Images/B543956101_050370_0002.jpg";
locked = "1";
transform = "{10.5, 0, 0, 10.5, -13966, -19833}";
};
layerId = "9372F035-DA38-4B54-966C-CEBA9B53DD02";
paths = (
{
closed = 1;
nodes = (
"669 69 OFFCURVE",
"682 35 OFFCURVE",
"733 24 CURVE SMOOTH",
"771 16 LINE",
"771 -3 LINE",
"604 0 LINE",
"480 -3 LINE",
"479 16 LINE",
"521 23 LINE SMOOTH",
"571 31 OFFCURVE",
"566 62 OFFCURVE",
"521 187 CURVE",
"357 648 LINE",
"394 660 LINE",
"169 115 LINE SMOOTH",
"136 36 OFFCURVE",
"149 26 OFFCURVE",
"192 22 CURVE SMOOTH",
"223 19 LINE",
"223 -3 LINE",
"160 1 OFFCURVE",
"93 1 OFFCURVE",
"24 -3 CURVE",
"24 19 LINE",
"50 22 LINE SMOOTH",
"97 27 OFFCURVE",
"104 39 OFFCURVE",
"135 113 CURVE SMOOTH",
"392 720 LINE",
"401 719 OFFCURVE",
"410 719 OFFCURVE",
"418 720 CURVE",
"635 146 LINE"
);
},
{
closed = 1;
nodes = (
"509 299 LINE",
"509 269 LINE",
"228 269 LINE",
"228 299 LINE"
);
}
);
width = 781;
},
{
layerId = "E6B8952F-D64A-490A-9CF5-6DF985D88222";
width = 600;
}
);
unicode = 0041;
},
{
glyphname = B;
lastChange = "2017-10-17 11:46:15 +0000";
layers = (
{
hints = (
{
origin = "{0, 4}";
scale = "{1.2, 1.1}";
type = Corner;
name = "_corner-bdc";
},
{
origin = "{0, 3}";
scale = "{-1.2, 1.1}";
type = Corner;
name = "_corner-bdc";
options = 1;
}
);
layerId = "9372F035-DA38-4B54-966C-CEBA9B53DD02";
paths = (
{
closed = 1;
nodes = (
"219 0 LINE",
"219 172 LINE",
"220 710 LINE",
"145 710 LINE",
"144 0 LINE"
);
},
{
closed = 1;
nodes = (
"334 358 LINE SMOOTH",
"373 358 OFFCURVE",
"575 398 OFFCURVE",
"575 547 CURVE SMOOTH",
"575 681 OFFCURVE",
"441 710 OFFCURVE",
"320 710 CURVE SMOOTH",
"198 710 LINE",
"198 684 LINE",
"316 684 LINE SMOOTH",
"459 684 OFFCURVE",
"500 625 OFFCURVE",
"500 547 CURVE SMOOTH",
"500 446 OFFCURVE",
"426 388 OFFCURVE",
"334 388 CURVE SMOOTH",
"187 388 LINE",
"187 358 LINE"
);
},
{
closed = 1;
nodes = (
"350 0 LINE SMOOTH",
"517 0 OFFCURVE",
"623 64 OFFCURVE",
"623 202 CURVE SMOOTH",
"623 370 OFFCURVE",
"429 392 OFFCURVE",
"319 378 CURVE",
"319 358 LINE",
"397 358 OFFCURVE",
"548 337 OFFCURVE",
"548 201 CURVE SMOOTH",
"548 85 OFFCURVE",
"443 26 OFFCURVE",
"335 26 CURVE SMOOTH",
"207 26 LINE",
"207 0 LINE"
);
}
);
width = 635;
},
{
layerId = "E6B8952F-D64A-490A-9CF5-6DF985D88222";
width = 600;
}
);
unicode = 0042;
},
{
glyphname = C;
lastChange = "2017-10-17 11:46:15 +0000";
layers = (
{
background = {
paths = (
{
closed = 1;
nodes = (
"533 11 OFFCURVE",
"594 119 OFFCURVE",
"601 247 CURVE",
"621 247 LINE",
"619 125 LINE",
"621 17 LINE",
"601 17 LINE",
"585 83 LINE",
"555 37 OFFCURVE",
"488 -11 OFFCURVE",
"399 -11 CURVE",
"399 11 LINE"
);
},
{
closed = 1;
nodes = (
"479 721 OFFCURVE",
"536 682 OFFCURVE",
"567 642 CURVE",
"580 690 LINE",
"600 690 LINE",
"598 615 LINE",
"600 525 LINE",
"580 525 LINE",
"572 621 OFFCURVE",
"502 698 OFFCURVE",
"399 698 CURVE",
"399 721 LINE"
);
}
);
};
backgroundImage = {
crop = "{{1368.703, 1378.361}, {309.05, 382.449}}";
imagePath = "../../../../1878 Limprimerie Berger Levrault Notice historique/Romain/JACOB-notice-187505.jpg";
locked = "1";
transform = "{2.587, 0.09, -0.09, 2.587, -3565, -3848}";
};
components = (
{
name = "_part-curve-cap-left";
transform = "{1, 0, 0, 1, -19, 0}";
}
);
layerId = "9372F035-DA38-4B54-966C-CEBA9B53DD02";
paths = (
{
closed = 1;
nodes = (
"511 15 OFFCURVE",
"586 125 OFFCURVE",
"598 247 CURVE",
"618 247 LINE",
"616 115 LINE",
"618 17 LINE",
"598 17 LINE",
"592 39 OFFCURVE",
"582 57 OFFCURVE",
"565 57 CURVE SMOOTH",
"553 57 OFFCURVE",
"543 48 OFFCURVE",
"535 42 CURVE SMOOTH",
"501 17 OFFCURVE",
"460 -11 OFFCURVE",
"400 -11 CURVE",
"400 15 LINE"
);
},
{
closed = 1;
nodes = (
"457 722 OFFCURVE",
"496 702 OFFCURVE",
"519 687 CURVE SMOOTH",
"539 674 OFFCURVE",
"543 668 OFFCURVE",
"556 668 CURVE SMOOTH",
"568 668 OFFCURVE",
"576 677 OFFCURVE",
"582 690 CURVE",
"602 690 LINE",
"600 634 LINE",
"602 525 LINE",
"582 525 LINE",
"559 621 OFFCURVE",
"504 696 OFFCURVE",
"401 696 CURVE",
"401 722 LINE"
);
}
);
width = 663;
},
{
layerId = "E6B8952F-D64A-490A-9CF5-6DF985D88222";
width = 600;
}
);
unicode = 0043;
},
{
glyphname = D;
lastChange = "2017-10-17 11:46:15 +0000";
layers = (
{
backgroundImage = {
crop = "{{1133.05, 1044.108}, {342.081, 376.29}}";
imagePath = "../../Glyphs-171017/archive/1878 Limprimerie Berger Levrault Notice historique/Romain/JACOB-notice-187517.jpg";
locked = "1";
transform = "{2.631, 0, 0, 2.631, -2981, -3027}";
};
hints = (
{
origin = "{0, 4}";
scale = "{1.2, 1.1}";
type = Corner;
name = "_corner-bdc";
},
{
origin = "{0, 3}";
scale = "{-1.2, 1.1}";
type = Corner;
name = "_corner-bdc";
options = 1;
}
);
layerId = "9372F035-DA38-4B54-966C-CEBA9B53DD02";
paths = (
{
closed = 1;
nodes = (
"309 0 LINE",
"309 172 LINE",
"310 710 LINE",
"235 710 LINE",
"234 0 LINE"
);
},
{
closed = 1;
nodes = (
"444 0 LINE SMOOTH",
"590 0 OFFCURVE",
"829 77 OFFCURVE",
"830 364 CURVE SMOOTH",
"831 620 OFFCURVE",
"617 710 OFFCURVE",
"433 710 CURVE SMOOTH",
"297 710 LINE",
"297 684 LINE",
"421 683 LINE SMOOTH",
"571 682 OFFCURVE",
"755 607 OFFCURVE",
"750 364 CURVE SMOOTH",
"744 70 OFFCURVE",
"521 23 OFFCURVE",
"425 26 CURVE SMOOTH",
"297 26 LINE",
"297 0 LINE"
);
}
);
width = 900;
},
{
layerId = "E6B8952F-D64A-490A-9CF5-6DF985D88222";
width = 600;
}
);
unicode = 0044;
},
{
glyphname = E;
lastChange = "2017-10-17 11:46:15 +0000";
layers = (
{
background = {
hints = (
{
origin = "{1, 0}";
type = Corner;
name = "_corner-bg";
},
{
origin = "{1, 1}";
scale = "{-1, 1}";
type = Corner;
name = "_corner-hg";
options = 1;
}
);
paths = (
{
closed = 1;
nodes = (
"417 395 LINE",
"417 365 LINE",
"221 365 LINE",
"221 395 LINE"
);
},
{
closed = 1;
nodes = (
"166 0 LINE",
"166 710 LINE",
"236 710 LINE",
"602 709 LINE",
"612 546 LINE",
"595 546 LINE",
"592 626 OFFCURVE",
"548 687 OFFCURVE",
"452 687 CURVE SMOOTH",
"313 688 OFFCURVE",
"323 685 OFFCURVE",
"323 685 CURVE SMOOTH",
"273 685 OFFCURVE",
"256 656 OFFCURVE",
"256 597 CURVE SMOOTH",
"255 440 LINE",
"255 115 LINE SMOOTH",
"255 56 OFFCURVE",
"272 27 OFFCURVE",
"366 27 CURVE SMOOTH",
"452 26 LINE SMOOTH",
"568 25 OFFCURVE",
"618 90 OFFCURVE",
"628 210 CURVE",
"645 210 LINE",
"635 0 LINE",
"237 0 LINE"
);
},
{
closed = 1;
nodes = (
"467 518 LINE",
"467 229 LINE",
"445 229 LINE",
"445 331 OFFCURVE",
"417 365 OFFCURVE",
"374 365 CURVE",
"374 395 LINE",
"419 395 OFFCURVE",
"440 409 OFFCURVE",
"445 518 CURVE"
);
}
);
};
backgroundImage = {
crop = "{{1310.741, 921.481}, {259.259, 366.667}}";
imagePath = "../../Glyphs-171017/archive/Workshop Baskerville/1878 Limprimerie Berger Levrault Notice historique/Romain/JACOB-notice-187516.jpg";
locked = "1";
transform = "{2.7, 0, 0, 2.7, -3572, -2768}";
};
hints = (
{
origin = "{0, 1}";
scale = "{1.2, 1.1}";
type = Corner;
name = "_corner-bdc";
},
{
origin = "{0, 0}";
scale = "{-1.2, 1.1}";
type = Corner;
name = "_corner-bdc";
options = 1;
}
);
layerId = "9372F035-DA38-4B54-966C-CEBA9B53DD02";
paths = (
{
closed = 1;
nodes = (
"180 0 LINE",
"180 710 LINE",
"236 710 LINE",
"602 709 LINE",
"612 546 LINE",
"595 546 LINE",
"592 626 OFFCURVE",
"548 687 OFFCURVE",
"452 687 CURVE SMOOTH",
"313 688 OFFCURVE",
"323 685 OFFCURVE",
"323 685 CURVE SMOOTH",
"273 685 OFFCURVE",
"256 656 OFFCURVE",
"256 597 CURVE SMOOTH",
"255 449 LINE",
"255 168 LINE SMOOTH",
"255 67 OFFCURVE",
"264 24 OFFCURVE",
"377 26 CURVE SMOOTH",
"452 26 LINE SMOOTH",
"568 25 OFFCURVE",
"618 90 OFFCURVE",
"628 210 CURVE",
"645 210 LINE",
"635 0 LINE",
"259 0 LINE"
);
},
{
closed = 1;
nodes = (
"415 388 LINE",
"415 362 LINE",
"219 362 LINE",
"219 388 LINE"
);
},
{
closed = 0;
nodes = (
"244 377 LINE"
);
},
{
closed = 1;
nodes = (
"465 508 LINE",
"465 226 LINE",
"443 226 LINE",
"443 328 OFFCURVE",
"415 362 OFFCURVE",
"372 362 CURVE",
"372 388 LINE",
"415 388 OFFCURVE",
"438 399 OFFCURVE",
"443 508 CURVE"
);
}
);
width = 665;
},
{
layerId = "E6B8952F-D64A-490A-9CF5-6DF985D88222";
width = 600;
}
);
unicode = 0045;
},
{
glyphname = F;
lastChange = "2017-10-17 11:46:15 +0000";
layers = (
{
backgroundImage = {
crop = "{{1429.818, 1020}, {229.091, 360}}";
imagePath = "../../Glyphs-171017/archive/Workshop Baskerville/1878 Limprimerie Berger Levrault Notice historique/Romain/JACOB-notice-187504.jpg";
locked = "1";
transform = "{2.75, 0, 0, 2.75, -3932, -3085}";
};
hints = (
{
origin = "{0, 0}";
scale = "{-1.2, 1.1}";
type = Corner;
name = "_corner-bdc";
options = 1;
},
{
origin = "{0, 14}";
scale = "{1.2, 1.1}";
type = Corner;
name = "_corner-bdc";
},
{
origin = "{0, 1}";
scale = "{1.2, 1.1}";
type = Corner;
name = "_corner-bdc";
}
);
layerId = "9372F035-DA38-4B54-966C-CEBA9B53DD02";
paths = (
{
closed = 1;
nodes = (
"169 0 LINE",
"169 710 LINE",
"225 710 LINE",
"605 709 LINE",
"617 548 LINE",
"596 548 LINE",
"585 683 OFFCURVE",
"479 687 OFFCURVE",
"413 687 CURVE SMOOTH",
"356 687 LINE SMOOTH",
"275 687 OFFCURVE",
"245 674 OFFCURVE",
"245 597 CURVE SMOOTH",
"244 345 LINE",
"244 0 LINE"
);
},
{
closed = 1;
nodes = (
"415 378 LINE",
"415 352 LINE",
"219 352 LINE",
"219 378 LINE"
);
},
{
closed = 1;
nodes = (
"465 498 LINE",
"465 216 LINE",
"443 216 LINE",
"443 318 OFFCURVE",
"415 352 OFFCURVE",
"372 352 CURVE",
"372 378 LINE",
"415 378 OFFCURVE",
"438 389 OFFCURVE",
"443 498 CURVE"
);
}
);
width = 630;
},
{
associatedMasterId = "9372F035-DA38-4B54-966C-CEBA9B53DD02";
backgroundImage = {
crop = "{{1429.818, 1020}, {229.091, 360}}";
imagePath = "../../Glyphs-171017/archive/Workshop Baskerville/1878 Limprimerie Berger Levrault Notice historique/Romain/JACOB-notice-187504.jpg";
locked = "1";
transform = "{2.75, 0, 0, 2.75, -3932, -3085}";
};
hints = (
{
origin = "{0, 1}";
type = Corner;
name = "_corner-cap";
},
{
origin = "{0, 0}";
scale = "{-1, 1}";
type = Corner;
name = "_corner-cap";
options = 1;
},
{
origin = "{0, 14}";
type = Corner;
name = "_corner-cap";
}
);
layerId = "9819B011-9A5C-4824-A6C8-3CFD034EFA7B";
name = "Oct 16 17, 14:35";
paths = (
{
closed = 1;
nodes = (
"169 0 LINE",
"169 710 LINE",
"225 710 LINE",
"605 709 LINE",
"617 548 LINE",
"596 548 LINE",
"585 683 OFFCURVE",
"479 687 OFFCURVE",
"413 687 CURVE SMOOTH",
"356 687 LINE SMOOTH",
"275 687 OFFCURVE",
"245 674 OFFCURVE",
"245 597 CURVE SMOOTH",
"244 345 LINE",
"244 0 LINE"
);
},
{
closed = 1;
nodes = (
"415 378 LINE",
"415 353 LINE",
"219 353 LINE",
"219 378 LINE"
);
},
{
closed = 1;
nodes = (
"465 499 LINE",
"465 217 LINE",
"443 217 LINE",
"443 319 OFFCURVE",
"415 353 OFFCURVE",
"372 353 CURVE",
"372 378 LINE",
"415 378 OFFCURVE",
"438 390 OFFCURVE",
"443 499 CURVE"
);
}
);
width = 630;
},
{
layerId = "E6B8952F-D64A-490A-9CF5-6DF985D88222";
width = 600;
}
);
unicode = 0046;
},
{
glyphname = G;
lastChange = "2017-10-17 11:46:15 +0000";
layers = (
{
backgroundImage = {
crop = "{{841.6, 776.8}, {280, 396}}";
imagePath = "../../../../1878 Limprimerie Berger Levrault Notice historique/Romain/JACOB-notice-187543.jpg";
locked = "1";
transform = "{2.573, 0, 0, 2.573, -2122, -2297}";
};
components = (
{
name = "_part-curve-cap-left";
transform = "{1, 0, 0, 1, -19, 0}";
}
);
layerId = "9372F035-DA38-4B54-966C-CEBA9B53DD02";
paths = (
{
closed = 1;
nodes = (
"449 722 OFFCURVE",
"488 706 OFFCURVE",
"519 687 CURVE SMOOTH",
"540 674 OFFCURVE",
"543 668 OFFCURVE",
"556 668 CURVE SMOOTH",
"568 668 OFFCURVE",
"576 677 OFFCURVE",
"582 690 CURVE",
"602 690 LINE",
"600 615 LINE",
"602 515 LINE",
"582 515 LINE",
"559 611 OFFCURVE",
"504 696 OFFCURVE",
"401 696 CURVE",
"401 722 LINE"
);
},
{
closed = 1;
nodes = (
"542 202 OFFCURVE",
"524 260 OFFCURVE",
"459 266 CURVE SMOOTH",
"416 270 LINE",
"416 290 LINE",
"588 286 LINE",
"756 290 LINE",
"756 270 LINE",
"703 266 LINE SMOOTH",
"648 262 OFFCURVE",
"636 202 OFFCURVE",
"636 151 CURVE SMOOTH",
"636 125 OFFCURVE",
"644 99 OFFCURVE",
"652 81 CURVE SMOOTH",
"658 68 LINE",
"640 57 LINE",
"631 71 OFFCURVE",
"614 79 OFFCURVE",
"602 79 CURVE SMOOTH",
"585 79 OFFCURVE",
"572 68 OFFCURVE",
"563 60 CURVE SMOOTH",
"522 25 OFFCURVE",
"471 -11 OFFCURVE",
"401 -11 CURVE",
"401 15 LINE",
"495 15 OFFCURVE",
"542 91 OFFCURVE",
"542 151 CURVE SMOOTH"
);
}
);
width = 761;
},
{
layerId = "E6B8952F-D64A-490A-9CF5-6DF985D88222";
width = 600;
}
);
unicode = 0047;
},
{
glyphname = H;
lastChange = "2017-10-17 11:46:15 +0000";
layers = (
{
backgroundImage = {
crop = "{{1328.244, 1380.534}, {343.511, 377.863}}";
imagePath = "../../Glyphs-171017/archive/Workshop Baskerville/1878 Limprimerie Berger Levrault Notice historique/Romain/JACOB-notice-187537.jpg";
locked = "1";
transform = "{2.62, -0.046, 0.046, 2.62, -3550, -3827}";
};
hints = (
{
origin = "{0, 0}";
scale = "{-1.2, 1.1}";
type = Corner;
name = "_corner-bdc";
options = 1;
},
{
origin = "{0, 3}";
scale = "{1.2, 1.1}";
type = Corner;
name = "_corner-bdc";
},
{
origin = "{1, 0}";
scale = "{1.2, -1.1}";
type = Corner;
name = "_corner-bdc";
options = 1;
},
{
origin = "{1, 3}";
scale = "{1.2, 1.1}";
type = Corner;
name = "_corner-bdc";
},
{
origin = "{1, 1}";
scale = "{1.2, 1.1}";
type = Corner;
name = "_corner-bdc";
},
{
origin = "{1, 2}";
scale = "{-1.2, 1.1}";
type = Corner;
name = "_corner-bdc";
options = 1;
},
{
origin = "{0, 2}";
scale = "{1.2, -1.1}";
type = Corner;
name = "_corner-bdc";
options = 1;
},
{
origin = "{0, 1}";
scale = "{1.2, 1.1}";
type = Corner;
name = "_corner-bdc";
}
);
layerId = "9372F035-DA38-4B54-966C-CEBA9B53DD02";
paths = (
{
closed = 1;
nodes = (
"732 0 LINE",
"731 710 LINE",
"656 710 LINE",
"657 0 LINE"
);
},
{
closed = 1;
nodes = (
"256 0 LINE",
"255 710 LINE",
"180 710 LINE",
"181 0 LINE"
);
},
{
closed = 1;
nodes = (
"660 354 LINE",
"660 385 LINE",
"248 385 LINE",
"248 354 LINE"
);
}
);
width = 900;
},
{
associatedMasterId = "9372F035-DA38-4B54-966C-CEBA9B53DD02";
backgroundImage = {
crop = "{{1328.244, 1380.534}, {343.511, 377.863}}";
imagePath = "../../Glyphs-171017/archive/Workshop Baskerville/1878 Limprimerie Berger Levrault Notice historique/Romain/JACOB-notice-187537.jpg";
locked = "1";
transform = "{2.62, -0.046, 0.046, 2.62, -3550, -3827}";
};
hints = (
{
origin = "{1, 1}";
type = Corner;
name = "_corner-bdc";
},
{
origin = "{1, 2}";
scale = "{1, -1}";
type = Corner;
name = "_corner-bdc";
}
);
layerId = "D4414EA3-B7D5-445B-9354-C98751CD83C0";
name = bdc;
paths = (
{
closed = 1;
nodes = (
"656 354 LINE",
"656 384 LINE",
"244 384 LINE",
"244 354 LINE"
);
},
{
closed = 1;
nodes = (
"729 614 LINE",
"729 0 LINE",
"659 0 LINE",
"659 614 LINE"
);
}
);
width = 900;
},
{
associatedMasterId = "9372F035-DA38-4B54-966C-CEBA9B53DD02";
backgroundImage = {
crop = "{{1328.244, 1380.534}, {343.511, 377.863}}";
imagePath = "../../Glyphs-171017/archive/Workshop Baskerville/1878 Limprimerie Berger Levrault Notice historique/Romain/JACOB-notice-187537.jpg";
locked = "1";
transform = "{2.62, -0.046, 0.046, 2.62, -3550, -3827}";
};
hints = (
{
origin = "{1, 2}";
scale = "{0.9, -1}";
type = Corner;
name = "_corner-cap";
options = 1;
},
{
origin = "{1, 1}";
scale = "{0.9, 1}";
type = Corner;
name = "_corner-cap";
},
{
origin = "{0, 2}";
scale = "{0.9, -1}";
type = Corner;
name = "_corner-cap";
options = 1;
},
{
origin = "{0, 1}";
scale = "{0.9, 1}";
type = Corner;
name = "_corner-cap";
},
{
origin = "{1, 3}";
scale = "{0.9, 1}";
type = Corner;
name = "_corner-cap";
},
{
origin = "{1, 0}";
scale = "{-0.9, 1}";
type = Corner;
name = "_corner-cap";
options = 1;
},
{
origin = "{0, 3}";
scale = "{0.9, 1}";
type = Corner;
name = "_corner-cap";
},
{
origin = "{0, 0}";
scale = "{-0.9, 1}";
type = Corner;
name = "_corner-cap";
options = 1;
}
);
layerId = "BA4FE908-487B-4283-9277-3D1B1A7BDAC7";
name = "Oct 16 17, 13:57";
paths = (
{
closed = 1;
nodes = (
"732 0 LINE",
"731 710 LINE",
"656 710 LINE",
"657 0 LINE"
);
},
{
closed = 1;
nodes = (
"256 0 LINE",
"255 710 LINE",
"180 710 LINE",
"181 0 LINE"
);
},
{
closed = 1;
nodes = (
"660 354 LINE",
"660 384 LINE",
"248 384 LINE",
"248 354 LINE"
);
}
);
width = 900;
},
{
layerId = "E6B8952F-D64A-490A-9CF5-6DF985D88222";
width = 600;
}
);
unicode = 0048;
},
{
glyphname = I;
lastChange = "2017-10-17 11:46:15 +0000";
layers = (
{
backgroundImage = {
crop = "{{1036.296, 1301.852}, {222.222, 366.667}}";
imagePath = "../../Glyphs-171017/archive/Workshop Baskerville/1878 Limprimerie Berger Levrault Notice historique/Romain/IMG_3190.JPG";
locked = "1";
transform = "{2.72, -0.029, 0.029, 2.72, -2896, -3787}";
};
hints = (
{
origin = "{0, 2}";
scale = "{1.2, 1.1}";
type = Corner;
name = "_corner-bdc";
},
{
origin = "{0, 3}";
scale = "{-1.2, 1.1}";
type = Corner;
name = "_corner-bdc";
options = 1;
},
{
origin = "{0, 1}";
scale = "{-1.2, 1.1}";
type = Corner;
name = "_corner-bdc";
options = 1;
},
{
origin = "{0, 0}";
scale = "{1.2, 1.1}";
type = Corner;
name = "_corner-bdc";
}
);
layerId = "9372F035-DA38-4B54-966C-CEBA9B53DD02";
paths = (
{
closed = 1;
nodes = (
"200 710 LINE",
"280 710 LINE",
"281 0 LINE",
"206 0 LINE"
);
}
);
width = 462;
},
{
layerId = "E6B8952F-D64A-490A-9CF5-6DF985D88222";
width = 600;
}
);
unicode = 0049;
},
{
glyphname = J;
lastChange = "2017-10-17 11:46:15 +0000";
layers = (
{
backgroundImage = {
crop = "{{217.96, 211.469}, {9.121, 15.05}}";
imagePath = "../../../../1788-89 Epreuves des caracteres de Rolland et Jacob/p19.jpg";
locked = "1";
transform = "{66.669, 0, 0, 66.669, -14531, -14382}";
};
layerId = "9372F035-DA38-4B54-966C-CEBA9B53DD02";
paths = (
{
closed = 1;
nodes = (
"222 107 OFFCURVE",
"205 130 OFFCURVE",
"172 130 CURVE SMOOTH",
"133 130 OFFCURVE",
"119 100 OFFCURVE",
"119 71 CURVE SMOOTH",
"119 21 OFFCURVE",
"176 -9 OFFCURVE",
"236 -9 CURVE SMOOTH",
"331 -9 OFFCURVE",
"397 44 OFFCURVE",
"397 140 CURVE SMOOTH",
"397 610 LINE SMOOTH",
"397 661 OFFCURVE",
"402 686 OFFCURVE",
"449 689 CURVE SMOOTH",
"522 693 LINE",
"522 713 LINE",
"354 710 LINE",
"172 713 LINE",
"172 693 LINE",
"255 689 LINE SMOOTH",
"302 687 OFFCURVE",
"307 661 OFFCURVE",
"307 610 CURVE SMOOTH",
"307 121 LINE SMOOTH",
"307 62 OFFCURVE",
"286 10 OFFCURVE",
"235 10 CURVE SMOOTH",
"197 10 OFFCURVE",
"222 56 OFFCURVE",
"222 86 CURVE SMOOTH"
);
}
);
width = 600;
},
{
layerId = "E6B8952F-D64A-490A-9CF5-6DF985D88222";
width = 600;
}
);
unicode = 004A;
},
{
glyphname = K;
lastChange = "2017-10-17 11:46:15 +0000";
layers = (
{
hints = (
{
origin = "{0, 1}";
scale = "{1.2, 1.1}";
type = Corner;
name = "_corner-bdc";
},
{
origin = "{0, 2}";
scale = "{-1.2, 1.1}";
type = Corner;
name = "_corner-bdc";
options = 1;
},
{
origin = "{0, 0}";
scale = "{-1.2, 1.1}";
type = Corner;
name = "_corner-bdc";
options = 1;
},
{
origin = "{0, 3}";
scale = "{1.2, 1.1}";
type = Corner;
name = "_corner-bdc";
}
);
layerId = "9372F035-DA38-4B54-966C-CEBA9B53DD02";
paths = (
{
closed = 1;
nodes = (
"148 0 LINE",
"147 710 LINE",
"72 710 LINE",
"73 0 LINE"
);
},
{
closed = 1;
nodes = (
"440 585 LINE SMOOTH",
"466 619 OFFCURVE",
"523 688 OFFCURVE",
"581 690 CURVE SMOOTH",
"611 691 LINE",
"611 713 LINE",
"542 709 OFFCURVE",
"415 709 OFFCURVE",
"352 713 CURVE",
"352 691 LINE",
"403 688 LINE SMOOTH",
"462 685 OFFCURVE",
"442 633 OFFCURVE",
"390 565 CURVE SMOOTH",
"135 233 LINE",
"139 186 LINE"
);
},
{
closed = 1;
nodes = (
"442 51 OFFCURVE",
"423 22 OFFCURVE",
"360 22 CURVE SMOOTH",
"335 22 LINE",
"335 -3 LINE",
"493 0 LINE",
"665 -3 LINE",
"665 22 LINE",
"640 22 LINE SMOOTH",
"570 22 OFFCURVE",
"528 74 OFFCURVE",
"472 171 CURVE SMOOTH",
"315 440 LINE",
"260 367 LINE",
"410 107 LINE SMOOTH"
);
}
);
width = 600;
},
{
layerId = "E6B8952F-D64A-490A-9CF5-6DF985D88222";
width = 600;
}
);
unicode = 004B;
},
{
glyphname = L;
lastChange = "2017-10-17 11:46:15 +0000";
layers = (
{
hints = (
{
origin = "{0, 1}";
scale = "{1.2, 1.1}";
type = Corner;
name = "_corner-bdc";
},
{
origin = "{0, 2}";
scale = "{-1.2, 1.1}";
type = Corner;
name = "_corner-bdc";
options = 1;
},
{
origin = "{0, 0}";
scale = "{-1.2, 1.1}";
type = Corner;
name = "_corner-bdc";
options = 1;
}
);
layerId = "9372F035-DA38-4B54-966C-CEBA9B53DD02";
paths = (
{
closed = 1;
nodes = (
"180 0 LINE",
"180 710 LINE",
"255 710 LINE",
"255 161 LINE SMOOTH",
"255 60 OFFCURVE",
"264 26 OFFCURVE",
"377 26 CURVE SMOOTH",
"452 26 LINE SMOOTH",
"568 25 OFFCURVE",
"618 90 OFFCURVE",
"628 210 CURVE",
"645 210 LINE",
"635 -3 LINE",
"237 0 LINE"
);
}
);
width = 675;
},
{
layerId = "E6B8952F-D64A-490A-9CF5-6DF985D88222";
width = 600;
}
);
unicode = 004C;
},
{
glyphname = M;
lastChange = "2017-10-17 11:46:15 +0000";
layers = (
{
backgroundImage = {
crop = "{{1366.296, 968.148}, {333.333, 366.667}}";
imagePath = "../../../../1878 Limprimerie Berger Levrault Notice historique/Romain/JACOB-notice-187509.jpg";
locked = "1";
transform = "{2.726, 0, 0, 2.726, -3733, -2917}";
};
hints = (
{
origin = "{0, 13}";
scale = "{1.2, 1.1}";
type = Corner;
name = "_corner-bdc";
},
{
origin = "{0, 14}";
scale = "{-1.2, 1.1}";
type = Corner;
name = "_corner-bdc";
options = 1;
},
{
origin = "{0, 0}";
scale = "{-1.2, 1.1}";
type = Corner;
name = "_corner-bdc";
options = 1;
},
{
origin = "{0, 21}";
scale = "{1.2, 1.1}";
type = Corner;
name = "_corner-bdc";
},
{
origin = "{0, 2}";
scale = "{1.2, 1.1}";
type = Corner;
name = "_corner-bdc";
}
);
layerId = "9372F035-DA38-4B54-966C-CEBA9B53DD02";
paths = (
{
closed = 1;
nodes = (
"126 0 LINE",
"126 607 LINE",
"126 710 LINE",
"218 710 LINE",
"467 117 LINE",
"443 100 LINE",
"733 710 LINE",
"903 710 LINE",
"903 690 LINE",
"860 686 LINE SMOOTH",
"813 682 OFFCURVE",
"808 658 OFFCURVE",
"808 607 CURVE SMOOTH",
"808 1 LINE",
"733 1 LINE",
"733 669 LINE",
"748 666 LINE",
"431 7 LINE",
"421 7 LINE",
"140 670 LINE",
"156 673 LINE",
"156 0 LINE"
);
}
);
width = 900;
},
{
layerId = "E6B8952F-D64A-490A-9CF5-6DF985D88222";
width = 600;
}
);
unicode = 004D;
},
{
glyphname = N;
lastChange = "2017-10-17 11:46:15 +0000";
layers = (
{
backgroundImage = {
crop = "{{1823, 1956.053}, {43.684, 52.105}}";
imagePath = "../../Glyphs-171017/archive/Workshop Baskerville/1878 Limprimerie Berger Levrault Notice historique/Images/B543956101_050370_0013.jpg";
locked = "1";
transform = "{19, 0, 0, 19, 0, 0}";
};
hints = (
{
origin = "{0, 0}";
scale = "{1.2, 1.1}";
type = Corner;
name = "_corner-bdc";
},
{
origin = "{0, 1}";
scale = "{-1.2, 1.1}";
type = Corner;
name = "_corner-bdc";
options = 1;
},
{
origin = "{1, 3}";
scale = "{-1.2, 1.1}";
type = Corner;
name = "_corner-bdc";
options = 1;
},
{
origin = "{1, 2}";
scale = "{1.2, 1.1}";
type = Corner;
name = "_corner-bdc";
}
);
layerId = "9372F035-DA38-4B54-966C-CEBA9B53DD02";
paths = (
{
closed = 1;
nodes = (
"208 0 LINE",
"178 0 LINE",
"178 705 LINE",
"208 705 LINE"
);
},
{
closed = 1;
nodes = (
"670 0 LINE",
"640 0 LINE",
"640 710 LINE",
"670 710 LINE"
);
},
{
closed = 1;
nodes = (
"236 711 LINE",
"640 154 LINE",
"640 0 LINE",
"178 635 LINE SMOOTH",
"176 638 OFFCURVE",
"187 682 OFFCURVE",
"102 684 CURVE SMOOTH",
"68 685 LINE",
"67 713 LINE"
);
}
);
width = 830;
},
{
layerId = "E6B8952F-D64A-490A-9CF5-6DF985D88222";
width = 600;
}
);
unicode = 004E;
},
{
glyphname = P;
lastChange = "2017-10-17 11:46:15 +0000";
layers = (
{
backgroundImage = {
crop = "{{1321.132, 1329.434}, {266.038, 373.585}}";
imagePath = "../../Glyphs-171017/archive/Workshop Baskerville/1878 Limprimerie Berger Levrault Notice historique/Romain/JACOB-notice-187519.jpg";
locked = "1";
transform = "{2.65, 0, 0, 2.65, -3501, -3803}";
};
hints = (
{
origin = "{0, 4}";
scale = "{1.2, 1.1}";
type = Corner;
name = "_corner-bdc";
},
{
origin = "{0, 0}";
scale = "{-1.2, 1.1}";
type = Corner;
name = "_corner-bdc";
options = 1;
},
{
origin = "{0, 1}";
scale = "{1.2, 1.1}";
type = Corner;
name = "_corner-bdc";
}
);
layerId = "9372F035-DA38-4B54-966C-CEBA9B53DD02";
paths = (
{
closed = 1;
nodes = (
"184 0 LINE",
"185 710 LINE",
"260 710 LINE",
"259 172 LINE",
"259 0 LINE"
);
},
{
closed = 1;
nodes = (
"207 341 LINE",
"363 341 LINE SMOOTH",
"476 341 OFFCURVE",
"558 401 OFFCURVE",
"558 517 CURVE SMOOTH",
"558 639 OFFCURVE",
"452 690 OFFCURVE",
"358 685 CURVE SMOOTH",
"238 685 LINE",
"238 711 LINE",
"360 710 LINE SMOOTH",
"528 710 OFFCURVE",
"638 664 OFFCURVE",
"638 514 CURVE SMOOTH",
"638 343 OFFCURVE",
"488 315 OFFCURVE",
"358 315 CURVE SMOOTH",
"207 315 LINE"
);
}
);
width = 655;
},
{
associatedMasterId = "9372F035-DA38-4B54-966C-CEBA9B53DD02";
backgroundImage = {
crop = "{{1321.132, 1329.434}, {266.038, 373.585}}";
imagePath = "../../Glyphs-171017/archive/Workshop Baskerville/1878 Limprimerie Berger Levrault Notice historique/Romain/JACOB-notice-187519.jpg";
locked = "1";
transform = "{2.65, 0, 0, 2.65, -3501, -3803}";
};
hints = (
{
origin = "{0, 4}";
scale = "{1.2, 1.1}";
type = Corner;
name = "_corner-bdc";
},
{
origin = "{0, 0}";
scale = "{-1.2, 1.1}";
type = Corner;
name = "_corner-bdc";
options = 1;
},
{
origin = "{0, 1}";
scale = "{1.2, 1.1}";
type = Corner;
name = "_corner-bdc";
},
{
origin = "{2, 0}";
scale = "{-1.2, 1.1}";
type = Corner;
name = "_corner-bdc";
options = 1;
},
{
origin = "{2, 1}";
scale = "{1.2, 1.1}";
type = Corner;
name = "_corner-bdc";
},
{
origin = "{2, 4}";
scale = "{1.2, 1.1}";
type = Corner;
name = "_corner-bdc";
}
);
layerId = "05C69439-2CAC-448C-857A-AB981370A93B";
name = "Oct 16 17, 14:56";
paths = (
{
closed = 1;
nodes = (
"184 0 LINE",
"185 710 LINE",
"260 710 LINE",
"259 172 LINE",
"259 0 LINE"
);
},
{
closed = 1;
nodes = (
"207 341 LINE",
"376 341 LINE SMOOTH",
"478 341 OFFCURVE",
"558 401 OFFCURVE",
"558 517 CURVE SMOOTH",
"558 639 OFFCURVE",
"452 690 OFFCURVE",
"358 685 CURVE SMOOTH",
"238 685 LINE",
"238 711 LINE",
"360 710 LINE SMOOTH",
"528 710 OFFCURVE",
"638 664 OFFCURVE",
"638 514 CURVE SMOOTH",
"638 337 OFFCURVE",
"477 315 OFFCURVE",
"388 315 CURVE",
"207 315 LINE"
);
},
{
closed = 1;
nodes = (
"184 0 LINE",
"185 710 LINE",
"260 710 LINE",
"259 172 LINE",
"259 0 LINE"
);
},
{
closed = 1;
nodes = (
"207 341 LINE",
"376 341 LINE SMOOTH",
"478 341 OFFCURVE",
"558 401 OFFCURVE",
"558 517 CURVE SMOOTH",
"558 639 OFFCURVE",
"452 690 OFFCURVE",
"358 685 CURVE SMOOTH",
"238 685 LINE",
"238 711 LINE",
"360 710 LINE SMOOTH",
"528 710 OFFCURVE",
"638 664 OFFCURVE",
"638 514 CURVE SMOOTH",
"638 337 OFFCURVE",
"477 315 OFFCURVE",
"388 315 CURVE",
"207 315 LINE"
);
}
);
width = 655;
},
{
layerId = "E6B8952F-D64A-490A-9CF5-6DF985D88222";
width = 600;
}
);
unicode = 0050;
},
{
glyphname = Q;
lastChange = "2017-10-17 11:46:15 +0000";
layers = (
{
backgroundImage = {
crop = "{{122.425, 190.834}, {11.921, 14.752}}";
imagePath = "../../../../1788-89 Epreuves des caracteres de Rolland et Jacob/p19.jpg";
locked = "1";
transform = "{67.111, 0, 0, 67.111, -8216, -13087}";
};
components = (
{
name = "_part-curve-cap-left";
transform = "{1, 0, 0, 1, -49, 0}";
},
{
name = "_part-curve-cap-left";
transform = "{-1, 0, 0, 1, 790, 0}";
}
);
layerId = "9372F035-DA38-4B54-966C-CEBA9B53DD02";
paths = (
{
closed = 1;
nodes = (
"392 -1 LINE",
"207 -87 LINE",
"235 -86 OFFCURVE",
"271 -85 OFFCURVE",
"299 -85 CURVE SMOOTH",
"478 -85 OFFCURVE",
"508 -271 OFFCURVE",
"651 -271 CURVE SMOOTH",
"737 -271 OFFCURVE",
"758 -199 OFFCURVE",
"758 -145 CURVE",
"780 -145 LINE",
"780 -289 OFFCURVE",
"707 -353 OFFCURVE",
"579 -353 CURVE SMOOTH",
"436 -353 OFFCURVE",
"360 -240 OFFCURVE",
"287 -145 CURVE SMOOTH",
"271 -124 OFFCURVE",
"248 -102 OFFCURVE",
"200 -102 CURVE SMOOTH",
"162 -102 OFFCURVE",
"137 -124 OFFCURVE",
"128 -146 CURVE SMOOTH",
"116 -174 OFFCURVE",
"88 -187 OFFCURVE",
"59 -187 CURVE SMOOTH",
"38 -187 OFFCURVE",
"22 -174 OFFCURVE",
"22 -155 CURVE SMOOTH",
"22 -113 OFFCURVE",
"72 -86 OFFCURVE",
"159 -86 CURVE",
"348 -3 LINE"
);
}
);
width = 800;
},
{
layerId = "E6B8952F-D64A-490A-9CF5-6DF985D88222";
width = 600;
}
);
unicode = 0051;
},
{
glyphname = R;
lastChange = "2017-10-17 11:46:15 +0000";
layers = (
{
backgroundImage = {
crop = "{{1436.296, 1029.63}, {296.296, 366.667}}";
imagePath = "../../Glyphs-171017/archive/Workshop Baskerville/1878 Limprimerie Berger Levrault Notice historique/Romain/JACOB-notice-187518.jpg";
locked = "1";
transform = "{2.7, 0, 0, 2.7, -3878, -3060}";
};
hints = (
{
origin = "{0, 1}";
scale = "{1.2, 1.1}";
type = Corner;
name = "_corner-bdc";
},
{
origin = "{0, 0}";
scale = "{-1.2, 1.1}";
type = Corner;
name = "_corner-bdc";
options = 1;
},
{
origin = "{0, 4}";
scale = "{1.2, 1.1}";
type = Corner;
name = "_corner-bdc";
}
);
layerId = "9372F035-DA38-4B54-966C-CEBA9B53DD02";
paths = (
{
closed = 1;
nodes = (
"181 0 LINE",
"182 710 LINE",
"257 710 LINE",
"256 172 LINE",
"256 0 LINE"
);
},
{
closed = 1;
nodes = (
"467 347 OFFCURVE",
"589 349 OFFCURVE",
"609 169 CURVE SMOOTH",
"629 -15 OFFCURVE",
"707 19 OFFCURVE",
"738 47 CURVE",
"743 30 LINE",
"722 9 OFFCURVE",
"579 -70 OFFCURVE",
"529 74 CURVE SMOOTH",
"492 179 OFFCURVE",
"514 252 OFFCURVE",
"461 307 CURVE SMOOTH",
"419 351 OFFCURVE",
"352 347 OFFCURVE",
"313 347 CURVE",
"313 356 LINE",
"409 354 LINE"
);
},
{
closed = 1;
nodes = (
"204 373 LINE",
"363 373 LINE SMOOTH",
"459 372 OFFCURVE",
"531 412 OFFCURVE",
"531 539 CURVE SMOOTH",
"531 629 OFFCURVE",
"453 684 OFFCURVE",
"345 684 CURVE SMOOTH",
"235 684 LINE",
"235 710 LINE",
"355 710 LINE SMOOTH",
"467 710 OFFCURVE",
"611 672 OFFCURVE",
"611 539 CURVE SMOOTH",
"611 364 OFFCURVE",
"453 349 OFFCURVE",
"375 347 CURVE",
"204 347 LINE"
);
}
);
width = 750;
},
{
layerId = "E6B8952F-D64A-490A-9CF5-6DF985D88222";
width = 600;
}
);
unicode = 0052;
},
{
glyphname = S;
lastChange = "2017-10-17 11:46:15 +0000";
layers = (
{
backgroundImage = {
crop = "{{897.433, 1349.501}, {201.068, 331.762}}";
imagePath = "../../../../1878 Limprimerie Berger Levrault Notice historique/Romain/JACOB-notice-187538.jpg";
locked = "1";
transform = "{2.984, 0, 0, 2.984, -2678, -4307}";
};
layerId = "9372F035-DA38-4B54-966C-CEBA9B53DD02";
paths = (
{
closed = 1;
nodes = (
"264 445 OFFCURVE",
"189 475 OFFCURVE",
"189 561 CURVE SMOOTH",
"189 632 OFFCURVE",
"255 695 OFFCURVE",
"339 695 CURVE SMOOTH",
"437 695 OFFCURVE",
"492 620 OFFCURVE",
"515 524 CURVE",
"535 524 LINE",
"533 633 LINE",
"535 689 LINE",
"515 689 LINE",
"509 676 OFFCURVE",
"501 667 OFFCURVE",
"489 667 CURVE SMOOTH",
"476 667 OFFCURVE",
"472 673 OFFCURVE",
"452 686 CURVE SMOOTH",
"429 701 OFFCURVE",
"393 720 OFFCURVE",
"339 720 CURVE SMOOTH",
"231 720 OFFCURVE",
"129 643 OFFCURVE",
"129 507 CURVE SMOOTH",
"129 417 OFFCURVE",
"186 378 OFFCURVE",
"285 331 CURVE SMOOTH",
"403 275 OFFCURVE",
"494 245 OFFCURVE",
"494 142 CURVE SMOOTH",
"494 42 OFFCURVE",
"399 16 OFFCURVE",
"339 16 CURVE SMOOTH",
"228 16 OFFCURVE",
"153 126 OFFCURVE",
"141 248 CURVE",
"121 248 LINE",
"123 116 LINE",
"121 18 LINE",
"141 18 LINE",
"147 40 OFFCURVE",
"157 58 OFFCURVE",
"174 58 CURVE SMOOTH",
"186 58 OFFCURVE",
"196 49 OFFCURVE",
"204 43 CURVE SMOOTH",
"232 22 OFFCURVE",
"274 -10 OFFCURVE",
"339 -10 CURVE SMOOTH",
"465 -10 OFFCURVE",
"548 87 OFFCURVE",
"548 206 CURVE SMOOTH",
"548 306 OFFCURVE",
"479 355 OFFCURVE",
"345 411 CURVE SMOOTH"
);
}
);
width = 600;
},
{
layerId = "E6B8952F-D64A-490A-9CF5-6DF985D88222";
width = 600;
}
);
unicode = 0053;
},
{
glyphname = T;
lastChange = "2017-10-17 11:46:15 +0000";
layers = (
{
hints = (
{
origin = "{0, 0}";
scale = "{1.3, 1.1}";
type = Corner;
name = "_corner-bdc";
},
{
origin = "{0, 1}";
scale = "{-1.3, 1.1}";
type = Corner;
name = "_corner-bdc";
options = 1;
}
);
layerId = "9372F035-DA38-4B54-966C-CEBA9B53DD02";
paths = (
{
closed = 1;
nodes = (
"436 0 LINE",
"361 0 LINE",
"360 511 LINE",
"360 586 OFFCURVE",
"360 586 OFFCURVE",
"360 620 CURVE SMOOTH",
"360 660 OFFCURVE",
"342 689 OFFCURVE",
"294 689 CURVE SMOOTH",
"234 689 OFFCURVE",
"134 695 OFFCURVE",
"98 655 CURVE SMOOTH",
"79 634 OFFCURVE",
"59 614 OFFCURVE",
"27 503 CURVE",
"6 510 LINE",
"42 713 LINE",
"392 710 LINE",
"757 713 LINE",
"793 510 LINE",
"772 503 LINE",
"740 614 OFFCURVE",
"720 634 OFFCURVE",
"701 655 CURVE SMOOTH",
"665 695 OFFCURVE",
"557 689 OFFCURVE",
"497 689 CURVE SMOOTH",
"449 689 OFFCURVE",
"435 662 OFFCURVE",
"435 620 CURVE SMOOTH",
"435 586 OFFCURVE",
"435 586 OFFCURVE",
"435 511 CURVE"
);
}
);
width = 800;
},
{
layerId = "E6B8952F-D64A-490A-9CF5-6DF985D88222";
width = 600;
}
);
unicode = 0054;
},
{
glyphname = U;
lastChange = "2017-10-17 11:46:15 +0000";
layers = (
{
backgroundImage = {
crop = "{{1243.093, 2255.185}, {79.054, 101.64}}";
imagePath = "../../Glyphs-171017/archive/1790 La Constitution Française de Jacob/JACOB-constitution-179001.jpg";
locked = "1";
transform = "{9.739, 0.17, -0.17, 9.739, -11702, 0}";
};
hints = (
{
origin = "{0, 5}";
scale = "{1.2, 1.1}";
type = Corner;
name = "_corner-bdc";
},
{
origin = "{0, 6}";
scale = "{-1.2, 1.1}";
type = Corner;
name = "_corner-bdc";
options = 1;
},
{
origin = "{0, 17}";
scale = "{-1.2, 1.1}";
type = Corner;
name = "_corner-bdc";
options = 1;
},
{
origin = "{0, 16}";
scale = "{1.2, 1.1}";
type = Corner;
name = "_corner-bdc";
}
);
layerId = "9372F035-DA38-4B54-966C-CEBA9B53DD02";
paths = (
{
closed = 1;
nodes = (
"199 -11 OFFCURVE",
"143 52 OFFCURVE",
"143 204 CURVE SMOOTH",
"143 409 OFFCURVE",
"143 603 OFFCURVE",
"143 710 CURVE",
"218 710 LINE",
"218 614 OFFCURVE",
"218 405 OFFCURVE",
"218 204 CURVE SMOOTH",
"218 51 OFFCURVE",
"284 15 OFFCURVE",
"401 15 CURVE SMOOTH",
"554 15 OFFCURVE",
"611 81 OFFCURVE",
"611 274 CURVE SMOOTH",
"611 710 LINE",
"639 710 LINE",
"639 308 LINE SMOOTH",
"639 91 OFFCURVE",
"589 -11 OFFCURVE",
"401 -11 CURVE SMOOTH"
);
}
);
width = 770;
},
{
layerId = "E6B8952F-D64A-490A-9CF5-6DF985D88222";
width = 600;
}
);
unicode = 0055;
},
{
glyphname = V;
lastChange = "2017-10-17 11:46:15 +0000";
layers = (
{
backgroundImage = {
crop = "{{1421.943, 833.867}, {330.508, 376.095}}";
imagePath = "../../Glyphs-171017/archive/1878 Limprimerie Berger Levrault Notice historique/Romain/JACOB-notice-187505.jpg";
locked = "1";
transform = "{2.632, 0, 0, 2.632, -3743, -2475}";
};
layerId = "9372F035-DA38-4B54-966C-CEBA9B53DD02";
paths = (
{
closed = 1;
nodes = (
"363 710 LINE",
"363 692 LINE",
"321 688 LINE SMOOTH",
"264 683 OFFCURVE",
"235 659 OFFCURVE",
"262 594 CURVE SMOOTH",
"481 70 LINE",
"450 43 LINE",
"693 621 LINE SMOOTH",
"712 667 OFFCURVE",
"681 682 OFFCURVE",
"634 688 CURVE SMOOTH",
"601 692 LINE",
"601 710 LINE",
"733 708 LINE",
"858 710 LINE",
"858 692 LINE",
"815 688 LINE SMOOTH",
"771 684 OFFCURVE",
"742 665 OFFCURVE",
"727 628 CURVE SMOOTH",
"465 -16 LINE",
"445 -16 LINE",
"174 593 LINE SMOOTH",
"134 682 OFFCURVE",
"127 684 OFFCURVE",
"27 684 CURVE",
"27 711 LINE",
"268 710 LINE"
);
}
);
width = 870;
},
{
layerId = "E6B8952F-D64A-490A-9CF5-6DF985D88222";
width = 600;
}
);
unicode = 0056;
},
{
glyphname = W;
lastChange = "2017-10-17 11:46:15 +0000";
layers = (
{
background = {
paths = (
{
closed = 1;
nodes = (
"334 -16 LINE",
"354 -16 LINE",
"586 628 LINE SMOOTH",
"599 665 OFFCURVE",
"630 684 OFFCURVE",
"674 688 CURVE SMOOTH",
"717 692 LINE",
"717 710 LINE",
"460 710 LINE",
"460 692 LINE",
"493 688 LINE SMOOTH",
"540 682 OFFCURVE",
"569 667 OFFCURVE",
"552 621 CURVE SMOOTH",
"357 82 LINE",
"386 89 LINE",
"224 594 LINE SMOOTH",
"210 638 OFFCURVE",
"226 683 OFFCURVE",
"283 688 CURVE SMOOTH",
"326 692 LINE",
"326 710 LINE",
"248 710 LINE SMOOTH",
"172 710 OFFCURVE",
"106 662 OFFCURVE",
"129 593 CURVE SMOOTH"
);
}
);
};
backgroundImage = {
crop = "{{1180, 1157.037}, {444.444, 366.667}}";
imagePath = "../../../../1878 Limprimerie Berger Levrault Notice historique/Romain/JACOB-notice-187514.jpg";
locked = "1";
transform = "{2.7, 0, 0, 2.7, -3252, -3404}";
};
layerId = "9372F035-DA38-4B54-966C-CEBA9B53DD02";
paths = (
{
closed = 1;
nodes = (
"775 -16 LINE",
"795 -16 LINE",
"1027 628 LINE SMOOTH",
"1040 665 OFFCURVE",
"1071 684 OFFCURVE",
"1115 688 CURVE SMOOTH",
"1158 692 LINE",
"1158 710 LINE",
"1033 708 LINE",
"901 710 LINE",
"901 692 LINE",
"934 688 LINE SMOOTH",
"981 682 OFFCURVE",
"1010 667 OFFCURVE",
"993 621 CURVE SMOOTH",
"798 82 LINE",
"820 82 LINE",
"665 594 LINE SMOOTH",
"652 638 OFFCURVE",
"667 683 OFFCURVE",
"724 688 CURVE SMOOTH",
"766 692 LINE",
"766 710 LINE",
"671 710 LINE SMOOTH",
"601 710 OFFCURVE",
"557 652 OFFCURVE",
"577 593 CURVE SMOOTH"
);
},
{
closed = 1;
nodes = (
"600 657 OFFCURVE",
"574 710 OFFCURVE",
"511 710 CURVE SMOOTH",
"455 710 LINE",
"455 692 LINE",
"483 690 LINE SMOOTH",
"548 685 OFFCURVE",
"567 652 OFFCURVE",
"548 597 CURVE SMOOTH",
"368 82 LINE",
"386 82 LINE",
"222 628 LINE SMOOTH",
"207 677 OFFCURVE",
"251 689 OFFCURVE",
"294 691 CURVE SMOOTH",
"320 692 LINE",
"320 710 LINE",
"155 708 LINE",
"0 710 LINE",
"0 692 LINE",
"43 688 LINE SMOOTH",
"86 684 OFFCURVE",
"122 669 OFFCURVE",
"134 632 CURVE SMOOTH",
"342 -16 LINE",
"362 -16 LINE",
"586 617 LINE SMOOTH"
);
}
);
width = 1158;
},
{
layerId = "E6B8952F-D64A-490A-9CF5-6DF985D88222";
width = 600;
}
);
unicode = 0057;
},
{
glyphname = X;
lastChange = "2017-10-17 11:46:15 +0000";
layers = (
{
backgroundImage = {
crop = "{{1307.627, 1364.547}, {297.969, 378.192}}";
imagePath = "../../Glyphs-171017/archive/1878 Limprimerie Berger Levrault Notice historique/Romain/JACOB-notice-187513.jpg";
locked = "1";
transform = "{2.618, 0, 0, 2.618, -3423, -3852}";
};
layerId = "9372F035-DA38-4B54-966C-CEBA9B53DD02";
paths = (
{
closed = 1;
nodes = (
"387 423 LINE",
"544 636 LINE SMOOTH",
"564 663 OFFCURVE",
"555 684 OFFCURVE",
"508 690 CURVE SMOOTH",
"475 694 LINE",
"475 712 LINE",
"607 710 LINE",
"712 712 LINE",
"712 692 LINE",
"667 690 LINE SMOOTH",
"613 688 OFFCURVE",
"592 661 OFFCURVE",
"574 636 CURVE SMOOTH",
"402 403 LINE"
);
},
{
closed = 1;
nodes = (
"646 41 OFFCURVE",
"661 31 OFFCURVE",
"761 31 CURVE",
"761 4 LINE",
"520 5 LINE",
"425 5 LINE",
"425 23 LINE",
"467 27 LINE SMOOTH",
"524 32 OFFCURVE",
"545 60 OFFCURVE",
"506 121 CURVE SMOOTH",
"204 593 LINE SMOOTH",
"152 674 OFFCURVE",
"137 684 OFFCURVE",
"37 684 CURVE",
"37 711 LINE",
"278 710 LINE",
"373 710 LINE",
"373 692 LINE",
"331 688 LINE SMOOTH",
"274 683 OFFCURVE",
"253 655 OFFCURVE",
"292 594 CURVE SMOOTH",
"594 122 LINE SMOOTH"
);
},
{
closed = 1;
nodes = (
"381 345 LINE",
"189 74 LINE SMOOTH",
"171 48 OFFCURVE",
"178 23 OFFCURVE",
"225 20 CURVE SMOOTH",
"298 16 LINE",
"298 -2 LINE",
"126 0 LINE",
"21 -2 LINE",
"21 18 LINE",
"66 20 LINE SMOOTH",
"120 22 OFFCURVE",
"142 50 OFFCURVE",
"159 74 CURVE SMOOTH",
"366 365 LINE"
);
}
);
width = 780;
},
{
layerId = "E6B8952F-D64A-490A-9CF5-6DF985D88222";
width = 600;
}
);
unicode = 0058;
},
{
glyphname = Y;
lastChange = "2017-10-17 11:46:15 +0000";
layers = (
{
backgroundImage = {
crop = "{{248.984, 192.024}, {12.151, 15.037}}";
imagePath = "../../Glyphs-171017/archive/1788-89 Epreuves des caracteres de Rolland et Jacob/p19.jpg";
locked = "1";
transform = "{65.836, 0, 0, 65.836, -16392, -12922}";
};
hints = (
{
origin = "{1, 1}";
scale = "{1.2, 1.1}";
type = Corner;
name = "_corner-bdc";
},
{
origin = "{1, 2}";
scale = "{1.2, -1.1}";
type = Corner;
name = "_corner-bdc";
options = 1;
}
);
layerId = "9372F035-DA38-4B54-966C-CEBA9B53DD02";
paths = (
{
closed = 1;
nodes = (
"374 710 LINE",
"374 686 LINE",
"332 686 LINE SMOOTH",
"280 686 OFFCURVE",
"218 685 OFFCURVE",
"240 644 CURVE SMOOTH",
"431 291 LINE",
"417 291 LINE",
"622 621 LINE SMOOTH",
"647 662 OFFCURVE",
"610 682 OFFCURVE",
"563 688 CURVE SMOOTH",
"530 692 LINE",
"530 710 LINE",
"662 708 LINE",
"787 710 LINE",
"787 692 LINE",
"744 688 LINE SMOOTH",
"700 684 OFFCURVE",
"678 665 OFFCURVE",
"656 628 CURVE SMOOTH",
"431 256 LINE",
"382 256 LINE",
"185 593 LINE SMOOTH",
"134 680 OFFCURVE",
"138 684 OFFCURVE",
"38 684 CURVE",
"38 711 LINE",
"279 710 LINE"
);
},
{
closed = 1;
nodes = (
"444 278 LINE",
"444 0 LINE",
"369 0 LINE",
"369 278 LINE"
);
}
);
width = 800;
},
{
layerId = "E6B8952F-D64A-490A-9CF5-6DF985D88222";
width = 600;
}
);
unicode = 0059;
},
{
glyphname = Z;
lastChange = "2017-10-17 11:46:15 +0000";
layers = (
{
backgroundImage = {
crop = "{{267.352, 192.418}, {10.637, 14.626}}";
imagePath = "../../Glyphs-171017/archive/1788-89 Epreuves des caracteres de Rolland et Jacob/p19.jpg";
locked = "1";
transform = "{67.686, 0, 0, 67.686, -18096, -13304}";
};
layerId = "9372F035-DA38-4B54-966C-CEBA9B53DD02";
paths = (
{
closed = 1;
nodes = (
"207 116 LINE SMOOTH",
"168 55 OFFCURVE",
"189 27 OFFCURVE",
"246 22 CURVE SMOOTH",
"288 18 LINE",
"288 0 LINE",
"193 0 LINE",
"-48 -1 LINE",
"-48 26 LINE",
"52 26 OFFCURVE",
"67 36 OFFCURVE",
"119 117 CURVE SMOOTH",
"421 589 LINE SMOOTH",
"460 650 OFFCURVE",
"439 678 OFFCURVE",
"382 683 CURVE SMOOTH",
"340 687 LINE",
"340 705 LINE",
"435 705 LINE",
"676 706 LINE",
"676 679 LINE",
"576 679 OFFCURVE",
"561 669 OFFCURVE",
"509 588 CURVE SMOOTH"
);
}
);
width = 720;
},
{
layerId = "E6B8952F-D64A-490A-9CF5-6DF985D88222";
width = 600;
}
);
unicode = 005A;
},
{
glyphname = a;
lastChange = "2017-10-17 11:45:56 +0000";
layers = (
{
backgroundImage = {
crop = "{{1728.554, 843.606}, {223.472, 368.728}}";
imagePath = "../../../../Desktop/ANRT-Baskerwille/1878 Limprimerie Berger Levrault Notice historique/Romain/JACOB-notice-187505.jpg";
locked = "1";
transform = "{2.684, 0.07, -0.07, 2.684, -4605, -2676}";
};
guideLines = (
{
position = "{201, 19}";
}
);
layerId = "9372F035-DA38-4B54-966C-CEBA9B53DD02";
paths = (
{
closed = 1;
nodes = (
"397 332 LINE",
"397 118 LINE",
"327 118 LINE",
"327 332 LINE"
);
},
{
closed = 1;
nodes = (
"327 389 OFFCURVE",
"303 430 OFFCURVE",
"245 429 CURVE",
"245 454 LINE",
"354 454 OFFCURVE",
"397 404 OFFCURVE",
"397 331 CURVE",
"327 326 LINE"
);
},
{
closed = 1;
nodes = (
"196 429 OFFCURVE",
"157 415 OFFCURVE",
"153 401 CURVE SMOOTH",
"148 386 OFFCURVE",
"161 383 OFFCURVE",
"161 359 CURVE SMOOTH",
"161 334 OFFCURVE",
"142 310 OFFCURVE",
"117 310 CURVE SMOOTH",
"93 310 OFFCURVE",
"73 328 OFFCURVE",
"73 351 CURVE SMOOTH",
"73 425 OFFCURVE",
"172 454 OFFCURVE",
"247 454 CURVE",
"247 429 LINE"
);
},
{
closed = 1;
nodes = (
"338 -14 OFFCURVE",
"327 51 OFFCURVE",
"327 118 CURVE",
"397 118 LINE",
"397 82 OFFCURVE",
"403 21 OFFCURVE",
"433 21 CURVE SMOOTH",
"448 21 OFFCURVE",
"458 36 OFFCURVE",
"463 53 CURVE",
"482 48 LINE",
"477 9 OFFCURVE",
"440 -14 OFFCURVE",
"403 -14 CURVE SMOOTH"
);
},
{
closed = 1;
nodes = (
"341 135 LINE",
"341 53 OFFCURVE",
"251 -14 OFFCURVE",
"171 -14 CURVE SMOOTH",
"105 -14 OFFCURVE",
"57 16 OFFCURVE",
"57 83 CURVE SMOOTH",
"57 185 OFFCURVE",
"267 266 OFFCURVE",
"343 286 CURVE"
);
},
{
closed = 1;
nodes = (
"244 236 OFFCURVE",
"135 173 OFFCURVE",
"135 83 CURVE SMOOTH",
"135 41 OFFCURVE",
"164 15 OFFCURVE",
"201 15 CURVE SMOOTH",
"258 15 OFFCURVE",
"333 91 OFFCURVE",
"333 150 CURVE",
"332 256 LINE"
);
}
);
width = 522;
},
{
associatedMasterId = "9372F035-DA38-4B54-966C-CEBA9B53DD02";
backgroundImage = {
crop = "{{1728.554, 843.606}, {223.472, 368.728}}";
imagePath = "../../../../Desktop/ANRT-Baskerwille/1878 Limprimerie Berger Levrault Notice historique/Romain/JACOB-notice-187505.jpg";
locked = "1";
transform = "{2.684, 0.07, -0.07, 2.684, -4605, -2676}";
};
guideLines = (
{
position = "{201, 19}";
}
);
layerId = "132EB873-7EB1-4BE8-AD64-1EFB370283C1";
name = "Oct 16 17, 11:10";
paths = (
{
closed = 1;
nodes = (
"397 332 LINE",
"397 118 LINE",
"327 118 LINE",
"327 332 LINE"
);
},
{
closed = 1;
nodes = (
"327 387 OFFCURVE",
"303 426 OFFCURVE",
"245 425 CURVE",
"245 450 LINE",
"354 450 OFFCURVE",
"397 402 OFFCURVE",
"397 331 CURVE",
"327 326 LINE"
);
},
{
closed = 1;
nodes = (
"206 425 OFFCURVE",
"157 413 OFFCURVE",
"153 401 CURVE SMOOTH",
"148 386 OFFCURVE",
"161 383 OFFCURVE",
"161 359 CURVE SMOOTH",
"161 334 OFFCURVE",
"142 310 OFFCURVE",
"117 310 CURVE SMOOTH",
"90 310 OFFCURVE",
"68 328 OFFCURVE",
"68 359 CURVE SMOOTH",
"68 422 OFFCURVE",
"170 450 OFFCURVE",
"247 450 CURVE",
"247 425 LINE"
);
},
{
closed = 1;
nodes = (
"338 -11 OFFCURVE",
"327 53 OFFCURVE",
"327 118 CURVE",
"397 118 LINE",
"397 83 OFFCURVE",
"403 24 OFFCURVE",
"433 24 CURVE SMOOTH",
"448 24 OFFCURVE",
"458 38 OFFCURVE",
"463 53 CURVE",
"482 48 LINE",
"477 11 OFFCURVE",
"440 -11 OFFCURVE",
"403 -11 CURVE SMOOTH"
);
},
{
closed = 1;
nodes = (
"341 135 LINE",
"341 55 OFFCURVE",
"251 -10 OFFCURVE",
"171 -10 CURVE SMOOTH",
"107 -10 OFFCURVE",
"60 19 OFFCURVE",
"60 83 CURVE SMOOTH",
"60 185 OFFCURVE",
"268 266 OFFCURVE",
"343 286 CURVE"
);
},
{
closed = 1;
nodes = (
"242 236 OFFCURVE",
"130 173 OFFCURVE",
"130 83 CURVE SMOOTH",
"130 43 OFFCURVE",
"161 19 OFFCURVE",
"201 19 CURVE SMOOTH",
"258 19 OFFCURVE",
"333 93 OFFCURVE",
"333 150 CURVE",
"332 256 LINE"
);
}
);
width = 522;
},
{
associatedMasterId = "9372F035-DA38-4B54-966C-CEBA9B53DD02";
backgroundImage = {
crop = "{{1728.554, 843.606}, {223.472, 368.728}}";
imagePath = "../../../../Desktop/ANRT-Baskerwille/1878 Limprimerie Berger Levrault Notice historique/Romain/JACOB-notice-187505.jpg";
locked = "1";
transform = "{2.684, 0.07, -0.07, 2.684, -4605, -2676}";
};
guideLines = (
{
position = "{201, 19}";
}
);
layerId = "4B081716-8C65-4F88-A085-0FB86998B5EF";
name = "Oct 16 17, 13:35";
paths = (
{
closed = 1;
nodes = (
"397 332 LINE",
"397 118 LINE",
"327 118 LINE",
"327 332 LINE"
);
},
{
closed = 1;
nodes = (
"327 389 OFFCURVE",
"303 430 OFFCURVE",
"245 429 CURVE",
"245 454 LINE",
"354 454 OFFCURVE",
"397 404 OFFCURVE",
"397 331 CURVE",
"327 326 LINE"
);
},
{
closed = 1;
nodes = (
"206 429 OFFCURVE",
"157 415 OFFCURVE",
"153 401 CURVE SMOOTH",
"148 386 OFFCURVE",
"161 383 OFFCURVE",
"161 359 CURVE SMOOTH",
"161 334 OFFCURVE",
"142 310 OFFCURVE",
"117 310 CURVE SMOOTH",
"93 310 OFFCURVE",
"73 328 OFFCURVE",
"73 351 CURVE SMOOTH",
"73 425 OFFCURVE",
"172 454 OFFCURVE",
"247 454 CURVE",
"247 429 LINE"
);
},
{
closed = 1;
nodes = (
"338 -14 OFFCURVE",
"327 51 OFFCURVE",
"327 118 CURVE",
"397 118 LINE",
"397 82 OFFCURVE",
"403 21 OFFCURVE",
"433 21 CURVE SMOOTH",
"448 21 OFFCURVE",
"458 36 OFFCURVE",
"463 53 CURVE",
"482 48 LINE",
"477 9 OFFCURVE",
"440 -14 OFFCURVE",
"403 -14 CURVE SMOOTH"
);
},
{
closed = 1;
nodes = (
"341 135 LINE",
"341 53 OFFCURVE",
"251 -14 OFFCURVE",
"171 -14 CURVE SMOOTH",
"105 -14 OFFCURVE",
"57 16 OFFCURVE",
"57 83 CURVE SMOOTH",
"57 185 OFFCURVE",
"267 266 OFFCURVE",
"343 286 CURVE"
);
},
{
closed = 1;
nodes = (
"244 236 OFFCURVE",
"135 173 OFFCURVE",
"135 83 CURVE SMOOTH",
"135 41 OFFCURVE",
"164 15 OFFCURVE",
"201 15 CURVE SMOOTH",
"258 15 OFFCURVE",
"333 91 OFFCURVE",
"333 150 CURVE",
"332 256 LINE"
);
}
);
width = 522;
},
{
layerId = "E6B8952F-D64A-490A-9CF5-6DF985D88222";
width = 600;
}
);
unicode = 0061;
},
{
glyphname = b;
lastChange = "2017-10-17 11:46:15 +0000";
layers = (
{
backgroundImage = {
crop = "{{1332.067, 1211.626}, {227.964, 376.14}}";
imagePath = "../../../../Desktop/ANRT-Baskerwille/1878 Limprimerie Berger Levrault Notice historique/Romain/JACOB-notice-187508.jpg";
locked = "1";
transform = "{2.632, 0, 0, 2.632, -3507, -3469}";
};
components = (
{
name = "_part-bdc";
transform = "{1, 0, 0, 1, -20, 270}";
}
);
layerId = "9372F035-DA38-4B54-966C-CEBA9B53DD02";
paths = (
{
closed = 1;
nodes = (
"168 644 LINE",
"168 56 LINE",
"98 -14 LINE",
"98 644 LINE"
);
},
{
closed = 1;
nodes = (
"430 220 LINE",
"430 339 OFFCURVE",
"386 429 OFFCURVE",
"300 429 CURVE SMOOTH",
"193 429 OFFCURVE",
"130 329 OFFCURVE",
"130 220 CURVE",
"110 220 LINE",
"110 351 OFFCURVE",
"183 454 OFFCURVE",
"300 454 CURVE SMOOTH",
"422 454 OFFCURVE",
"510 351 OFFCURVE",
"510 220 CURVE"
);
},
{
closed = 1;
nodes = (
"510 89 OFFCURVE",
"422 -14 OFFCURVE",
"300 -14 CURVE SMOOTH",
"183 -14 OFFCURVE",
"110 89 OFFCURVE",
"110 220 CURVE",
"130 220 LINE",
"130 111 OFFCURVE",
"193 11 OFFCURVE",
"300 11 CURVE SMOOTH",
"386 11 OFFCURVE",
"430 101 OFFCURVE",
"430 220 CURVE",
"510 220 LINE"
);
}
);
width = 530;
},
{
associatedMasterId = "9372F035-DA38-4B54-966C-CEBA9B53DD02";
backgroundImage = {
crop = "{{1332.067, 1211.626}, {227.964, 376.14}}";
imagePath = "../../../../alexisfaudot/Desktop/ANRT-Baskerwille/1878 Limprimerie Berger Levrault Notice historique/Romain/JACOB-notice-187508.jpg";
locked = "1";
transform = "{2.632, 0, 0, 2.632, -3506, -3469}";
};
components = (
{
name = "_part-bdc";
transform = "{1, 0, 0, 1, -19, 270}";
}
);
layerId = "F6DF5954-FAB0-4A22-888F-81F7B36FE339";
name = "Oct 13 17, 17:11";
paths = (
{
closed = 1;
nodes = (
"169 614 LINE",
"169 70 LINE",
"99 0 LINE",
"99 614 LINE"
);
},
{
closed = 1;
nodes = (
"190 -10 OFFCURVE",
"111 92 OFFCURVE",
"111 220 CURVE SMOOTH",
"111 349 OFFCURVE",
"194 450 OFFCURVE",
"301 450 CURVE SMOOTH",
"423 450 OFFCURVE",
"511 349 OFFCURVE",
"511 220 CURVE SMOOTH",
"511 92 OFFCURVE",
"409 -10 OFFCURVE",
"291 -10 CURVE SMOOTH"
);
},
{
closed = 1;
nodes = (
"385 15 OFFCURVE",
"431 104 OFFCURVE",
"431 220 CURVE SMOOTH",
"431 337 OFFCURVE",
"387 425 OFFCURVE",
"301 425 CURVE SMOOTH",
"194 425 OFFCURVE",
"131 337 OFFCURVE",
"131 220 CURVE SMOOTH",
"131 104 OFFCURVE",
"190 15 OFFCURVE",
"291 15 CURVE SMOOTH"
);
}
);
width = 530;
},
{
layerId = "E6B8952F-D64A-490A-9CF5-6DF985D88222";
width = 600;
}
);
rightMetricsKey = o;
unicode = 0062;
},
{
glyphname = c;
lastChange = "2017-10-18 10:33:44 +0000";
layers = (
{
background = {
paths = (
{
closed = 0;
nodes = (
"358 429 LINE SMOOTH",
"416 429 OFFCURVE",
"431 394 OFFCURVE",
"431 369 CURVE SMOOTH",
"431 338 OFFCURVE",
"411 316 OFFCURVE",
"384 316 CURVE SMOOTH",
"352 316 OFFCURVE",
"335 343 OFFCURVE",
"335 360 CURVE SMOOTH",
"335 376 OFFCURVE",
"340 384 OFFCURVE",
"338 391 CURVE SMOOTH",
"336 399 OFFCURVE",
"323 398 OFFCURVE",
"317 397 CURVE SMOOTH"
);
}
);
};
backgroundImage = {
crop = "{{1215.805, 1401.216}, {227.964, 376.14}}";
imagePath = "../../../../Desktop/ANRT-Baskerwille/1878 Limprimerie Berger Levrault Notice historique/Romain/JACOB-notice-187516.jpg";
locked = "1";
transform = "{2.632, 0, 0, 2.632, -3266, -3968}";
};
layerId = "9372F035-DA38-4B54-966C-CEBA9B53DD02";
paths = (
{
closed = 1;
nodes = (
"50 80 OFFCURVE",
"140 -14 OFFCURVE",
"280 -14 CURVE SMOOTH",
"360 -14 OFFCURVE",
"435 40 OFFCURVE",
"435 114 CURVE",
"410 119 LINE",
"410 46 OFFCURVE",
"350 11 OFFCURVE",
"280 11 CURVE SMOOTH",
"173 11 OFFCURVE",
"130 102 OFFCURVE",
"130 220 CURVE SMOOTH",
"130 339 OFFCURVE",
"167 429 OFFCURVE",
"290 429 CURVE SMOOTH",
"315 429 OFFCURVE",
"355 425 OFFCURVE",
"355 405 CURVE SMOOTH",
"355 394 OFFCURVE",
"346 386 OFFCURVE",
"346 366 CURVE SMOOTH",
"346 341 OFFCURVE",
"365 320 OFFCURVE",
"390 320 CURVE SMOOTH",
"417 320 OFFCURVE",
"439 338 OFFCURVE",
"439 369 CURVE SMOOTH",
"439 422 OFFCURVE",
"353 454 OFFCURVE",
"290 454 CURVE SMOOTH",
"149 454 OFFCURVE",
"50 351 OFFCURVE",
"50 220 CURVE SMOOTH"
);
}
);
width = 459;
},
{
associatedMasterId = "9372F035-DA38-4B54-966C-CEBA9B53DD02";
background = {
paths = (
{
closed = 0;
nodes = (
"324 429 LINE SMOOTH",
"382 429 OFFCURVE",
"397 394 OFFCURVE",
"397 369 CURVE SMOOTH",
"397 338 OFFCURVE",
"377 316 OFFCURVE",
"350 316 CURVE SMOOTH",
"318 316 OFFCURVE",
"301 343 OFFCURVE",
"301 360 CURVE SMOOTH",
"301 376 OFFCURVE",
"306 384 OFFCURVE",
"304 391 CURVE SMOOTH",
"302 399 OFFCURVE",
"289 398 OFFCURVE",
"283 397 CURVE SMOOTH"
);
}
);
};
backgroundImage = {
crop = "{{1215.805, 1401.216}, {227.964, 376.14}}";
imagePath = "../../../../alexisfaudot/Desktop/ANRT-Baskerwille/1878 Limprimerie Berger Levrault Notice historique/Romain/JACOB-notice-187516.jpg";
locked = "1";
transform = "{2.632, 0, 0, 2.632, -3300, -3968}";
};
layerId = "BDC9814F-CB60-465B-9AF9-21221BF16C30";
name = "Oct 13 17, 17:13";
paths = (
{
closed = 1;
nodes = (
"36 92 OFFCURVE",
"132 -10 OFFCURVE",
"256 -10 CURVE SMOOTH",
"346 -10 OFFCURVE",
"421 43 OFFCURVE",
"421 133 CURVE",
"396 133 LINE",
"396 53 OFFCURVE",
"336 15 OFFCURVE",
"256 15 CURVE SMOOTH",
"156 15 OFFCURVE",
"116 104 OFFCURVE",
"116 220 CURVE SMOOTH",
"116 337 OFFCURVE",
"155 425 OFFCURVE",
"256 425 CURVE SMOOTH",
"284 425 OFFCURVE",
"306 419 OFFCURVE",
"310 407 CURVE SMOOTH",
"315 392 OFFCURVE",
"302 389 OFFCURVE",
"302 365 CURVE SMOOTH",
"302 340 OFFCURVE",
"321 316 OFFCURVE",
"346 316 CURVE SMOOTH",
"373 316 OFFCURVE",
"395 334 OFFCURVE",
"395 365 CURVE SMOOTH",
"395 418 OFFCURVE",
"319 450 OFFCURVE",
"256 450 CURVE SMOOTH",
"132 450 OFFCURVE",
"36 349 OFFCURVE",
"36 220 CURVE SMOOTH"
);
}
);
width = 425;
},
{
associatedMasterId = "9372F035-DA38-4B54-966C-CEBA9B53DD02";
background = {
paths = (
{
closed = 0;
nodes = (
"324 429 LINE SMOOTH",
"382 429 OFFCURVE",
"397 394 OFFCURVE",
"397 369 CURVE SMOOTH",
"397 338 OFFCURVE",
"377 316 OFFCURVE",
"350 316 CURVE SMOOTH",
"318 316 OFFCURVE",
"301 343 OFFCURVE",
"301 360 CURVE SMOOTH",
"301 376 OFFCURVE",
"306 384 OFFCURVE",
"304 391 CURVE SMOOTH",
"302 399 OFFCURVE",
"289 398 OFFCURVE",
"283 397 CURVE SMOOTH"
);
}
);
};
backgroundImage = {
crop = "{{1215.805, 1401.216}, {227.964, 376.14}}";
imagePath = "../../../../alexisfaudot/Desktop/ANRT-Baskerwille/1878 Limprimerie Berger Levrault Notice historique/Romain/JACOB-notice-187516.jpg";
locked = "1";
transform = "{2.632, 0, 0, 2.632, -3300, -3968}";
};
layerId = "2DEB8ACD-82B8-4582-940C-CE874F0AA4A4";
name = "Oct 16 17, 09:14";
paths = (
{
closed = 1;
nodes = (
"26 82 OFFCURVE",
"108 -10 OFFCURVE",
"236 -10 CURVE SMOOTH",
"326 -10 OFFCURVE",
"401 44 OFFCURVE",
"401 118 CURVE",
"376 123 LINE",
"376 50 OFFCURVE",
"316 15 OFFCURVE",
"236 15 CURVE SMOOTH",
"143 15 OFFCURVE",
"106 104 OFFCURVE",
"106 220 CURVE SMOOTH",
"106 337 OFFCURVE",
"148 425 OFFCURVE",
"256 425 CURVE SMOOTH",
"284 425 OFFCURVE",
"306 419 OFFCURVE",
"310 407 CURVE SMOOTH",
"315 392 OFFCURVE",
"302 389 OFFCURVE",
"302 365 CURVE SMOOTH",
"302 340 OFFCURVE",
"321 316 OFFCURVE",
"346 316 CURVE SMOOTH",
"373 316 OFFCURVE",
"395 334 OFFCURVE",
"395 365 CURVE SMOOTH",
"395 418 OFFCURVE",
"319 450 OFFCURVE",
"256 450 CURVE SMOOTH",
"126 450 OFFCURVE",
"26 349 OFFCURVE",
"26 220 CURVE SMOOTH"
);
}
);
width = 425;
},
{
layerId = "E6B8952F-D64A-490A-9CF5-6DF985D88222";
width = 600;
}
);
leftMetricsKey = O;
unicode = 0063;
},
{
glyphname = d;
lastChange = "2017-10-17 11:46:15 +0000";
layers = (
{
backgroundImage = {
crop = "{{1402.736, 1777.356}, {227.964, 376.14}}";
imagePath = "../../../../Desktop/ANRT-Baskerwille/1878 Limprimerie Berger Levrault Notice historique/Romain/IMG_3190.JPG";
locked = "1";
transform = "{2.632, 0, 0, 2.632, -3701, -4958}";
};
components = (
{
name = "_part-bdc";
transform = "{1, 0, 0, 1, 244, 269}";
}
);
layerId = "9372F035-DA38-4B54-966C-CEBA9B53DD02";
paths = (
{
closed = 1;
nodes = (
"432 634 LINE",
"432 70 LINE",
"362 70 LINE",
"362 634 LINE"
);
},
{
closed = 1;
nodes = (
"20 351 OFFCURVE",
"108 454 OFFCURVE",
"230 454 CURVE SMOOTH",
"347 454 OFFCURVE",
"420 351 OFFCURVE",
"420 220 CURVE",
"400 220 LINE",
"400 329 OFFCURVE",
"337 429 OFFCURVE",
"230 429 CURVE SMOOTH",
"144 429 OFFCURVE",
"100 339 OFFCURVE",
"100 220 CURVE",
"20 220 LINE"
);
},
{
closed = 1;
nodes = (
"100 220 LINE",
"100 101 OFFCURVE",
"144 11 OFFCURVE",
"230 11 CURVE SMOOTH",
"337 11 OFFCURVE",
"400 111 OFFCURVE",
"400 220 CURVE",
"420 220 LINE",
"420 89 OFFCURVE",
"347 -14 OFFCURVE",
"230 -14 CURVE SMOOTH",
"108 -14 OFFCURVE",
"20 89 OFFCURVE",
"20 220 CURVE"
);
},
{
closed = 1;
nodes = (
"432 112 LINE",
"432 50 OFFCURVE",
"456 44 OFFCURVE",
"520 44 CURVE",
"520 21 LINE",
"465 21 OFFCURVE",
"417 10 OFFCURVE",
"362 -4 CURVE",
"362 97 LINE"
);
}
);
width = 545;
},
{
layerId = "E6B8952F-D64A-490A-9CF5-6DF985D88222";
width = 600;
}
);
leftMetricsKey = o;
unicode = 0064;
},
{
glyphname = e;
lastChange = "2017-10-18 12:13:25 +0000";
layers = (
{
background = {
paths = (
{
closed = 1;
nodes = (
"363 248 LINE",
"442 248 LINE"
);
},
{
closed = 1;
nodes = (
"442 248 LINE",
"442 363 OFFCURVE",
"343 450 OFFCURVE",
"234 450 CURVE SMOOTH",
"116 450 OFFCURVE",
"24 349 OFFCURVE",
"24 220 CURVE SMOOTH",
"24 92 OFFCURVE",
"116 -10 OFFCURVE",
"234 -10 CURVE SMOOTH",
"332 -10 OFFCURVE",
"415 63 OFFCURVE",
"437 163 CURVE",
"401 163 LINE",
"387 76 OFFCURVE",
"335 15 OFFCURVE",
"234 15 CURVE SMOOTH",
"141 15 OFFCURVE",
"104 104 OFFCURVE",
"104 220 CURVE SMOOTH",
"104 337 OFFCURVE",
"140 425 OFFCURVE",
"234 425 CURVE SMOOTH",
"320 425 OFFCURVE",
"363 351 OFFCURVE",
"363 248 CURVE"
);
}
);
};
backgroundImage = {
crop = "{{1705.927, 839.286}, {189.97, 376.14}}";
imagePath = "../../../../Desktop/ANRT-Baskerwille/1878 Limprimerie Berger Levrault Notice historique/Romain/JACOB-notice-187519.jpg";
locked = "1";
transform = "{2.632, 0, 0, 2.632, -4486, -2489}";
};
guideLines = (
{
angle = 90;
position = "{244, 425}";
}
);
layerId = "9372F035-DA38-4B54-966C-CEBA9B53DD02";
paths = (
{
closed = 1;
nodes = (
"250 429 LINE",
"297 429 OFFCURVE",
"346 400 OFFCURVE",
"346 343 CURVE SMOOTH",
"346 305 OFFCURVE",
"329 268 OFFCURVE",
"231 268 CURVE SMOOTH",
"88 268 LINE",
"88 248 LINE",
"412 248 LINE",
"417 373 OFFCURVE",
"357 454 OFFCURVE",
"250 454 CURVE"
);
},
{
closed = 1;
nodes = (
"250 454 LINE",
"121 454 OFFCURVE",
"20 351 OFFCURVE",
"20 220 CURVE SMOOTH",
"20 80 OFFCURVE",
"106 -14 OFFCURVE",
"240 -14 CURVE SMOOTH",
"330 -14 OFFCURVE",
"395 42 OFFCURVE",
"405 118 CURVE",
"380 123 LINE",
"370 52 OFFCURVE",
"320 19 OFFCURVE",
"240 19 CURVE SMOOTH",
"140 19 OFFCURVE",
"100 107 OFFCURVE",
"100 220 CURVE SMOOTH",
"100 339 OFFCURVE",
"142 429 OFFCURVE",
"250 429 CURVE"
);
}
);
width = 432;
},
{
associatedMasterId = "9372F035-DA38-4B54-966C-CEBA9B53DD02";
backgroundImage = {
crop = "{{1674.772, 839.286}, {227.964, 376.14}}";
imagePath = "../../../../alexisfaudot/Desktop/ANRT-Baskerwille/1878 Limprimerie Berger Levrault Notice historique/Romain/JACOB-notice-187519.jpg";
locked = "1";
transform = "{2.632, 0, 0, 2.632, -4408, -2489}";
};
layerId = "F0F75787-A321-4835-A93A-BC1638C5FE3A";
name = "Oct 13 17, 11:51";
width = 600;
},
{
associatedMasterId = "9372F035-DA38-4B54-966C-CEBA9B53DD02";
background = {
paths = (
{
closed = 1;
nodes = (
"359 248 LINE",
"438 248 LINE"
);
},
{
closed = 1;
nodes = (
"438 248 LINE",
"438 363 OFFCURVE",
"339 450 OFFCURVE",
"230 450 CURVE SMOOTH",
"112 450 OFFCURVE",
"20 349 OFFCURVE",
"20 220 CURVE SMOOTH",
"20 92 OFFCURVE",
"112 -10 OFFCURVE",
"230 -10 CURVE SMOOTH",
"328 -10 OFFCURVE",
"411 63 OFFCURVE",
"433 163 CURVE",
"397 163 LINE",
"383 76 OFFCURVE",
"331 15 OFFCURVE",
"230 15 CURVE SMOOTH",
"137 15 OFFCURVE",
"100 104 OFFCURVE",
"100 220 CURVE SMOOTH",
"100 337 OFFCURVE",
"136 425 OFFCURVE",
"230 425 CURVE SMOOTH",
"316 425 OFFCURVE",
"359 351 OFFCURVE",
"359 248 CURVE"
);
}
);
};
backgroundImage = {
crop = "{{1705.927, 839.286}, {189.97, 376.14}}";
imagePath = "../../../../alexisfaudot/Desktop/ANRT-Baskerwille/1878 Limprimerie Berger Levrault Notice historique/Romain/JACOB-notice-187519.jpg";
locked = "1";
transform = "{2.632, 0, 0, 2.632, -4490, -2489}";
};
guideLines = (
{
angle = 90;
position = "{240, 425}";
}
);
layerId = "DA30BAEC-FD5A-4992-B4B1-1450C9C34AD5";
name = "Oct 13 17, 14:08";
paths = (
{
closed = 1;
nodes = (
"408 248 LINE",
"408 371 OFFCURVE",
"356 450 OFFCURVE",
"240 450 CURVE SMOOTH",
"116 450 OFFCURVE",
"20 349 OFFCURVE",
"20 220 CURVE SMOOTH",
"20 92 OFFCURVE",
"116 -10 OFFCURVE",
"240 -10 CURVE SMOOTH",
"320 -10 OFFCURVE",
"405 53 OFFCURVE",
"405 133 CURVE",
"380 133 LINE",
"380 63 OFFCURVE",
"310 15 OFFCURVE",
"240 15 CURVE SMOOTH",
"140 15 OFFCURVE",
"100 104 OFFCURVE",
"100 220 CURVE SMOOTH",
"100 337 OFFCURVE",
"139 425 OFFCURVE",
"240 425 CURVE SMOOTH",
"299 425 OFFCURVE",
"346 401 OFFCURVE",
"346 336 CURVE SMOOTH",
"346 267 OFFCURVE",
"297 273 OFFCURVE",
"258 273 CURVE",
"258 248 LINE"
);
},
{
closed = 1;
nodes = (
"86 248 LINE",
"259 248 LINE",
"259 273 LINE",
"86 273 LINE"
);
}
);
width = 428;
},
{
associatedMasterId = "9372F035-DA38-4B54-966C-CEBA9B53DD02";
background = {
paths = (
{
closed = 1;
nodes = (
"359 248 LINE",
"438 248 LINE"
);
},
{
closed = 1;
nodes = (
"438 248 LINE",
"438 363 OFFCURVE",
"339 450 OFFCURVE",
"230 450 CURVE SMOOTH",
"112 450 OFFCURVE",
"20 349 OFFCURVE",
"20 220 CURVE SMOOTH",
"20 92 OFFCURVE",
"112 -10 OFFCURVE",
"230 -10 CURVE SMOOTH",
"328 -10 OFFCURVE",
"411 63 OFFCURVE",
"433 163 CURVE",
"397 163 LINE",
"383 76 OFFCURVE",
"331 15 OFFCURVE",
"230 15 CURVE SMOOTH",
"137 15 OFFCURVE",
"100 104 OFFCURVE",
"100 220 CURVE SMOOTH",
"100 337 OFFCURVE",
"136 425 OFFCURVE",
"230 425 CURVE SMOOTH",
"316 425 OFFCURVE",
"359 351 OFFCURVE",
"359 248 CURVE"
);
}
);
};
backgroundImage = {
crop = "{{1705.927, 839.286}, {189.97, 376.14}}";
imagePath = "../../../../alexisfaudot/Desktop/ANRT-Baskerwille/1878 Limprimerie Berger Levrault Notice historique/Romain/JACOB-notice-187519.jpg";
locked = "1";
transform = "{2.632, 0, 0, 2.632, -4490, -2489}";
};
guideLines = (
{
angle = 90;
position = "{240, 425}";
}
);
layerId = "8C3E5E0D-6E2E-416D-8D51-9DAB277665D3";
name = "Oct 13 17, 17:15";
paths = (
{
closed = 1;
nodes = (
"20 92 OFFCURVE",
"116 -10 OFFCURVE",
"240 -10 CURVE SMOOTH",
"320 -10 OFFCURVE",
"405 53 OFFCURVE",
"405 133 CURVE",
"380 133 LINE",
"380 63 OFFCURVE",
"310 15 OFFCURVE",
"240 15 CURVE SMOOTH",
"140 15 OFFCURVE",
"100 104 OFFCURVE",
"100 220 CURVE SMOOTH",
"100 337 OFFCURVE",
"139 425 OFFCURVE",
"240 425 CURVE SMOOTH",
"290 425 OFFCURVE",
"342 397 OFFCURVE",
"342 343 CURVE SMOOTH",
"342 305 OFFCURVE",
"325 268 OFFCURVE",
"227 268 CURVE SMOOTH",
"84 268 LINE",
"84 248 LINE",
"408 248 LINE",
"408 371 OFFCURVE",
"356 450 OFFCURVE",
"240 450 CURVE SMOOTH",
"116 450 OFFCURVE",
"20 349 OFFCURVE",
"20 220 CURVE SMOOTH"
);
}
);
width = 428;
},
{
associatedMasterId = "9372F035-DA38-4B54-966C-CEBA9B53DD02";
background = {
paths = (
{
closed = 1;
nodes = (
"359 248 LINE",
"438 248 LINE"
);
},
{
closed = 1;
nodes = (
"438 248 LINE",
"438 363 OFFCURVE",
"339 450 OFFCURVE",
"230 450 CURVE SMOOTH",
"112 450 OFFCURVE",
"20 349 OFFCURVE",
"20 220 CURVE SMOOTH",
"20 92 OFFCURVE",
"112 -10 OFFCURVE",
"230 -10 CURVE SMOOTH",
"328 -10 OFFCURVE",
"411 63 OFFCURVE",
"433 163 CURVE",
"397 163 LINE",
"383 76 OFFCURVE",
"331 15 OFFCURVE",
"230 15 CURVE SMOOTH",
"137 15 OFFCURVE",
"100 104 OFFCURVE",
"100 220 CURVE SMOOTH",
"100 337 OFFCURVE",
"136 425 OFFCURVE",
"230 425 CURVE SMOOTH",
"316 425 OFFCURVE",
"359 351 OFFCURVE",
"359 248 CURVE"
);
}
);
};
backgroundImage = {
crop = "{{1705.927, 839.286}, {189.97, 376.14}}";
imagePath = "../../../../alexisfaudot/Desktop/ANRT-Baskerwille/1878 Limprimerie Berger Levrault Notice historique/Romain/JACOB-notice-187519.jpg";
locked = "1";
transform = "{2.632, 0, 0, 2.632, -4490, -2489}";
};
guideLines = (
{
angle = 90;
position = "{240, 425}";
}
);
layerId = "67628836-69DC-4410-AD37-566BC9C1CAAE";
name = "Oct 13 17, 17:49";
paths = (
{
closed = 1;
nodes = (
"246 425 LINE",
"293 425 OFFCURVE",
"342 397 OFFCURVE",
"342 343 CURVE SMOOTH",
"342 305 OFFCURVE",
"325 268 OFFCURVE",
"227 268 CURVE SMOOTH",
"84 268 LINE",
"84 248 LINE",
"408 248 LINE",
"408 371 OFFCURVE",
"353 450 OFFCURVE",
"246 450 CURVE"
);
},
{
closed = 1;
nodes = (
"246 450 LINE",
"116 450 OFFCURVE",
"16 349 OFFCURVE",
"16 220 CURVE SMOOTH",
"16 82 OFFCURVE",
"98 -10 OFFCURVE",
"226 -10 CURVE SMOOTH",
"316 -10 OFFCURVE",
"391 44 OFFCURVE",
"401 118 CURVE",
"376 123 LINE",
"366 50 OFFCURVE",
"306 15 OFFCURVE",
"226 15 CURVE SMOOTH",
"133 15 OFFCURVE",
"96 114 OFFCURVE",
"96 220 CURVE SMOOTH",
"96 337 OFFCURVE",
"138 425 OFFCURVE",
"246 425 CURVE"
);
}
);
width = 428;
},
{
layerId = "E6B8952F-D64A-490A-9CF5-6DF985D88222";
width = 600;
}
);
leftMetricsKey = o;
rightMetricsKey = o;
unicode = 0065;
},
{
glyphname = f;
lastChange = "2017-10-17 11:46:11 +0000";
layers = (
{
backgroundImage = {
crop = "{{1566.027, 1447.155}, {225.706, 372.416}}";
imagePath = "../../../../alexisfaudot/Desktop/ANRT-Baskerwille/1878 Limprimerie Berger Levrault Notice historique/Romain/JACOB-notice-187509.jpg";
locked = "1";
transform = "{2.712, 0, 0, 2.712, -4285, -4214}";
};
hints = (
{
origin = "{0, 1}";
type = Corner;
name = "_corner-bdc";
},
{
origin = "{0, 2}";
scale = "{-1, 1}";
type = Corner;
name = "_corner-bdc";
options = 1;
}
);
layerId = "9372F035-DA38-4B54-966C-CEBA9B53DD02";
paths = (
{
closed = 1;
nodes = (
"196 550 LINE",
"196 0 LINE",
"126 0 LINE",
"126 550 LINE"
);
},
{
closed = 1;
nodes = (
"196 550 LINE",
"196 630 OFFCURVE",
"210 699 OFFCURVE",
"286 699 CURVE SMOOTH",
"303 699 OFFCURVE",
"321 692 OFFCURVE",
"321 675 CURVE SMOOTH",
"321 664 OFFCURVE",
"312 656 OFFCURVE",
"312 636 CURVE SMOOTH",
"312 611 OFFCURVE",
"331 590 OFFCURVE",
"356 590 CURVE SMOOTH",
"383 590 OFFCURVE",
"405 608 OFFCURVE",
"405 639 CURVE SMOOTH",
"405 702 OFFCURVE",
"349 724 OFFCURVE",
"286 724 CURVE SMOOTH",
"176 724 OFFCURVE",
"126 661 OFFCURVE",
"126 550 CURVE"
);
},
{
closed = 1;
nodes = (
"299 436 LINE",
"299 416 LINE",
"30 416 LINE",
"30 436 LINE"
);
}
);
width = 415;
},
{
layerId = "E6B8952F-D64A-490A-9CF5-6DF985D88222";
width = 600;
}
);
unicode = 0066;
},
{
glyphname = g;
lastChange = "2017-10-17 11:46:11 +0000";
layers = (
{
backgroundImage = {
crop = "{{1035.24, 777.183}, {225.706, 372.416}}";
imagePath = "../../../../alexisfaudot/Desktop/ANRT-Baskerwille/1878 Limprimerie Berger Levrault Notice historique/Romain/JACOB-notice-187501.jpg";
locked = "1";
transform = "{2.658, 0, 0, 2.658, -2752, -2346}";
};
guideLines = (
{
angle = 90;
position = "{270, 323}";
}
);
layerId = "9372F035-DA38-4B54-966C-CEBA9B53DD02";
paths = (
{
closed = 1;
nodes = (
"371 142 OFFCURVE",
"450 211 OFFCURVE",
"450 298 CURVE SMOOTH",
"450 386 OFFCURVE",
"371 454 OFFCURVE",
"270 454 CURVE SMOOTH",
"169 454 OFFCURVE",
"90 386 OFFCURVE",
"90 298 CURVE SMOOTH",
"90 211 OFFCURVE",
"169 142 OFFCURVE",
"270 142 CURVE SMOOTH"
);
},
{
closed = 1;
nodes = (
"198 167 OFFCURVE",
"170 224 OFFCURVE",
"170 298 CURVE SMOOTH",
"170 372 OFFCURVE",
"198 429 OFFCURVE",
"270 429 CURVE SMOOTH",
"342 429 OFFCURVE",
"370 372 OFFCURVE",
"370 298 CURVE SMOOTH",
"370 224 OFFCURVE",
"342 167 OFFCURVE",
"270 167 CURVE SMOOTH"
);
},
{
closed = 1;
nodes = (
"227 38 OFFCURVE",
"130 46 OFFCURVE",
"130 86 CURVE SMOOTH",
"130 126 OFFCURVE",
"200 146 OFFCURVE",
"240 146 CURVE",
"217 160 LINE",
"152 160 OFFCURVE",
"70 121 OFFCURVE",
"70 56 CURVE SMOOTH",
"70 -14 OFFCURVE",
"198 -32 OFFCURVE",
"271 -32 CURVE SMOOTH",
"361 -32 OFFCURVE",
"460 -40 OFFCURVE",
"460 -130 CURVE SMOOTH",
"460 -238 OFFCURVE",
"328 -270 OFFCURVE",
"270 -270 CURVE SMOOTH",
"190 -270 OFFCURVE",
"103 -236 OFFCURVE",
"103 -156 CURVE SMOOTH",
"103 -136 OFFCURVE",
"115 -127 OFFCURVE",
"115 -107 CURVE SMOOTH",
"115 -82 OFFCURVE",
"98 -61 OFFCURVE",
"73 -61 CURVE SMOOTH",
"46 -61 OFFCURVE",
"28 -99 OFFCURVE",
"28 -130 CURVE SMOOTH",
"28 -240 OFFCURVE",
"160 -295 OFFCURVE",
"270 -295 CURVE SMOOTH",
"390 -295 OFFCURVE",
"506 -223 OFFCURVE",
"506 -103 CURVE SMOOTH",
"506 22 OFFCURVE",
"395 38 OFFCURVE",
"270 38 CURVE SMOOTH"
);
},
{
closed = 1;
nodes = (
"383 413 OFFCURVE",
"400 429 OFFCURVE",
"425 429 CURVE SMOOTH",
"445 429 OFFCURVE",
"458 411 OFFCURVE",
"458 398 CURVE SMOOTH",
"458 382 OFFCURVE",
"471 363 OFFCURVE",
"496 363 CURVE SMOOTH",
"516 363 OFFCURVE",
"532 371 OFFCURVE",
"532 391 CURVE SMOOTH",
"532 431 OFFCURVE",
"482 454 OFFCURVE",
"442 454 CURVE SMOOTH",
"411 454 OFFCURVE",
"360 442 OFFCURVE",
"360 412 CURVE",
"383 378 LINE"
);
}
);
width = 600;
},
{
layerId = "E6B8952F-D64A-490A-9CF5-6DF985D88222";
width = 600;
}
);
unicode = 0067;
},
{
glyphname = h;
lastChange = "2017-10-17 11:46:15 +0000";
layers = (
{
background = {
hints = (
{
origin = "{0, 6}";
type = Corner;
name = "_corner-bd";
},
{
origin = "{0, 7}";
type = Corner;
name = "_corner-bg";
},
{
origin = "{1, 13}";
type = Corner;
name = "_corner-bd";
},
{
origin = "{1, 14}";
type = Corner;
name = "_corner-bg";
}
);
paths = (
{
closed = 1;
nodes = (
"85 700 OFFCURVE",
"153 710 OFFCURVE",
"164 710 CURVE SMOOTH",
"176 710 OFFCURVE",
"178 698 OFFCURVE",
"178 691 CURVE",
"178 0 LINE",
"108 0 LINE",
"108 602 LINE",
"108 674 OFFCURVE",
"80 680 OFFCURVE",
"36 680 CURVE",
"36 700 LINE"
);
},
{
closed = 1;
nodes = (
"405 370 OFFCURVE",
"394 427 OFFCURVE",
"323 426 CURVE SMOOTH",
"204 424 OFFCURVE",
"164 301 OFFCURVE",
"162 258 CURVE",
"152 301 LINE",
"153 314 OFFCURVE",
"194 450 OFFCURVE",
"333 450 CURVE SMOOTH",
"435 450 OFFCURVE",
"475 402 OFFCURVE",
"475 331 CURVE SMOOTH",
"475 0 LINE",
"405 0 LINE",
"405 331 LINE SMOOTH"
);
}
);
};
backgroundImage = {
crop = "{{1463.998, 887.618}, {221.259, 365.078}}";
imagePath = "../../../../Desktop/ANRT-Baskerwille/1878 Limprimerie Berger Levrault Notice historique/Romain/JACOB-notice-187513.jpg";
locked = "1";
transform = "{2.712, 0, 0, 2.712, -3970, -2687}";
};
components = (
{
name = "_part-bdc-n";
},
{
name = "_part-bdc";
transform = "{1, 0, 0, 1, -10, 270}";
}
);
hints = (
{
origin = "{0, 2}";
scale = "{-1, 1}";
type = Corner;
name = "_corner-bdc";
options = 1;
},
{
origin = "{0, 1}";
type = Corner;
name = "_corner-bdc";
}
);
layerId = "9372F035-DA38-4B54-966C-CEBA9B53DD02";
paths = (
{
closed = 1;
nodes = (
"178 620 LINE",
"178 0 LINE",
"108 0 LINE",
"108 620 LINE"
);
}
);
width = 583;
},
{
layerId = "E6B8952F-D64A-490A-9CF5-6DF985D88222";
width = 600;
}
);
unicode = 0068;
},
{
glyphname = i;
lastChange = "2017-10-18 12:23:20 +0000";
layers = (
{
backgroundImage = {
crop = "{{1767.123, 1057.619}, {112.842, 365.078}}";
imagePath = "../../../../Desktop/ANRT-Baskerwille/1878 Limprimerie Berger Levrault Notice historique/Romain/JACOB-notice-187510.jpg";
locked = "1";
transform = "{2.712, 0, 0, 2.712, -4777, -3148}";
};
components = (
{
name = "_part-bdc";
transform = "{1, 0, 0, 1, 15, 0}";
}
);
hints = (
{
origin = "{0, 2}";
scale = "{-1, 1}";
type = Corner;
name = "_corner-bdc";
options = 1;
},
{
origin = "{0, 1}";
type = Corner;
name = "_corner-bdc";
}
);
layerId = "9372F035-DA38-4B54-966C-CEBA9B53DD02";
paths = (
{
closed = 1;
nodes = (
"203 365 LINE",
"203 0 LINE",
"133 0 LINE",
"133 365 LINE"
);
},
{
closed = 1;
nodes = (
"191 578 OFFCURVE",
"217 604 OFFCURVE",
"217 637 CURVE SMOOTH",
"217 670 OFFCURVE",
"191 696 OFFCURVE",
"158 696 CURVE SMOOTH",
"125 696 OFFCURVE",
"99 670 OFFCURVE",
"99 637 CURVE SMOOTH",
"99 604 OFFCURVE",
"125 578 OFFCURVE",
"158 578 CURVE SMOOTH"
);
}
);
width = 331;
},
{
layerId = "E6B8952F-D64A-490A-9CF5-6DF985D88222";
width = 600;
}
);
unicode = 0069;
},
{
glyphname = idieresis;
lastChange = "2017-10-18 12:43:43 +0000";
layers = (
{
components = (
{
name = "_part-bdc";
transform = "{1, 0, 0, 1, 32, 0}";
},
{
name = dieresis;
transform = "{1, 0, 0, 1, -119, 1}";
}
);
guideLines = (
{
position = "{457, 583}";
}
);
hints = (
{
origin = "{0, 2}";
scale = "{-1, 1}";
type = Corner;
name = "_corner-bdc";
options = 1;
},
{
origin = "{0, 1}";
type = Corner;
name = "_corner-bdc";
}
);
layerId = "9372F035-DA38-4B54-966C-CEBA9B53DD02";
paths = (
{
closed = 1;
nodes = (
"220 365 LINE",
"220 0 LINE",
"150 0 LINE",
"150 365 LINE"
);
}
);
width = 348;
},
{
layerId = "E6B8952F-D64A-490A-9CF5-6DF985D88222";
width = 600;
}
);
unicode = 00EF;
},
{
glyphname = j;
lastChange = "2017-10-17 11:46:15 +0000";
layers = (
{
backgroundImage = {
crop = "{{1301.901, 1362.824}, {221.537, 365.537}}";
imagePath = "../../ANRT-Baskerwille/1878 Limprimerie Berger Levrault Notice historique/Romain/JACOB-notice-187520.jpg";
locked = "1";
transform = "{2.748, 0.048, -0.048, 2.748, -3730, -4102}";
};
components = (
{
name = _part;
transform = "{1, 0, 0, 1, -15, 6}";
}
);
layerId = "9372F035-DA38-4B54-966C-CEBA9B53DD02";
paths = (
{
closed = 1;
nodes = (
"173 365 LINE",
"173 -147 LINE SMOOTH",
"173 -234 OFFCURVE",
"106 -294 OFFCURVE",
"8 -294 CURVE SMOOTH",
"-40 -294 OFFCURVE",
"-70 -273 OFFCURVE",
"-70 -227 CURVE SMOOTH",
"-70 -192 OFFCURVE",
"-49 -167 OFFCURVE",
"-15 -167 CURVE SMOOTH",
"15 -167 OFFCURVE",
"33 -194 OFFCURVE",
"33 -217 CURVE SMOOTH",
"33 -245 OFFCURVE",
"19 -273 OFFCURVE",
"35 -273 CURVE SMOOTH",
"86 -273 OFFCURVE",
"103 -205 OFFCURVE",
"103 -152 CURVE SMOOTH",
"103 365 LINE"
);
},
{
closed = 1;
nodes = (
"165 577 OFFCURVE",
"191 603 OFFCURVE",
"191 637 CURVE SMOOTH",
"191 671 OFFCURVE",
"165 697 OFFCURVE",
"131 697 CURVE SMOOTH",
"99 697 OFFCURVE",
"71 671 OFFCURVE",
"71 637 CURVE SMOOTH",
"71 603 OFFCURVE",
"97 577 OFFCURVE",
"131 577 CURVE SMOOTH"
);
}
);
width = 251;
},
{
layerId = "E6B8952F-D64A-490A-9CF5-6DF985D88222";
width = 600;
}
);
unicode = 006A;
},
{
glyphname = k;
lastChange = "2017-10-17 11:46:15 +0000";
layers = (
{
backgroundImage = {
crop = "{{1067.831, 1156.441}, {193.331, 318.996}}";
imagePath = "../../ANRT-Baskerwille/1878 Limprimerie Berger Levrault Notice historique/Romain/JACOB-notice-187536.jpg";
locked = "1";
transform = "{3.103, 0, 0, 3.103, -3314, -3869}";
};
components = (
{
name = "_part-bdc";
transform = "{1, 0, 0, 1, 43, 270}";
}
);
hints = (
{
origin = "{0, 1}";
type = Corner;
name = "_corner-bdc";
},
{
origin = "{0, 2}";
scale = "{-1, 1}";
type = Corner;
name = "_corner-bdc";
options = 1;
}
);
layerId = "9372F035-DA38-4B54-966C-CEBA9B53DD02";
paths = (
{
closed = 1;
nodes = (
"231 644 LINE",
"231 0 LINE",
"161 0 LINE",
"161 644 LINE"
);
},
{
closed = 1;
nodes = (
"210 111 LINE",
"183 111 LINE",
"389 416 LINE",
"420 416 LINE"
);
},
{
closed = 1;
nodes = (
"360 378 OFFCURVE",
"389 407 OFFCURVE",
"338 413 CURVE SMOOTH",
"322 415 LINE",
"322 438 LINE",
"418 436 LINE",
"502 438 LINE",
"502 415 LINE",
"486 413 LINE SMOOTH",
"422 405 OFFCURVE",
"396 384 OFFCURVE",
"365 335 CURVE",
"335 335 LINE"
);
},
{
closed = 1;
nodes = (
"481 76 LINE SMOOTH",
"506 48 OFFCURVE",
"529 23 OFFCURVE",
"550 20 CURVE",
"550 -1 LINE",
"436 0 LINE",
"264 200 LINE",
"308 270 LINE"
);
}
);
width = 600;
},
{
layerId = "E6B8952F-D64A-490A-9CF5-6DF985D88222";
width = 600;
}
);
unicode = 006B;
},
{
glyphname = l;
lastChange = "2017-10-17 11:46:15 +0000";
layers = (
{
components = (
{
name = "_part-bdc";
transform = "{1, 0, 0, 1, -10, 270}";
}
);
hints = (
{
origin = "{0, 2}";
scale = "{-1, 1}";
type = Corner;
name = "_corner-bdc";
options = 1;
},
{
origin = "{0, 1}";
type = Corner;
name = "_corner-bdc";
}
);
layerId = "9372F035-DA38-4B54-966C-CEBA9B53DD02";
paths = (
{
closed = 1;
nodes = (
"178 644 LINE",
"178 0 LINE",
"108 0 LINE",
"108 644 LINE"
);
}
);
width = 286;
},
{
layerId = "E6B8952F-D64A-490A-9CF5-6DF985D88222";
width = 600;
}
);
leftMetricsKey = h;
unicode = 006C;
},
{
glyphname = n;
lastChange = "2017-10-17 11:46:15 +0000";
layers = (
{
backgroundImage = {
crop = "{{1242.208, 781.652}, {227.998, 376.196}}";
imagePath = "../../../../Desktop/ANRT-Baskerwille/1878 Limprimerie Berger Levrault Notice historique/Romain/JACOB-notice-187501.jpg";
locked = "1";
transform = "{2.632, 0, 0, 2.632, -3239, -2337}";
};
components = (
{
name = "_part-jambage";
}
);
guideLines = (
{
angle = 90;
position = "{50, 17}";
}
);
layerId = "9372F035-DA38-4B54-966C-CEBA9B53DD02";
width = 593;
},
{
associatedMasterId = "9372F035-DA38-4B54-966C-CEBA9B53DD02";
backgroundImage = {
crop = "{{1242.208, 781.652}, {227.998, 376.196}}";
imagePath = "../../../../Desktop/ANRT-Baskerwille/1878 Limprimerie Berger Levrault Notice historique/Romain/JACOB-notice-187501.jpg";
locked = "1";
transform = "{2.632, 0, 0, 2.632, -3239, -2337}";
};
components = (
{
name = "_part-bdc";
transform = "{1, 0, 0, 1, 0, 6}";
}
);
guideLines = (
{
angle = 90;
position = "{50, 17}";
}
);
hints = (
{
origin = "{0, 2}";
type = Corner;
name = "_corner-bdc-bg";
},
{
origin = "{0, 1}";
type = Corner;
name = "_corner-bdc-bd";
},
{
origin = "{1, 14}";
type = Corner;
name = "_corner-bdc-bg";
},
{
origin = "{1, 13}";
type = Corner;
name = "_corner-bdc-bd";
}
);
layerId = "CDE66193-031C-45BF-BA38-BBC22F34EC96";
name = "Oct 16 17, 13:56";
paths = (
{
closed = 1;
nodes = (
"188 355 LINE",
"188 0 LINE",
"118 0 LINE",
"118 355 LINE"
);
},
{
closed = 1;
nodes = (
"415 388 OFFCURVE",
"391 425 OFFCURVE",
"333 424 CURVE SMOOTH",
"214 422 OFFCURVE",
"174 300 OFFCURVE",
"172 257 CURVE",
"162 306 LINE",
"163 319 OFFCURVE",
"203 454 OFFCURVE",
"343 454 CURVE SMOOTH",
"445 454 OFFCURVE",
"485 406 OFFCURVE",
"485 335 CURVE SMOOTH",
"485 0 LINE",
"415 0 LINE",
"415 330 LINE SMOOTH"
);
}
);
width = 583;
},
{
layerId = "E6B8952F-D64A-490A-9CF5-6DF985D88222";
width = 600;
}
);
unicode = 006E;
},
{
glyphname = o;
lastChange = "2017-10-17 11:46:11 +0000";
layers = (
{
backgroundImage = {
crop = "{{1741.261, 1317.249}, {227.964, 376.14}}";
imagePath = "../../../../Desktop/ANRT-Baskerwille/1878 Limprimerie Berger Levrault Notice historique/Romain/JACOB-notice-187519.jpg";
locked = "1";
transform = "{2.632, 0, 0, 2.632, -4623, -3747}";
};
guideLines = (
{
position = "{250, 221}";
},
{
angle = 90;
position = "{250, 221}";
}
);
layerId = "9372F035-DA38-4B54-966C-CEBA9B53DD02";
paths = (
{
closed = 1;
nodes = (
"379 -14 OFFCURVE",
"480 90 OFFCURVE",
"480 220 CURVE SMOOTH",
"480 351 OFFCURVE",
"379 454 OFFCURVE",
"250 454 CURVE SMOOTH",
"121 454 OFFCURVE",
"20 351 OFFCURVE",
"20 220 CURVE SMOOTH",
"20 90 OFFCURVE",
"121 -14 OFFCURVE",
"250 -14 CURVE SMOOTH"
);
},
{
closed = 1;
nodes = (
"142 11 OFFCURVE",
"100 102 OFFCURVE",
"100 220 CURVE SMOOTH",
"100 339 OFFCURVE",
"142 429 OFFCURVE",
"250 429 CURVE SMOOTH",
"358 429 OFFCURVE",
"400 339 OFFCURVE",
"400 220 CURVE SMOOTH",
"400 102 OFFCURVE",
"358 11 OFFCURVE",
"250 11 CURVE SMOOTH"
);
}
);
width = 500;
},
{
layerId = "E6B8952F-D64A-490A-9CF5-6DF985D88222";
width = 600;
}
);
unicode = 006F;
},
{
glyphname = p;
lastChange = "2017-10-17 11:46:15 +0000";
layers = (
{
backgroundImage = {
crop = "{{1289.894, 575.608}, {227.964, 376.14}}";
imagePath = "../../../../Desktop/ANRT-Baskerwille/1878 Limprimerie Berger Levrault Notice historique/Romain/JACOB-notice-187510.jpg";
locked = "1";
transform = "{2.632, 0, 0, 2.632, -3437, -1795}";
};
components = (
{
name = "_part-bdc";
transform = "{1, 0, 0, 1, -5, 0}";
}
);
hints = (
{
origin = "{0, 2}";
scale = "{-1, 1}";
type = Corner;
name = "_corner-bdc";
options = 1;
},
{
origin = "{0, 1}";
type = Corner;
name = "_corner-bdc";
}
);
layerId = "9372F035-DA38-4B54-966C-CEBA9B53DD02";
paths = (
{
closed = 1;
nodes = (
"183 357 LINE",
"183 -280 LINE",
"113 -280 LINE",
"113 357 LINE"
);
},
{
closed = 1;
nodes = (
"445 220 LINE",
"445 339 OFFCURVE",
"401 429 OFFCURVE",
"315 429 CURVE SMOOTH",
"208 429 OFFCURVE",
"145 329 OFFCURVE",
"145 220 CURVE",
"125 220 LINE",
"125 351 OFFCURVE",
"198 454 OFFCURVE",
"315 454 CURVE SMOOTH",
"437 454 OFFCURVE",
"525 351 OFFCURVE",
"525 220 CURVE"
);
},
{
closed = 1;
nodes = (
"525 89 OFFCURVE",
"437 -14 OFFCURVE",
"315 -14 CURVE SMOOTH",
"198 -14 OFFCURVE",
"125 89 OFFCURVE",
"125 220 CURVE",
"145 220 LINE",
"145 111 OFFCURVE",
"208 11 OFFCURVE",
"315 11 CURVE SMOOTH",
"401 11 OFFCURVE",
"445 101 OFFCURVE",
"445 220 CURVE",
"525 220 LINE"
);
}
);
width = 558;
},
{
layerId = "E6B8952F-D64A-490A-9CF5-6DF985D88222";
width = 600;
}
);
unicode = 0070;
},
{
glyphname = q;
lastChange = "2017-10-17 11:46:15 +0000";
layers = (
{
backgroundImage = {
crop = "{{2046.353, 1450.608}, {227.964, 376.14}}";
imagePath = "../../1878 Limprimerie Berger Levrault Notice historique/Romain/JACOB-notice-187509.jpg";
transform = "{2.632, 0, 0, 2.632, -5386, -4098}";
};
hints = (
{
origin = "{0, 1}";
scale = "{-1, 1}";
type = Corner;
name = "_corner-bdc";
options = 1;
},
{
origin = "{0, 0}";
type = Corner;
name = "_corner-bdc";
options = 1;
}
);
layerId = "9372F035-DA38-4B54-966C-CEBA9B53DD02";
paths = (
{
closed = 1;
nodes = (
"451 -280 LINE",
"381 -280 LINE",
"381 357 LINE",
"451 454 LINE"
);
},
{
closed = 1;
nodes = (
"39 351 OFFCURVE",
"127 454 OFFCURVE",
"249 454 CURVE SMOOTH",
"366 454 OFFCURVE",
"439 351 OFFCURVE",
"439 220 CURVE",
"419 220 LINE",
"419 329 OFFCURVE",
"356 429 OFFCURVE",
"249 429 CURVE SMOOTH",
"163 429 OFFCURVE",
"119 339 OFFCURVE",
"119 220 CURVE",
"39 220 LINE"
);
},
{
closed = 1;
nodes = (
"119 220 LINE",
"119 101 OFFCURVE",
"163 11 OFFCURVE",
"249 11 CURVE SMOOTH",
"356 11 OFFCURVE",
"419 111 OFFCURVE",
"419 220 CURVE",
"439 220 LINE",
"439 89 OFFCURVE",
"366 -14 OFFCURVE",
"249 -14 CURVE SMOOTH",
"127 -14 OFFCURVE",
"39 89 OFFCURVE",
"39 220 CURVE"
);
}
);
width = 600;
},
{
layerId = "E6B8952F-D64A-490A-9CF5-6DF985D88222";
width = 600;
}
);
unicode = 0071;
},
{
glyphname = r;
lastChange = "2017-10-17 11:46:15 +0000";
layers = (
{
background = {
hints = (
{
origin = "{0, 1}";
type = Corner;
name = "_corner-bd";
},
{
origin = "{0, 2}";
type = Corner;
name = "_corner-bg";
}
);
paths = (
{
closed = 1;
nodes = (
"188 381 LINE",
"188 0 LINE",
"118 0 LINE",
"118 382 LINE"
);
},
{
closed = 1;
nodes = (
"364 449 OFFCURVE",
"379 414 OFFCURVE",
"379 389 CURVE SMOOTH",
"379 362 OFFCURVE",
"357 336 OFFCURVE",
"330 336 CURVE SMOOTH",
"297 336 OFFCURVE",
"279 363 OFFCURVE",
"279 386 CURVE SMOOTH",
"279 400 OFFCURVE",
"282 411 OFFCURVE",
"290 422 CURVE",
"223 422 OFFCURVE",
"164 319 OFFCURVE",
"162 252 CURVE",
"157 274 LINE",
"158 364 OFFCURVE",
"223 450 OFFCURVE",
"313 450 CURVE"
);
}
);
};
backgroundImage = {
crop = "{{1873.86, 838.526}, {170.593, 376.14}}";
imagePath = "../../../../Desktop/ANRT-Baskerwille/1878 Limprimerie Berger Levrault Notice historique/Romain/JACOB-notice-187519.jpg";
locked = "1";
transform = "{2.632, 0, 0, 2.632, -4952, -2487}";
};
components = (
{
name = "_part-bdc";
}
);
hints = (
{
origin = "{0, 2}";
scale = "{-1, 1}";
type = Corner;
name = "_corner-bdc";
options = 1;
},
{
origin = "{0, 1}";
type = Corner;
name = "_corner-bdc";
}
);
layerId = "9372F035-DA38-4B54-966C-CEBA9B53DD02";
paths = (
{
closed = 1;
nodes = (
"188 381 LINE",
"188 0 LINE",
"118 0 LINE",
"118 382 LINE"
);
},
{
closed = 1;
nodes = (
"362 454 OFFCURVE",
"377 419 OFFCURVE",
"377 394 CURVE SMOOTH",
"377 363 OFFCURVE",
"357 341 OFFCURVE",
"330 341 CURVE SMOOTH",
"298 341 OFFCURVE",
"281 368 OFFCURVE",
"281 385 CURVE SMOOTH",
"281 401 OFFCURVE",
"286 409 OFFCURVE",
"284 416 CURVE SMOOTH",
"281 424 OFFCURVE",
"269 423 OFFCURVE",
"263 422 CURVE SMOOTH",
"203 408 OFFCURVE",
"164 312 OFFCURVE",
"162 252 CURVE",
"157 274 LINE",
"158 367 OFFCURVE",
"223 454 OFFCURVE",
"304 454 CURVE SMOOTH"
);
}
);
width = 389;
},
{
associatedMasterId = "9372F035-DA38-4B54-966C-CEBA9B53DD02";
backgroundImage = {
crop = "{{1873.86, 838.526}, {227.964, 376.14}}";
imagePath = "../../../../alexisfaudot/Desktop/ANRT-Baskerwille/1878 Limprimerie Berger Levrault Notice historique/Romain/JACOB-notice-187519.jpg";
locked = "1";
transform = "{2.632, 0, 0, 2.632, -4932, -2487}";
};
components = (
{
name = "_part-bdc";
transform = "{1, 0, 0, 1, 30, 0}";
}
);
layerId = "BA52FC5E-3A3E-4B99-B5CA-3BD2F93D4D1F";
name = "Oct 13 17, 11:24";
width = 600;
},
{
layerId = "E6B8952F-D64A-490A-9CF5-6DF985D88222";
width = 600;
}
);
leftMetricsKey = n;
unicode = 0072;
},
{
glyphname = s;
lastChange = "2017-10-17 11:46:15 +0000";
layers = (
{
guideLines = (
{
angle = 90;
position = "{150, 80}";
}
);
layerId = "9372F035-DA38-4B54-966C-CEBA9B53DD02";
paths = (
{
closed = 1;
nodes = (
"86 454 OFFCURVE",
"21 414 OFFCURVE",
"21 328 CURVE SMOOTH",
"21 259 OFFCURVE",
"50 220 OFFCURVE",
"138 189 CURVE SMOOTH",
"207 165 OFFCURVE",
"239 143 OFFCURVE",
"239 97 CURVE SMOOTH",
"239 47 OFFCURVE",
"207 11 OFFCURVE",
"150 11 CURVE SMOOTH",
"88 11 OFFCURVE",
"37 45 OFFCURVE",
"37 129 CURVE",
"15 129 LINE",
"15 4 LINE",
"32 4 LINE",
"33 12 OFFCURVE",
"34 28 OFFCURVE",
"43 28 CURVE SMOOTH",
"54 28 OFFCURVE",
"85 -14 OFFCURVE",
"150 -14 CURVE SMOOTH",
"242 -14 OFFCURVE",
"290 52 OFFCURVE",
"290 133 CURVE SMOOTH",
"290 204 OFFCURVE",
"252 234 OFFCURVE",
"164 267 CURVE SMOOTH",
"108 288 OFFCURVE",
"71 305 OFFCURVE",
"71 359 CURVE SMOOTH",
"71 399 OFFCURVE",
"100 429 OFFCURVE",
"150 429 CURVE SMOOTH",
"201 429 OFFCURVE",
"230 397 OFFCURVE",
"233 338 CURVE",
"253 338 LINE",
"253 453 LINE",
"239 453 LINE",
"237 441 OFFCURVE",
"233 429 OFFCURVE",
"225 429 CURVE SMOOTH",
"211 429 OFFCURVE",
"198 454 OFFCURVE",
"150 454 CURVE SMOOTH"
);
}
);
width = 305;
},
{
layerId = "E6B8952F-D64A-490A-9CF5-6DF985D88222";
width = 600;
}
);
unicode = 0073;
},
{
glyphname = t;
lastChange = "2017-10-17 11:46:15 +0000";
layers = (
{
backgroundImage = {
crop = "{{1897.416, 795.213}, {129.179, 376.14}}";
imagePath = "../../../../alexisfaudot/Desktop/ANRT-Baskerwille/1878 Limprimerie Berger Levrault Notice historique/Romain/JACOB-notice-187501.jpg";
locked = "1";
transform = "{2.632, 0.023, -0.023, 2.632, -4994, -2373}";
};
layerId = "9372F035-DA38-4B54-966C-CEBA9B53DD02";
paths = (
{
closed = 1;
nodes = (
"129 53 OFFCURVE",
"152 15 OFFCURVE",
"197 16 CURVE SMOOTH",
"238 17 OFFCURVE",
"277 52 OFFCURVE",
"297 83 CURVE",
"310 62 LINE",
"287 28 OFFCURVE",
"242 -14 OFFCURVE",
"187 -14 CURVE SMOOTH",
"98 -14 OFFCURVE",
"59 35 OFFCURVE",
"59 106 CURVE SMOOTH",
"59 436 LINE",
"129 541 LINE",
"129 111 LINE SMOOTH"
);
},
{
closed = 1;
nodes = (
"269 436 LINE",
"269 416 LINE",
"30 416 LINE",
"30 436 LINE"
);
}
);
width = 340;
},
{
layerId = "E6B8952F-D64A-490A-9CF5-6DF985D88222";
width = 600;
}
);
unicode = 0074;
},
{
glyphname = u;
lastChange = "2017-10-17 11:46:15 +0000";
layers = (
{
guideLines = (
{
position = "{270, 439}";
}
);
hints = (
{
origin = "{0, 1}";
type = Corner;
name = "_corner-bdc";
options = 2;
},
{
origin = "{1, 13}";
scale = "{0.75, 1}";
type = Corner;
name = "_corner-bdc";
options = 1;
}
);
layerId = "9372F035-DA38-4B54-966C-CEBA9B53DD02";
paths = (
{
closed = 1;
nodes = (
"394 90 LINE",
"393 435 LINE",
"416 436 OFFCURVE",
"440 437 OFFCURVE",
"464 438 CURVE",
"464 66 LINE"
);
},
{
closed = 1;
nodes = (
"166 53 OFFCURVE",
"190 16 OFFCURVE",
"248 17 CURVE SMOOTH",
"367 19 OFFCURVE",
"407 141 OFFCURVE",
"409 184 CURVE",
"419 135 LINE",
"418 122 OFFCURVE",
"378 -13 OFFCURVE",
"238 -13 CURVE SMOOTH",
"136 -13 OFFCURVE",
"96 35 OFFCURVE",
"96 106 CURVE SMOOTH",
"96 436 LINE",
"165 439 LINE",
"166 111 LINE SMOOTH"
);
},
{
closed = 1;
nodes = (
"464 106 LINE",
"464 34 OFFCURVE",
"493 23 OFFCURVE",
"547 23 CURVE",
"547 0 LINE",
"492 0 OFFCURVE",
"455 0 OFFCURVE",
"400 -10 CURVE",
"398 91 LINE"
);
}
);
width = 572;
},
{
layerId = "E6B8952F-D64A-490A-9CF5-6DF985D88222";
width = 600;
}
);
leftMetricsKey = n;
rightMetricsKey = d;
unicode = 0075;
},
{
glyphname = v;
lastChange = "2017-10-17 11:46:15 +0000";
layers = (
{
backgroundImage = {
crop = "{{1145.897, 430.471}, {227.964, 376.14}}";
imagePath = "../../../../Desktop/ANRT-Baskerwille/1878 Limprimerie Berger Levrault Notice historique/Romain/JACOB-notice-187516.jpg";
locked = "1";
transform = "{2.632, 0, 0, 2.632, -3016, -1413}";
};
guideLines = (
{
angle = 90;
position = "{119, 461}";
}
);
layerId = "9372F035-DA38-4B54-966C-CEBA9B53DD02";
paths = (
{
closed = 1;
nodes = (
"349 59 LINE",
"323 -10 LINE",
"295 -10 LINE",
"75 436 LINE",
"163 436 LINE"
);
},
{
closed = 1;
nodes = (
"323 -10 LINE",
"296 -10 LINE",
"516 436 LINE",
"543 436 LINE"
);
},
{
closed = 1;
nodes = (
"139 436 LINE",
"286 439 LINE",
"286 416 LINE",
"270 414 LINE SMOOTH",
"212 407 OFFCURVE",
"188 394 OFFCURVE",
"210 339 CURVE"
);
},
{
closed = 1;
nodes = (
"112 365 OFFCURVE",
"83 406 OFFCURVE",
"19 414 CURVE SMOOTH",
"3 416 LINE",
"3 439 LINE",
"140 436 LINE",
"139 306 LINE"
);
},
{
closed = 1;
nodes = (
"491 394 OFFCURVE",
"477 406 OFFCURVE",
"409 414 CURVE SMOOTH",
"393 416 LINE",
"393 439 LINE",
"517 436 LINE",
"469 339 LINE"
);
},
{
closed = 1;
nodes = (
"517 436 LINE",
"615 439 LINE",
"615 416 LINE",
"599 414 LINE SMOOTH",
"535 406 OFFCURVE",
"506 365 OFFCURVE",
"479 306 CURVE"
);
}
);
width = 600;
},
{
layerId = "E6B8952F-D64A-490A-9CF5-6DF985D88222";
width = 600;
}
);
unicode = 0076;
},
{
glyphname = w;
lastChange = "2017-10-17 11:46:15 +0000";
layers = (
{
backgroundImage = {
crop = "{{1501.402, 953.175}, {284.424, 351.974}}";
imagePath = "../../ANRT-Baskerwille/1878 Limprimerie Berger Levrault Notice historique/Romain/JACOB-notice-187539.jpg";
locked = "1";
transform = "{2.849, 0, 0, 2.849, -4346, -3011}";
};
layerId = "9372F035-DA38-4B54-966C-CEBA9B53DD02";
paths = (
{
closed = 1;
nodes = (
"274 73 LINE",
"240 -13 LINE",
"212 -13 LINE",
"46 436 LINE",
"134 436 LINE"
);
},
{
closed = 1;
nodes = (
"66 379 OFFCURVE",
"47 407 OFFCURVE",
"11 414 CURVE SMOOTH",
"0 416 LINE",
"0 439 LINE",
"87 438 LINE",
"222 439 LINE",
"222 416 LINE",
"212 414 LINE SMOOTH",
"169 405 OFFCURVE",
"149 396 OFFCURVE",
"171 341 CURVE",
"120 322 LINE",
"87 325 LINE"
);
},
{
closed = 1;
nodes = (
"561 -13 LINE",
"534 -13 LINE",
"697 435 LINE",
"723 435 LINE"
);
},
{
closed = 1;
nodes = (
"697 435 LINE",
"603 438 LINE",
"603 415 LINE",
"619 413 LINE SMOOTH",
"667 407 OFFCURVE",
"683 391 OFFCURVE",
"661 336 CURVE"
);
},
{
closed = 1;
nodes = (
"697 435 LINE",
"776 438 LINE",
"776 415 LINE",
"760 413 LINE SMOOTH",
"702 406 OFFCURVE",
"706 374 OFFCURVE",
"679 315 CURVE"
);
},
{
closed = 1;
nodes = (
"561 -13 LINE",
"533 -13 LINE",
"383 335 LINE SMOOTH",
"350 411 OFFCURVE",
"417 438 OFFCURVE",
"456 437 CURVE SMOOTH",
"508 436 LINE",
"508 413 LINE",
"489 413 LINE SMOOTH",
"457 413 OFFCURVE",
"451 383 OFFCURVE",
"467 347 CURVE SMOOTH",
"585 77 LINE"
);
},
{
closed = 1;
nodes = (
"386 436 OFFCURVE",
"409 389 OFFCURVE",
"385 331 CURVE SMOOTH",
"240 -13 LINE",
"213 -13 LINE",
"359 332 LINE SMOOTH",
"380 383 OFFCURVE",
"347 413 OFFCURVE",
"319 413 CURVE SMOOTH",
"297 413 LINE",
"297 436 LINE",
"325 436 LINE SMOOTH"
);
}
);
width = 776;
},
{
layerId = "E6B8952F-D64A-490A-9CF5-6DF985D88222";
width = 600;
}
);
unicode = 0077;
},
{
glyphname = x;
lastChange = "2017-10-17 11:46:15 +0000";
layers = (
{
backgroundImage = {
crop = "{{1294.332, 1411.731}, {225.051, 371.334}}";
imagePath = "../../ANRT-Baskerwille/1878 Limprimerie Berger Levrault Notice historique/Romain/JACOB-notice-187512.jpg";
locked = "1";
transform = "{2.666, -0.047, 0.047, 2.666, -3471, -4044}";
};
layerId = "9372F035-DA38-4B54-966C-CEBA9B53DD02";
paths = (
{
closed = 1;
nodes = (
"524 30 OFFCURVE",
"493 44 OFFCURVE",
"457 87 CURVE SMOOTH",
"243 350 LINE SMOOTH",
"196 405 OFFCURVE",
"254 410 OFFCURVE",
"263 412 CURVE SMOOTH",
"279 416 LINE",
"279 439 LINE",
"150 436 LINE",
"33 439 LINE",
"33 416 LINE",
"49 413 LINE SMOOTH",
"85 407 OFFCURVE",
"116 392 OFFCURVE",
"152 349 CURVE",
"384 48 LINE SMOOTH",
"397 32 OFFCURVE",
"352 25 OFFCURVE",
"346 24 CURVE",
"330 20 LINE",
"330 -3 LINE",
"459 0 LINE",
"576 -3 LINE",
"576 20 LINE",
"560 23 LINE SMOOTH"
);
},
{
closed = 1;
nodes = (
"328 439 LINE",
"328 416 LINE",
"344 414 LINE SMOOTH",
"393 408 OFFCURVE",
"392 381 OFFCURVE",
"373 353 CURVE SMOOTH",
"265 229 LINE",
"279 210 LINE",
"383 332 LINE SMOOTH",
"422 373 OFFCURVE",
"466 406 OFFCURVE",
"529 414 CURVE SMOOTH",
"545 416 LINE",
"545 439 LINE",
"447 436 LINE"
);
},
{
closed = 1;
nodes = (
"217 -2 LINE",
"217 21 LINE",
"201 23 LINE SMOOTH",
"152 29 OFFCURVE",
"150 58 OFFCURVE",
"172 84 CURVE SMOOTH",
"280 208 LINE",
"266 227 LINE",
"162 105 LINE SMOOTH",
"125 62 OFFCURVE",
"79 31 OFFCURVE",
"16 23 CURVE SMOOTH",
"0 21 LINE",
"0 -2 LINE",
"98 1 LINE"
);
}
);
width = 576;
},
{
layerId = "E6B8952F-D64A-490A-9CF5-6DF985D88222";
width = 600;
}
);
unicode = 0078;
},
{
glyphname = y;
lastChange = "2017-10-17 11:46:15 +0000";
layers = (
{
backgroundImage = {
crop = "{{1363.869, 1158.434}, {193.502, 319.279}}";
imagePath = "../../ANRT-Baskerwille/1878 Limprimerie Berger Levrault Notice historique/Romain/JACOB-notice-187536.jpg";
locked = "1";
transform = "{3.101, 0, 0, 3.101, -4229, -3872}";
};
layerId = "9372F035-DA38-4B54-966C-CEBA9B53DD02";
paths = (
{
closed = 1;
nodes = (
"329 59 LINE",
"303 -10 LINE",
"275 -10 LINE",
"85 436 LINE",
"173 436 LINE"
);
},
{
closed = 1;
nodes = (
"303 -10 LINE",
"276 -10 LINE",
"496 436 LINE",
"523 436 LINE"
);
},
{
closed = 1;
nodes = (
"111 379 OFFCURVE",
"92 406 OFFCURVE",
"46 414 CURVE SMOOTH",
"35 416 LINE",
"35 439 LINE",
"132 438 LINE",
"268 439 LINE",
"268 416 LINE",
"258 414 LINE SMOOTH",
"214 407 OFFCURVE",
"190 394 OFFCURVE",
"212 339 CURVE",
"165 322 LINE",
"132 325 LINE"
);
},
{
closed = 1;
nodes = (
"471 394 OFFCURVE",
"457 406 OFFCURVE",
"409 414 CURVE SMOOTH",
"393 416 LINE",
"393 439 LINE",
"497 436 LINE",
"449 339 LINE"
);
},
{
closed = 1;
nodes = (
"497 436 LINE",
"576 439 LINE",
"576 416 LINE",
"560 414 LINE SMOOTH",
"502 407 OFFCURVE",
"486 365 OFFCURVE",
"459 306 CURVE"
);
},
{
closed = 1;
nodes = (
"231 -163 LINE SMOOTH",
"199 -231 OFFCURVE",
"152 -294 OFFCURVE",
"69 -294 CURVE SMOOTH",
"23 -294 OFFCURVE",
"-1 -275 OFFCURVE",
"-1 -241 CURVE SMOOTH",
"-1 -215 OFFCURVE",
"23 -194 OFFCURVE",
"55 -194 CURVE SMOOTH",
"91 -194 OFFCURVE",
"97 -224 OFFCURVE",
"122 -224 CURVE SMOOTH",
"150 -224 OFFCURVE",
"175 -211 OFFCURVE",
"192 -177 CURVE SMOOTH",
"282 2 LINE",
"309 3 LINE"
);
}
);
width = 600;
},
{
layerId = "E6B8952F-D64A-490A-9CF5-6DF985D88222";
width = 600;
}
);
unicode = 0079;
},
{
glyphname = z;
lastChange = "2017-10-17 11:46:15 +0000";
layers = (
{
backgroundImage = {
crop = "{{1314.97, 1297.492}, {227.964, 376.14}}";
imagePath = "../../../../alexisfaudot/Desktop/ANRT-Baskerwille/1878 Limprimerie Berger Levrault Notice historique/Romain/JACOB-notice-187533.jpg";
locked = "1";
transform = "{2.631, -0.069, 0.069, 2.631, -3562, -3695}";
};
layerId = "9372F035-DA38-4B54-966C-CEBA9B53DD02";
paths = (
{
closed = 1;
nodes = (
"16 0 LINE",
"78 0 LINE",
"406 409 LINE",
"400 436 LINE",
"335 436 LINE",
"10 27 LINE"
);
},
{
closed = 1;
nodes = (
"73 0 LINE",
"416 0 LINE",
"429 158 LINE",
"406 158 LINE",
"391 43 OFFCURVE",
"344 31 OFFCURVE",
"235 26 CURVE",
"73 22 LINE"
);
},
{
closed = 1;
nodes = (
"389 436 LINE",
"56 436 LINE",
"23 278 LINE",
"46 278 LINE",
"59 368 OFFCURVE",
"80 403 OFFCURVE",
"227 410 CURVE",
"389 414 LINE"
);
}
);
width = 449;
},
{
layerId = "E6B8952F-D64A-490A-9CF5-6DF985D88222";
width = 600;
}
);
unicode = 007A;
},
{
glyphname = r.ss01;
lastChange = "2017-10-17 11:46:15 +0000";
layers = (
{
background = {
paths = (
{
closed = 1;
nodes = (
"198 381 LINE",
"198 0 LINE",
"128 0 LINE",
"128 382 LINE"
);
},
{
closed = 1;
nodes = (
"374 449 OFFCURVE",
"389 414 OFFCURVE",
"389 389 CURVE SMOOTH",
"389 362 OFFCURVE",
"367 336 OFFCURVE",
"340 336 CURVE SMOOTH",
"307 336 OFFCURVE",
"289 363 OFFCURVE",
"289 386 CURVE SMOOTH",
"289 400 OFFCURVE",
"292 411 OFFCURVE",
"300 422 CURVE",
"233 422 OFFCURVE",
"174 319 OFFCURVE",
"172 252 CURVE",
"167 274 LINE",
"168 364 OFFCURVE",
"233 450 OFFCURVE",
"323 450 CURVE"
);
}
);
};
backgroundImage = {
crop = "{{1873.86, 838.526}, {170.593, 376.14}}";
imagePath = "../../../../alexisfaudot/Desktop/ANRT-Baskerwille/1878 Limprimerie Berger Levrault Notice historique/Romain/JACOB-notice-187519.jpg";
locked = "1";
transform = "{2.632, 0, 0, 2.632, -4942, -2487}";
};
components = (
{
name = _part;
transform = "{1, 0, 0, 1, 10, 0}";
}
);
hints = (
{
origin = "{0, 2}";
scale = "{-1, 1}";
type = Corner;
name = "_corner-bdc";
options = 1;
},
{
origin = "{0, 1}";
type = Corner;
name = "_corner-bdc";
}
);
layerId = "9372F035-DA38-4B54-966C-CEBA9B53DD02";
paths = (
{
closed = 1;
nodes = (
"198 381 LINE",
"198 0 LINE",
"128 0 LINE",
"128 382 LINE"
);
},
{
closed = 1;
nodes = (
"374 449 OFFCURVE",
"389 414 OFFCURVE",
"389 389 CURVE SMOOTH",
"389 362 OFFCURVE",
"367 336 OFFCURVE",
"340 336 CURVE SMOOTH",
"307 336 OFFCURVE",
"289 363 OFFCURVE",
"289 386 CURVE SMOOTH",
"289 400 OFFCURVE",
"292 411 OFFCURVE",
"300 422 CURVE",
"233 422 OFFCURVE",
"174 319 OFFCURVE",
"172 252 CURVE",
"167 274 LINE",
"168 364 OFFCURVE",
"233 450 OFFCURVE",
"323 450 CURVE"
);
}
);
width = 399;
},
{
associatedMasterId = "9372F035-DA38-4B54-966C-CEBA9B53DD02";
backgroundImage = {
crop = "{{1873.86, 838.526}, {227.964, 376.14}}";
imagePath = "../../../../alexisfaudot/Desktop/ANRT-Baskerwille/1878 Limprimerie Berger Levrault Notice historique/Romain/JACOB-notice-187519.jpg";
locked = "1";
transform = "{2.632, 0, 0, 2.632, -4932, -2487}";
};
components = (
{
name = _part;
transform = "{1, 0, 0, 1, 30, 0}";
}
);
layerId = "BA52FC5E-3A3E-4B99-B5CA-3BD2F93D4D1F";
name = "Oct 13 17, 11:24";
width = 600;
},
{
layerId = "E6B8952F-D64A-490A-9CF5-6DF985D88222";
width = 600;
}
);
},
{
glyphname = zero;
lastChange = "2017-10-17 12:11:49 +0000";
layers = (
{
layerId = "9372F035-DA38-4B54-966C-CEBA9B53DD02";
paths = (
{
closed = 1;
nodes = (
"371 -14 OFFCURVE",
"450 82 OFFCURVE",
"450 220 CURVE SMOOTH",
"450 358 OFFCURVE",
"371 454 OFFCURVE",
"245 454 CURVE SMOOTH",
"119 454 OFFCURVE",
"40 358 OFFCURVE",
"40 220 CURVE SMOOTH",
"40 82 OFFCURVE",
"119 -14 OFFCURVE",
"245 -14 CURVE SMOOTH"
);
},
{
closed = 1;
nodes = (
"167 11 OFFCURVE",
"120 97 OFFCURVE",
"120 220 CURVE SMOOTH",
"120 343 OFFCURVE",
"167 429 OFFCURVE",
"245 429 CURVE SMOOTH",
"323 429 OFFCURVE",
"370 343 OFFCURVE",
"370 220 CURVE SMOOTH",
"370 97 OFFCURVE",
"323 11 OFFCURVE",
"245 11 CURVE SMOOTH"
);
}
);
width = 490;
},
{
layerId = "E6B8952F-D64A-490A-9CF5-6DF985D88222";
paths = (
{
closed = 1;
nodes = (
"287 -14 OFFCURVE",
"401 82 OFFCURVE",
"451 220 CURVE SMOOTH",
"501 358 OFFCURVE",
"457 454 OFFCURVE",
"331 454 CURVE SMOOTH",
"205 454 OFFCURVE",
"91 358 OFFCURVE",
"41 220 CURVE SMOOTH",
"-9 82 OFFCURVE",
"35 -14 OFFCURVE",
"161 -14 CURVE SMOOTH"
);
},
{
closed = 1;
nodes = (
"92 11 OFFCURVE",
"76 97 OFFCURVE",
"121 220 CURVE SMOOTH",
"166 343 OFFCURVE",
"244 429 OFFCURVE",
"322 429 CURVE SMOOTH",
"400 429 OFFCURVE",
"416 343 OFFCURVE",
"371 220 CURVE SMOOTH",
"326 97 OFFCURVE",
"248 11 OFFCURVE",
"170 11 CURVE SMOOTH"
);
}
);
width = 490;
}
);
unicode = 0030;
},
{
glyphname = one;
lastChange = "2017-10-18 11:41:47 +0000";
layers = (
{
hints = (
{
origin = "{0, 4}";
type = Corner;
name = "_corner-bdc";
},
{
origin = "{0, 5}";
scale = "{-1, 1}";
type = Corner;
name = "_corner-bdc";
options = 1;
}
);
layerId = "9372F035-DA38-4B54-966C-CEBA9B53DD02";
paths = (
{
closed = 1;
nodes = (
"20 400 LINE",
"74 400 OFFCURVE",
"118 418 OFFCURVE",
"118 346 CURVE SMOOTH",
"118 0 LINE",
"188 0 LINE",
"188 454 LINE",
"133 436 OFFCURVE",
"75 430 OFFCURVE",
"20 430 CURVE"
);
}
);
width = 301;
},
{
associatedMasterId = "9372F035-DA38-4B54-966C-CEBA9B53DD02";
hints = (
{
origin = "{0, 4}";
type = Corner;
name = "_corner-bdc";
},
{
origin = "{0, 5}";
scale = "{-1, 1}";
type = Corner;
name = "_corner-bdc";
options = 1;
}
);
layerId = "3A6012CA-9A48-4B0F-B9D9-7B29ED02AA58";
name = "Oct 17 17, 11:54";
paths = (
{
closed = 1;
nodes = (
"30 408 LINE",
"84 408 OFFCURVE",
"118 402 OFFCURVE",
"118 330 CURVE SMOOTH",
"118 0 LINE",
"188 0 LINE",
"188 446 LINE",
"133 436 OFFCURVE",
"85 431 OFFCURVE",
"30 431 CURVE"
);
}
);
width = 301;
},
{
layerId = "E6B8952F-D64A-490A-9CF5-6DF985D88222";
paths = (
{
closed = 1;
nodes = (
"174 331 LINE SMOOTH",
"201 404 OFFCURVE",
"161 389 OFFCURVE",
"107 389 CURVE",
"118 419 LINE",
"173 419 OFFCURVE",
"230 444 OFFCURVE",
"289 454 CURVE",
"167 121 LINE SMOOTH",
"134 31 OFFCURVE",
"147 29 OFFCURVE",
"203 22 CURVE SMOOTH",
"218 20 LINE",
"209 -3 LINE",
"88 0 LINE",
"-35 -3 LINE",
"-27 20 LINE",
"-11 22 LINE SMOOTH",
"50 30 OFFCURVE",
"65 31 OFFCURVE",
"97 121 CURVE SMOOTH"
);
}
);
width = 335;
},
{
associatedMasterId = "9372F035-DA38-4B54-966C-CEBA9B53DD02";
hints = (
{
origin = "{0, 4}";
type = Corner;
name = "_corner-bdc";
},
{
origin = "{0, 5}";
scale = "{-1, 1}";
type = Corner;
name = "_corner-bdc";
options = 1;
}
);
layerId = "292B1129-452C-4B64-B2BA-687323C17202";
name = "Oct 18 17, 13:41";
paths = (
{
closed = 1;
nodes = (
"30 389 LINE",
"84 389 OFFCURVE",
"118 403 OFFCURVE",
"118 331 CURVE SMOOTH",
"118 0 LINE",
"188 0 LINE",
"188 454 LINE",
"133 436 OFFCURVE",
"85 419 OFFCURVE",
"30 419 CURVE"
);
}
);
width = 301;
}
);
unicode = 0031;
},
{
glyphname = two;
lastChange = "2017-10-18 11:50:02 +0000";
layers = (
{
hints = (
{
origin = "{0, 11}";
scale = "{0.6, 1}";
type = Corner;
name = "_corner-bdc";
}
);
layerId = "9372F035-DA38-4B54-966C-CEBA9B53DD02";
paths = (
{
closed = 1;
nodes = (
"78 270 LINE",
"59 347 OFFCURVE",
"101 423 OFFCURVE",
"176 423 CURVE SMOOTH",
"245 423 OFFCURVE",
"280 367 OFFCURVE",
"280 303 CURVE SMOOTH",
"280 234 OFFCURVE",
"206 175 OFFCURVE",
"52 15 CURVE",
"52 -5 LINE",
"380 0 LINE",
"385 72 LINE",
"144 70 LINE",
"236 182 OFFCURVE",
"360 213 OFFCURVE",
"360 313 CURVE SMOOTH",
"360 392 OFFCURVE",
"290 453 OFFCURVE",
"191 453 CURVE SMOOTH",
"95 453 OFFCURVE",
"29 371 OFFCURVE",
"52 270 CURVE"
);
}
);
width = 420;
},
{
associatedMasterId = "9372F035-DA38-4B54-966C-CEBA9B53DD02";
layerId = "C92A1EF9-EF50-410D-BB22-3A00B08A48D5";
name = "Oct 16 17, 11:21";
paths = (
{
closed = 1;
nodes = (
"125 204 LINE",
"125 220 LINE"
);
},
{
closed = 1;
nodes = (
"125 220 LINE",
"86 232 OFFCURVE",
"50 264 OFFCURVE",
"50 320 CURVE SMOOTH",
"50 378 OFFCURVE",
"96 430 OFFCURVE",
"157 430 CURVE SMOOTH",
"210 430 OFFCURVE",
"250 377 OFFCURVE",
"250 313 CURVE SMOOTH",
"250 244 OFFCURVE",
"206 177 OFFCURVE",
"52 17 CURVE",
"52 -5 LINE",
"280 0 LINE",
"287 -56 LINE",
"302 -56 LINE",
"307 -1 OFFCURVE",
"313 36 OFFCURVE",
"330 82 CURVE",
"113 65 LINE",
"110 44 LINE",
"202 156 OFFCURVE",
"330 222 OFFCURVE",
"330 323 CURVE SMOOTH",
"330 392 OFFCURVE",
"265 450 OFFCURVE",
"176 450 CURVE SMOOTH",
"91 450 OFFCURVE",
"30 390 OFFCURVE",
"30 320 CURVE SMOOTH",
"30 259 OFFCURVE",
"73 218 OFFCURVE",
"125 204 CURVE"
);
}
);
width = 360;
},
{
associatedMasterId = "9372F035-DA38-4B54-966C-CEBA9B53DD02";
layerId = "A8E1C4B8-A7E6-4BB3-B48F-EF476E345814";
name = "Oct 16 17, 12:22";
paths = (
{
closed = 1;
nodes = (
"125 225 LINE",
"86 231 OFFCURVE",
"62 264 OFFCURVE",
"62 320 CURVE SMOOTH",
"62 378 OFFCURVE",
"96 420 OFFCURVE",
"157 420 CURVE SMOOTH",
"210 420 OFFCURVE",
"250 377 OFFCURVE",
"250 313 CURVE SMOOTH",
"250 244 OFFCURVE",
"206 175 OFFCURVE",
"52 15 CURVE",
"52 -5 LINE",
"330 0 LINE",
"330 82 LINE",
"113 65 LINE",
"110 44 LINE",
"202 156 OFFCURVE",
"330 222 OFFCURVE",
"330 323 CURVE SMOOTH",
"330 392 OFFCURVE",
"265 450 OFFCURVE",
"176 450 CURVE SMOOTH",
"91 450 OFFCURVE",
"30 390 OFFCURVE",
"30 320 CURVE SMOOTH",
"30 259 OFFCURVE",
"73 212 OFFCURVE",
"125 204 CURVE"
);
},
{
closed = 1;
nodes = (
"330 82 LINE",
"312 72 LINE",
"312 -40 LINE",
"330 -40 LINE"
);
}
);
width = 360;
},
{
associatedMasterId = "9372F035-DA38-4B54-966C-CEBA9B53DD02";
layerId = "8E453B26-DA04-4356-9938-960E9DAA0B0A";
name = "Oct 17 17, 11:57";
paths = (
{
closed = 1;
nodes = (
"125 215 LINE",
"86 221 OFFCURVE",
"62 254 OFFCURVE",
"62 310 CURVE SMOOTH",
"62 368 OFFCURVE",
"96 420 OFFCURVE",
"157 420 CURVE SMOOTH",
"210 420 OFFCURVE",
"260 367 OFFCURVE",
"260 303 CURVE SMOOTH",
"260 234 OFFCURVE",
"206 175 OFFCURVE",
"52 15 CURVE",
"52 -5 LINE",
"330 0 LINE",
"330 82 LINE",
"128 65 LINE",
"220 177 OFFCURVE",
"340 213 OFFCURVE",
"340 313 CURVE SMOOTH",
"340 382 OFFCURVE",
"265 450 OFFCURVE",
"176 450 CURVE SMOOTH",
"91 450 OFFCURVE",
"30 380 OFFCURVE",
"30 310 CURVE SMOOTH",
"30 249 OFFCURVE",
"73 202 OFFCURVE",
"125 194 CURVE"
);
},
{
closed = 1;
nodes = (
"330 82 LINE",
"312 72 LINE",
"312 -40 LINE",
"330 -40 LINE"
);
}
);
width = 360;
},
{
layerId = "E6B8952F-D64A-490A-9CF5-6DF985D88222";
paths = (
{
closed = 1;
nodes = (
"144 215 LINE",
"107 221 OFFCURVE",
"89 254 OFFCURVE",
"110 310 CURVE SMOOTH",
"131 368 OFFCURVE",
"190 423 OFFCURVE",
"255 423 CURVE SMOOTH",
"324 423 OFFCURVE",
"338 367 OFFCURVE",
"315 303 CURVE SMOOTH",
"290 234 OFFCURVE",
"195 175 OFFCURVE",
"-18 15 CURVE",
"-25 -5 LINE",
"305 0 LINE",
"335 82 LINE",
"81 65 LINE",
"214 177 OFFCURVE",
"362 213 OFFCURVE",
"399 313 CURVE SMOOTH",
"428 392 OFFCURVE",
"380 453 OFFCURVE",
"281 453 CURVE SMOOTH",
"196 453 OFFCURVE",
"110 383 OFFCURVE",
"85 313 CURVE SMOOTH",
"63 252 OFFCURVE",
"87 202 OFFCURVE",
"136 194 CURVE"
);
},
{
closed = 1;
nodes = (
"335 82 LINE",
"313 72 LINE",
"272 -40 LINE",
"290 -40 LINE"
);
}
);
width = 434;
},
{
associatedMasterId = "9372F035-DA38-4B54-966C-CEBA9B53DD02";
layerId = "37C8AD20-A5FD-4F5D-8379-BAB2D66786CF";
name = "Oct 18 17, 13:47";
paths = (
{
closed = 1;
nodes = (
"141 215 LINE",
"102 221 OFFCURVE",
"72 254 OFFCURVE",
"72 310 CURVE SMOOTH",
"72 368 OFFCURVE",
"111 423 OFFCURVE",
"176 423 CURVE SMOOTH",
"245 423 OFFCURVE",
"280 367 OFFCURVE",
"280 303 CURVE SMOOTH",
"280 234 OFFCURVE",
"206 175 OFFCURVE",
"52 15 CURVE",
"52 -5 LINE",
"380 0 LINE",
"380 72 LINE",
"133 65 LINE",
"225 177 OFFCURVE",
"360 213 OFFCURVE",
"360 313 CURVE SMOOTH",
"360 392 OFFCURVE",
"290 453 OFFCURVE",
"191 453 CURVE SMOOTH",
"106 453 OFFCURVE",
"46 383 OFFCURVE",
"46 313 CURVE SMOOTH",
"46 252 OFFCURVE",
"89 202 OFFCURVE",
"141 194 CURVE"
);
},
{
closed = 1;
nodes = (
"380 72 LINE",
"357 65 LINE",
"357 -40 LINE",
"380 -40 LINE"
);
}
);
width = 420;
}
);
unicode = 0032;
},
{
glyphname = three;
lastChange = "2017-10-19 10:15:38 +0000";
layers = (
{
backgroundImage = {
crop = "{{1627.778, 919.259}, {222.222, 366.667}}";
imagePath = "../../1878 Limprimerie Berger Levrault Notice historique/Romain/JACOB-notice-187523.jpg";
transform = "{2.7, 0, 0, 2.7, -4509, -2762}";
};
guideLines = (
{
position = "{179, 271}";
}
);
layerId = "9372F035-DA38-4B54-966C-CEBA9B53DD02";
paths = (
{
closed = 1;
nodes = (
"108 271 LINE",
"104 283 OFFCURVE",
"102 295 OFFCURVE",
"102 310 CURVE SMOOTH",
"102 368 OFFCURVE",
"141 423 OFFCURVE",
"206 423 CURVE SMOOTH",
"275 423 OFFCURVE",
"310 367 OFFCURVE",
"310 303 CURVE SMOOTH",
"310 234 OFFCURVE",
"255 200 OFFCURVE",
"172 122 CURVE",
"172 92 LINE",
"188 97 OFFCURVE",
"207 101 OFFCURVE",
"239 99 CURVE SMOOTH",
"289 96 OFFCURVE",
"335 47 OFFCURVE",
"327 -72 CURVE SMOOTH",
"318 -212 OFFCURVE",
"238 -265 OFFCURVE",
"160 -265 CURVE SMOOTH",
"114 -265 OFFCURVE",
"97 -246 OFFCURVE",
"90 -224 CURVE SMOOTH",
"87 -217 OFFCURVE",
"94 -209 OFFCURVE",
"94 -191 CURVE SMOOTH",
"94 -171 OFFCURVE",
"77 -154 OFFCURVE",
"58 -154 CURVE SMOOTH",
"33 -154 OFFCURVE",
"20 -177 OFFCURVE",
"20 -200 CURVE SMOOTH",
"20 -243 OFFCURVE",
"62 -291 OFFCURVE",
"158 -290 CURVE SMOOTH",
"237 -289 OFFCURVE",
"401 -226 OFFCURVE",
"411 -72 CURVE SMOOTH",
"419 47 OFFCURVE",
"366 125 OFFCURVE",
"238 125 CURVE SMOOTH",
"228 125 OFFCURVE",
"221 125 OFFCURVE",
"210 123 CURVE",
"267 171 OFFCURVE",
"390 216 OFFCURVE",
"390 313 CURVE SMOOTH",
"390 392 OFFCURVE",
"320 453 OFFCURVE",
"221 453 CURVE SMOOTH",
"136 453 OFFCURVE",
"76 383 OFFCURVE",
"76 313 CURVE SMOOTH",
"76 298 OFFCURVE",
"79 284 OFFCURVE",
"83 271 CURVE"
);
}
);
width = 462;
},
{
associatedMasterId = "9372F035-DA38-4B54-966C-CEBA9B53DD02";
backgroundImage = {
crop = "{{1627.778, 919.259}, {222.222, 366.667}}";
imagePath = "../../1878 Limprimerie Berger Levrault Notice historique/Romain/JACOB-notice-187523.jpg";
transform = "{2.7, 0, 0, 2.7, -4569, -2762}";
};
layerId = "0EB56064-589C-4CA1-B490-F29978E73C5E";
name = "Oct 17 17, 12:03";
paths = (
{
closed = 1;
nodes = (
"178 125 LINE",
"253 193 OFFCURVE",
"324 240 OFFCURVE",
"324 320 CURVE SMOOTH",
"324 389 OFFCURVE",
"259 454 OFFCURVE",
"170 454 CURVE SMOOTH",
"85 454 OFFCURVE",
"14 392 OFFCURVE",
"14 322 CURVE SMOOTH",
"14 261 OFFCURVE",
"52 229 OFFCURVE",
"104 221 CURVE",
"104 242 LINE",
"65 248 OFFCURVE",
"41 279 OFFCURVE",
"41 322 CURVE SMOOTH",
"41 384 OFFCURVE",
"109 424 OFFCURVE",
"151 424 CURVE SMOOTH",
"219 424 OFFCURVE",
"268 374 OFFCURVE",
"268 310 CURVE SMOOTH",
"268 241 OFFCURVE",
"213 187 OFFCURVE",
"112 112 CURVE",
"165 116 LINE"
);
},
{
closed = 1;
nodes = (
"177 -289 OFFCURVE",
"321 -226 OFFCURVE",
"331 -72 CURVE SMOOTH",
"339 47 OFFCURVE",
"306 125 OFFCURVE",
"178 125 CURVE SMOOTH",
"157 125 OFFCURVE",
"135 123 OFFCURVE",
"112 112 CURVE",
"112 79 LINE",
"128 90 OFFCURVE",
"147 99 OFFCURVE",
"179 99 CURVE SMOOTH",
"229 99 OFFCURVE",
"255 47 OFFCURVE",
"247 -72 CURVE SMOOTH",
"238 -212 OFFCURVE",
"178 -265 OFFCURVE",
"100 -265 CURVE SMOOTH",
"-7 -265 OFFCURVE",
"45 -164 OFFCURVE",
"-2 -164 CURVE SMOOTH",
"-27 -164 OFFCURVE",
"-40 -177 OFFCURVE",
"-40 -200 CURVE SMOOTH",
"-40 -243 OFFCURVE",
"2 -291 OFFCURVE",
"98 -290 CURVE SMOOTH"
);
}
);
width = 405;
},
{
layerId = "E6B8952F-D64A-490A-9CF5-6DF985D88222";
paths = (
{
closed = 1;
nodes = (
"174 125 OFFCURVE",
"164 125 OFFCURVE",
"152 123 CURVE",
"227 171 OFFCURVE",
"369 216 OFFCURVE",
"404 313 CURVE SMOOTH",
"433 392 OFFCURVE",
"385 453 OFFCURVE",
"286 453 CURVE SMOOTH",
"201 453 OFFCURVE",
"116 383 OFFCURVE",
"90 313 CURVE SMOOTH",
"68 252 OFFCURVE",
"93 202 OFFCURVE",
"142 194 CURVE",
"150 215 LINE",
"113 221 OFFCURVE",
"95 254 OFFCURVE",
"115 310 CURVE SMOOTH",
"136 368 OFFCURVE",
"195 423 OFFCURVE",
"260 423 CURVE SMOOTH",
"329 423 OFFCURVE",
"344 367 OFFCURVE",
"321 303 CURVE SMOOTH",
"296 234 OFFCURVE",
"224 190 OFFCURVE",
"113 112 CURVE",
"101 79 LINE",
"121 90 OFFCURVE",
"143 99 OFFCURVE",
"175 99 CURVE SMOOTH",
"225 99 OFFCURVE",
"252 47 OFFCURVE",
"201 -72 CURVE SMOOTH",
"141 -212 OFFCURVE",
"42 -265 OFFCURVE",
"-36 -265 CURVE SMOOTH",
"-143 -265 OFFCURVE",
"-54 -164 OFFCURVE",
"-101 -164 CURVE SMOOTH",
"-126 -164 OFFCURVE",
"-144 -177 OFFCURVE",
"-152 -200 CURVE SMOOTH",
"-168 -243 OFFCURVE",
"-144 -291 OFFCURVE",
"-47 -290 CURVE SMOOTH",
"32 -289 OFFCURVE",
"219 -226 OFFCURVE",
"285 -72 CURVE SMOOTH",
"336 47 OFFCURVE",
"312 125 OFFCURVE",
"184 125 CURVE SMOOTH"
);
}
);
width = 441;
},
{
associatedMasterId = "9372F035-DA38-4B54-966C-CEBA9B53DD02";
backgroundImage = {
crop = "{{1627.778, 919.259}, {222.222, 366.667}}";
imagePath = "../../1878 Limprimerie Berger Levrault Notice historique/Romain/JACOB-notice-187523.jpg";
transform = "{2.7, 0, 0, 2.7, -4549, -2762}";
};
layerId = "9376E6CB-3796-44A7-A495-6BB67D5A1E51";
name = "Oct 18 17, 14:45";
paths = (
{
closed = 1;
nodes = (
"188 125 OFFCURVE",
"178 125 OFFCURVE",
"167 123 CURVE",
"224 171 OFFCURVE",
"350 216 OFFCURVE",
"350 313 CURVE SMOOTH",
"350 392 OFFCURVE",
"280 453 OFFCURVE",
"181 453 CURVE SMOOTH",
"96 453 OFFCURVE",
"36 383 OFFCURVE",
"36 313 CURVE SMOOTH",
"36 252 OFFCURVE",
"79 202 OFFCURVE",
"131 194 CURVE",
"131 215 LINE",
"92 221 OFFCURVE",
"62 254 OFFCURVE",
"62 310 CURVE SMOOTH",
"62 368 OFFCURVE",
"101 423 OFFCURVE",
"166 423 CURVE SMOOTH",
"235 423 OFFCURVE",
"270 367 OFFCURVE",
"270 303 CURVE SMOOTH",
"270 234 OFFCURVE",
"215 190 OFFCURVE",
"132 112 CURVE",
"132 79 LINE",
"148 90 OFFCURVE",
"167 99 OFFCURVE",
"199 99 CURVE SMOOTH",
"249 99 OFFCURVE",
"295 47 OFFCURVE",
"287 -72 CURVE SMOOTH",
"278 -212 OFFCURVE",
"198 -265 OFFCURVE",
"120 -265 CURVE SMOOTH",
"13 -265 OFFCURVE",
"65 -164 OFFCURVE",
"18 -164 CURVE SMOOTH",
"-7 -164 OFFCURVE",
"-20 -177 OFFCURVE",
"-20 -200 CURVE SMOOTH",
"-20 -243 OFFCURVE",
"22 -291 OFFCURVE",
"118 -290 CURVE SMOOTH",
"197 -289 OFFCURVE",
"361 -226 OFFCURVE",
"371 -72 CURVE SMOOTH",
"379 47 OFFCURVE",
"326 125 OFFCURVE",
"198 125 CURVE SMOOTH"
);
}
);
width = 422;
},
{
associatedMasterId = "9372F035-DA38-4B54-966C-CEBA9B53DD02";
backgroundImage = {
crop = "{{1627.778, 919.259}, {222.222, 366.667}}";
imagePath = "../../1878 Limprimerie Berger Levrault Notice historique/Romain/JACOB-notice-187523.jpg";
transform = "{2.7, 0, 0, 2.7, -4509, -2762}";
};
guideLines = (
{
position = "{179, 271}";
}
);
layerId = "9257DEF7-01B5-44BA-96B8-4D7D48F66836";
name = "Oct 19 17, 12:08";
paths = (
{
closed = 1;
nodes = (
"108 271 LINE",
"104 283 OFFCURVE",
"102 295 OFFCURVE",
"102 310 CURVE SMOOTH",
"102 368 OFFCURVE",
"141 423 OFFCURVE",
"206 423 CURVE SMOOTH",
"275 423 OFFCURVE",
"310 367 OFFCURVE",
"310 303 CURVE SMOOTH",
"310 234 OFFCURVE",
"255 199 OFFCURVE",
"172 121 CURVE",
"172 90 LINE",
"185 95 OFFCURVE",
"207 101 OFFCURVE",
"239 99 CURVE SMOOTH",
"289 96 OFFCURVE",
"335 47 OFFCURVE",
"327 -72 CURVE SMOOTH",
"318 -212 OFFCURVE",
"238 -265 OFFCURVE",
"160 -265 CURVE SMOOTH",
"53 -265 OFFCURVE",
"105 -164 OFFCURVE",
"58 -164 CURVE SMOOTH",
"33 -164 OFFCURVE",
"20 -177 OFFCURVE",
"20 -200 CURVE SMOOTH",
"20 -243 OFFCURVE",
"62 -291 OFFCURVE",
"158 -290 CURVE SMOOTH",
"237 -289 OFFCURVE",
"401 -226 OFFCURVE",
"411 -72 CURVE SMOOTH",
"419 47 OFFCURVE",
"366 125 OFFCURVE",
"238 125 CURVE SMOOTH",
"228 125 OFFCURVE",
"222 124 OFFCURVE",
"211 122 CURVE",
"268 170 OFFCURVE",
"390 216 OFFCURVE",
"390 313 CURVE SMOOTH",
"390 392 OFFCURVE",
"320 453 OFFCURVE",
"221 453 CURVE SMOOTH",
"136 453 OFFCURVE",
"76 383 OFFCURVE",
"76 313 CURVE SMOOTH",
"76 298 OFFCURVE",
"79 284 OFFCURVE",
"83 271 CURVE"
);
}
);
width = 462;
},
{
associatedMasterId = "9372F035-DA38-4B54-966C-CEBA9B53DD02";
backgroundImage = {
crop = "{{1627.778, 919.259}, {222.222, 366.667}}";
imagePath = "../../1878 Limprimerie Berger Levrault Notice historique/Romain/JACOB-notice-187523.jpg";
transform = "{2.7, 0, 0, 2.7, -4509, -2762}";
};
guideLines = (
{
position = "{179, 271}";
}
);
layerId = "2BA8D5C4-7CAB-4B6D-8A64-53D51EF7E35E";
name = "Oct 19 17, 12:10";
paths = (
{
closed = 1;
nodes = (
"108 271 LINE",
"104 283 OFFCURVE",
"102 295 OFFCURVE",
"102 310 CURVE SMOOTH",
"102 368 OFFCURVE",
"141 423 OFFCURVE",
"206 423 CURVE SMOOTH",
"275 423 OFFCURVE",
"310 367 OFFCURVE",
"310 303 CURVE SMOOTH",
"310 234 OFFCURVE",
"255 190 OFFCURVE",
"172 112 CURVE",
"172 79 LINE",
"188 90 OFFCURVE",
"207 99 OFFCURVE",
"239 99 CURVE SMOOTH",
"289 99 OFFCURVE",
"335 47 OFFCURVE",
"327 -72 CURVE SMOOTH",
"318 -212 OFFCURVE",
"238 -265 OFFCURVE",
"160 -265 CURVE SMOOTH",
"114 -265 OFFCURVE",
"97 -246 OFFCURVE",
"90 -224 CURVE SMOOTH",
"87 -217 OFFCURVE",
"94 -209 OFFCURVE",
"94 -191 CURVE SMOOTH",
"94 -171 OFFCURVE",
"77 -154 OFFCURVE",
"58 -154 CURVE SMOOTH",
"33 -154 OFFCURVE",
"20 -177 OFFCURVE",
"20 -200 CURVE SMOOTH",
"20 -243 OFFCURVE",
"62 -291 OFFCURVE",
"158 -290 CURVE SMOOTH",
"237 -289 OFFCURVE",
"401 -226 OFFCURVE",
"411 -72 CURVE SMOOTH",
"419 47 OFFCURVE",
"366 125 OFFCURVE",
"238 125 CURVE SMOOTH",
"228 125 OFFCURVE",
"218 125 OFFCURVE",
"207 123 CURVE",
"264 171 OFFCURVE",
"390 216 OFFCURVE",
"390 313 CURVE SMOOTH",
"390 392 OFFCURVE",
"320 453 OFFCURVE",
"221 453 CURVE SMOOTH",
"136 453 OFFCURVE",
"76 383 OFFCURVE",
"76 313 CURVE SMOOTH",
"76 298 OFFCURVE",
"79 284 OFFCURVE",
"83 271 CURVE"
);
}
);
width = 462;
}
);
unicode = 0033;
},
{
color = 0;
glyphname = four;
lastChange = "2017-10-19 10:20:14 +0000";
layers = (
{
background = {
hints = (
{
place = "{0, 0}";
type = Corner;
name = "_corner-bdc";
},
{
place = "{0, 0}";
scale = "{1, -1}";
type = Corner;
name = "_corner-bdc";
options = 1;
},
{
origin = "{0, 4}";
type = Corner;
name = "_corner-bdc";
},
{
origin = "{0, 5}";
scale = "{1, -1}";
type = Corner;
name = "_corner-bdc";
options = 1;
}
);
paths = (
{
closed = 1;
nodes = (
"354 710 LINE",
"40 242 LINE",
"40 222 LINE",
"276 222 LINE",
"276 0 LINE",
"366 0 LINE",
"366 222 LINE",
"500 222 LINE",
"500 242 LINE",
"366 242 LINE",
"366 710 LINE"
);
},
{
closed = 1;
nodes = (
"276 242 LINE",
"57 242 LINE",
"54 226 LINE",
"300 588 LINE",
"276 580 LINE"
);
}
);
};
backgroundImage = {
crop = "{{1548.519, 1244.074}, {222.222, 366.667}}";
imagePath = "../../1878 Limprimerie Berger Levrault Notice historique/Romain/JACOB-notice-187522.jpg";
locked = "1";
transform = "{2.7, 0, 0, 2.7, -4221, -3622}";
};
hints = (
{
origin = "{0, 5}";
scale = "{1, -1}";
type = Corner;
name = "_corner-bdc";
options = 1;
},
{
origin = "{0, 4}";
type = Corner;
name = "_corner-bdc";
}
);
layerId = "9372F035-DA38-4B54-966C-CEBA9B53DD02";
paths = (
{
closed = 1;
nodes = (
"334 710 LINE",
"40 242 LINE",
"40 219 LINE",
"276 219 LINE",
"276 0 LINE",
"346 0 LINE",
"346 219 LINE",
"480 219 LINE",
"480 251 LINE",
"346 251 LINE",
"346 710 LINE"
);
},
{
closed = 1;
nodes = (
"276 251 LINE",
"76 251 LINE",
"275 568 LINE"
);
}
);
width = 540;
},
{
associatedMasterId = "9372F035-DA38-4B54-966C-CEBA9B53DD02";
background = {
paths = (
{
closed = 1;
nodes = (
"356 710 OFFCURVE",
"347 713 OFFCURVE",
"339 703 CURVE",
"30 242 LINE",
"30 222 LINE",
"266 222 LINE",
"266 0 LINE",
"356 0 LINE",
"356 222 LINE",
"490 222 LINE",
"490 242 LINE",
"356 242 LINE",
"356 700 LINE"
);
}
);
};
backgroundImage = {
crop = "{{1548.519, 1244.074}, {222.222, 366.667}}";
imagePath = "../../1878 Limprimerie Berger Levrault Notice historique/Romain/JACOB-notice-187522.jpg";
locked = "1";
transform = "{2.7, 0, 0, 2.7, -4231, -3622}";
};
hints = (
{
origin = "{0, 5}";
scale = "{1, -1}";
type = Corner;
name = "_corner-bdc";
options = 1;
},
{
origin = "{0, 4}";
type = Corner;
name = "_corner-bdc";
}
);
layerId = "96C70FD4-32BB-44A7-BFFB-954A20F34F86";
name = "Oct 17 17, 11:54";
paths = (
{
closed = 1;
nodes = (
"344 710 LINE",
"30 242 LINE",
"30 222 LINE",
"266 222 LINE",
"266 0 LINE",
"356 0 LINE",
"356 222 LINE",
"490 222 LINE",
"490 242 LINE",
"356 242 LINE",
"356 710 LINE"
);
},
{
closed = 1;
nodes = (
"266 242 LINE",
"47 242 LINE",
"44 226 LINE",
"290 588 LINE",
"266 580 LINE"
);
}
);
width = 550;
},
{
layerId = "E6B8952F-D64A-490A-9CF5-6DF985D88222";
paths = (
{
closed = 1;
nodes = (
"55 242 LINE",
"260 242 LINE",
"381 573 LINE"
);
},
{
closed = 1;
nodes = (
"253 222 LINE",
"17 222 LINE",
"24 242 LINE",
"488 710 LINE",
"500 710 LINE",
"330 242 LINE",
"464 242 LINE",
"457 222 LINE",
"323 222 LINE",
"286 121 LINE SMOOTH",
"253 31 OFFCURVE",
"266 29 OFFCURVE",
"322 22 CURVE SMOOTH",
"337 20 LINE",
"328 -3 LINE",
"207 0 LINE",
"84 -3 LINE",
"92 20 LINE",
"108 22 LINE SMOOTH",
"169 30 OFFCURVE",
"184 31 OFFCURVE",
"216 121 CURVE SMOOTH"
);
}
);
width = 496;
},
{
associatedMasterId = "9372F035-DA38-4B54-966C-CEBA9B53DD02";
background = {
paths = (
{
closed = 1;
nodes = (
"354 710 LINE",
"40 242 LINE",
"40 222 LINE",
"276 222 LINE",
"276 0 LINE",
"366 0 LINE",
"366 222 LINE",
"500 222 LINE",
"500 242 LINE",
"366 242 LINE",
"366 710 LINE"
);
},
{
closed = 1;
nodes = (
"276 242 LINE",
"57 242 LINE",
"54 226 LINE",
"300 588 LINE",
"276 580 LINE"
);
}
);
};
backgroundImage = {
crop = "{{1548.519, 1244.074}, {222.222, 366.667}}";
imagePath = "../../1878 Limprimerie Berger Levrault Notice historique/Romain/JACOB-notice-187522.jpg";
locked = "1";
transform = "{2.7, 0, 0, 2.7, -4221, -3622}";
};
hints = (
{
origin = "{0, 5}";
scale = "{1, -1}";
type = Corner;
name = "_corner-bdc";
options = 1;
},
{
origin = "{0, 4}";
type = Corner;
name = "_corner-bdc";
}
);
layerId = "508C3F73-4C6D-439B-BA11-C64FDCFAA8BE";
name = "Oct 17 17, 14:15";
paths = (
{
closed = 1;
nodes = (
"334 710 LINE",
"40 242 LINE",
"40 222 LINE",
"276 222 LINE",
"276 0 LINE",
"346 0 LINE",
"346 222 LINE",
"480 222 LINE",
"480 242 LINE",
"346 242 LINE",
"346 710 LINE"
);
},
{
closed = 1;
nodes = (
"276 242 LINE",
"64 242 LINE",
"276 580 LINE"
);
}
);
width = 540;
},
{
associatedMasterId = "E6B8952F-D64A-490A-9CF5-6DF985D88222";
layerId = "9BE9485E-9A39-4C62-9FF5-C0DD3E9E4746";
name = "Oct 17 17, 15:57";
paths = (
{
closed = 1;
nodes = (
"48 242 LINE",
"260 242 LINE",
"383 580 LINE"
);
},
{
closed = 1;
nodes = (
"253 222 LINE",
"17 222 LINE",
"24 242 LINE",
"488 710 LINE",
"500 710 LINE",
"330 242 LINE",
"464 242 LINE",
"457 222 LINE",
"323 222 LINE",
"286 121 LINE SMOOTH",
"253 31 OFFCURVE",
"266 29 OFFCURVE",
"322 22 CURVE SMOOTH",
"337 20 LINE",
"328 -3 LINE",
"207 0 LINE",
"84 -3 LINE",
"92 20 LINE",
"108 22 LINE SMOOTH",
"169 30 OFFCURVE",
"184 31 OFFCURVE",
"216 121 CURVE SMOOTH"
);
}
);
visible = 1;
width = 496;
}
);
unicode = 0034;
},
{
color = 0;
glyphname = five;
lastChange = "2017-10-19 12:14:04 +0000";
layers = (
{
backgroundImage = {
crop = "{{1635.926, 1082.222}, {258.889, 366.667}}";
imagePath = "../../1878 Limprimerie Berger Levrault Notice historique/Romain/JACOB-notice-187524.jpg";
locked = "1";
transform = "{2.7, 0, 0, 2.7, -4542, -3187}";
};
guideLines = (
{
angle = 86;
position = "{218, 436}";
},
{
angle = 86;
position = "{99, 367}";
}
);
layerId = "9372F035-DA38-4B54-966C-CEBA9B53DD02";
paths = (
{
closed = 1;
nodes = (
"294 -10 OFFCURVE",
"413 99 OFFCURVE",
"413 258 CURVE SMOOTH",
"413 374 OFFCURVE",
"328 454 OFFCURVE",
"233 454 CURVE SMOOTH",
"167 454 OFFCURVE",
"116 424 OFFCURVE",
"101 386 CURVE",
"95 367 LINE",
"117 366 LINE",
"133 406 OFFCURVE",
"171 424 OFFCURVE",
"219 424 CURVE SMOOTH",
"284 424 OFFCURVE",
"330 374 OFFCURVE",
"330 257 CURVE SMOOTH",
"330 105 OFFCURVE",
"279 20 OFFCURVE",
"166 20 CURVE SMOOTH",
"120 20 OFFCURVE",
"102 39 OFFCURVE",
"96 61 CURVE SMOOTH",
"94 68 OFFCURVE",
"100 76 OFFCURVE",
"100 94 CURVE SMOOTH",
"100 114 OFFCURVE",
"83 131 OFFCURVE",
"64 131 CURVE SMOOTH",
"39 131 OFFCURVE",
"26 108 OFFCURVE",
"26 85 CURVE SMOOTH",
"26 42 OFFCURVE",
"65 -10 OFFCURVE",
"159 -10 CURVE SMOOTH"
);
},
{
closed = 1;
nodes = (
"89 367 LINE",
"117 366 LINE",
"144 718 LINE",
"114 719 LINE"
);
},
{
closed = 1;
nodes = (
"270 609 LINE SMOOTH",
"365 613 OFFCURVE",
"389 638 OFFCURVE",
"406 720 CURVE",
"381 701 OFFCURVE",
"318 697 OFFCURVE",
"276 695 CURVE SMOOTH",
"127 688 LINE",
"121 602 LINE"
);
}
);
width = 454;
},
{
associatedMasterId = "9372F035-DA38-4B54-966C-CEBA9B53DD02";
backgroundImage = {
crop = "{{1635.926, 1082.222}, {258.889, 366.667}}";
imagePath = "../../../../1878 Limprimerie Berger Levrault Notice historique/Romain/JACOB-notice-187524.jpg";
locked = "1";
transform = "{2.7, 0, 0, 2.7, -4542, -3187}";
};
layerId = "1710717F-5F7B-423D-9105-4DE92A9FDE94";
name = "Oct 16 17, 11:23";
paths = (
{
closed = 1;
nodes = (
"288 -5 OFFCURVE",
"396 109 OFFCURVE",
"412 239 CURVE SMOOTH",
"428 365 OFFCURVE",
"349 465 OFFCURVE",
"229 465 CURVE SMOOTH",
"200 465 OFFCURVE",
"173 459 OFFCURVE",
"151 424 CURVE",
"147 366 LINE",
"147 416 OFFCURVE",
"182 440 OFFCURVE",
"213 440 CURVE",
"301 440 OFFCURVE",
"343 379 OFFCURVE",
"328 239 CURVE SMOOTH",
"313 99 OFFCURVE",
"248 18 OFFCURVE",
"160 18 CURVE",
"91 18 OFFCURVE",
"104 89 OFFCURVE",
"71 89 CURVE SMOOTH",
"51 89 OFFCURVE",
"40 78 OFFCURVE",
"40 61 CURVE SMOOTH",
"40 23 OFFCURVE",
"96 -5 OFFCURVE",
"160 -5 CURVE SMOOTH"
);
},
{
closed = 1;
nodes = (
"129 367 LINE",
"147 366 LINE",
"163 598 LINE",
"173 675 LINE",
"153 700 LINE"
);
},
{
closed = 1;
nodes = (
"258 602 LINE SMOOTH",
"323 606 OFFCURVE",
"345 650 OFFCURVE",
"350 697 CURVE SMOOTH",
"351 706 OFFCURVE",
"349 712 OFFCURVE",
"342 707 CURVE SMOOTH",
"289 671 OFFCURVE",
"231 675 OFFCURVE",
"173 675 CURVE SMOOTH",
"166 675 LINE",
"159 596 LINE"
);
}
);
width = 454;
},
{
associatedMasterId = "9372F035-DA38-4B54-966C-CEBA9B53DD02";
backgroundImage = {
crop = "{{1635.926, 1082.222}, {258.889, 366.667}}";
imagePath = "../../../../1878 Limprimerie Berger Levrault Notice historique/Romain/JACOB-notice-187524.jpg";
locked = "1";
transform = "{2.7, 0, 0, 2.7, -4542, -3187}";
};
guideLines = (
{
angle = 83;
position = "{412, 239}";
},
{
angle = 262.9244;
position = "{238, 602}";
},
{
angle = 83;
position = "{328, 239}";
},
{
angle = 83;
position = "{99, 367}";
}
);
layerId = "8D2F6C0D-CA20-43F9-9222-33E4020A32D5";
name = "Oct 16 17, 12:08";
paths = (
{
closed = 1;
nodes = (
"290 -10 OFFCURVE",
"396 109 OFFCURVE",
"412 239 CURVE SMOOTH",
"428 365 OFFCURVE",
"341 465 OFFCURVE",
"221 465 CURVE SMOOTH",
"192 465 OFFCURVE",
"133 451 OFFCURVE",
"111 416 CURVE",
"105 367 LINE",
"117 366 LINE",
"124 419 OFFCURVE",
"187 440 OFFCURVE",
"218 440 CURVE SMOOTH",
"306 440 OFFCURVE",
"345 379 OFFCURVE",
"328 239 CURVE SMOOTH",
"311 99 OFFCURVE",
"244 20 OFFCURVE",
"166 20 CURVE SMOOTH",
"87 20 OFFCURVE",
"104 99 OFFCURVE",
"71 99 CURVE SMOOTH",
"46 99 OFFCURVE",
"30 84 OFFCURVE",
"30 61 CURVE SMOOTH",
"30 18 OFFCURVE",
"66 -10 OFFCURVE",
"162 -10 CURVE SMOOTH"
);
},
{
closed = 1;
nodes = (
"99 367 LINE",
"117 366 LINE",
"162 718 LINE",
"142 719 LINE"
);
},
{
closed = 1;
nodes = (
"240 622 LINE SMOOTH",
"315 622 OFFCURVE",
"369 648 OFFCURVE",
"376 720 CURVE",
"342 697 OFFCURVE",
"292 700 OFFCURVE",
"250 700 CURVE SMOOTH",
"148 700 LINE",
"138 622 LINE"
);
}
);
width = 454;
},
{
associatedMasterId = "9372F035-DA38-4B54-966C-CEBA9B53DD02";
backgroundImage = {
crop = "{{1635.926, 1082.222}, {258.889, 366.667}}";
imagePath = "../../../../1878 Limprimerie Berger Levrault Notice historique/Romain/JACOB-notice-187524.jpg";
locked = "1";
transform = "{2.7, 0, 0, 2.7, -4542, -3187}";
};
guideLines = (
{
angle = 83;
position = "{412, 239}";
},
{
angle = 262.9244;
position = "{238, 602}";
},
{
angle = 83;
position = "{328, 239}";
},
{
angle = 83;
position = "{99, 367}";
}
);
layerId = "16E3071D-E1E4-403E-842F-648A0131111F";
name = "Oct 16 17, 12:23";
paths = (
{
closed = 1;
nodes = (
"290 -10 OFFCURVE",
"396 109 OFFCURVE",
"412 239 CURVE SMOOTH",
"428 365 OFFCURVE",
"341 465 OFFCURVE",
"221 465 CURVE SMOOTH",
"192 465 OFFCURVE",
"133 451 OFFCURVE",
"111 416 CURVE",
"105 367 LINE",
"117 366 LINE",
"124 419 OFFCURVE",
"187 440 OFFCURVE",
"218 440 CURVE SMOOTH",
"306 440 OFFCURVE",
"345 379 OFFCURVE",
"328 239 CURVE SMOOTH",
"311 99 OFFCURVE",
"244 20 OFFCURVE",
"166 20 CURVE SMOOTH",
"87 20 OFFCURVE",
"104 99 OFFCURVE",
"71 99 CURVE SMOOTH",
"46 99 OFFCURVE",
"30 84 OFFCURVE",
"30 61 CURVE SMOOTH",
"30 18 OFFCURVE",
"66 -10 OFFCURVE",
"162 -10 CURVE SMOOTH"
);
},
{
closed = 1;
nodes = (
"99 367 LINE",
"117 366 LINE",
"162 718 LINE",
"142 719 LINE"
);
},
{
closed = 1;
nodes = (
"240 612 LINE SMOOTH",
"315 619 OFFCURVE",
"369 648 OFFCURVE",
"376 720 CURVE",
"342 697 OFFCURVE",
"292 699 OFFCURVE",
"250 695 CURVE SMOOTH",
"148 685 LINE",
"138 602 LINE"
);
}
);
width = 454;
},
{
associatedMasterId = "9372F035-DA38-4B54-966C-CEBA9B53DD02";
backgroundImage = {
crop = "{{1635.926, 1082.222}, {258.889, 366.667}}";
imagePath = "../../1878 Limprimerie Berger Levrault Notice historique/Romain/JACOB-notice-187524.jpg";
locked = "1";
transform = "{2.7, 0, 0, 2.7, -4542, -3187}";
};
guideLines = (
{
angle = 86;
position = "{412, 239}";
},
{
angle = 86;
position = "{218, 436}";
},
{
angle = 86;
position = "{328, 239}";
},
{
angle = 86;
position = "{105, 367}";
}
);
layerId = "4DFE8D87-2D22-4A62-BDA6-AB70F236CDC3";
name = "Oct 17 17, 12:06";
paths = (
{
closed = 1;
nodes = (
"290 -10 OFFCURVE",
"403 109 OFFCURVE",
"412 239 CURVE SMOOTH",
"421 365 OFFCURVE",
"339 454 OFFCURVE",
"219 454 CURVE SMOOTH",
"190 454 OFFCURVE",
"111 446 OFFCURVE",
"106 386 CURVE",
"105 367 LINE",
"117 366 LINE",
"124 419 OFFCURVE",
"186 424 OFFCURVE",
"217 424 CURVE SMOOTH",
"305 424 OFFCURVE",
"338 379 OFFCURVE",
"328 239 CURVE SMOOTH",
"318 97 OFFCURVE",
"244 20 OFFCURVE",
"166 20 CURVE SMOOTH",
"87 20 OFFCURVE",
"104 99 OFFCURVE",
"71 99 CURVE SMOOTH",
"46 99 OFFCURVE",
"30 84 OFFCURVE",
"30 61 CURVE SMOOTH",
"30 18 OFFCURVE",
"66 -10 OFFCURVE",
"162 -10 CURVE SMOOTH"
);
},
{
closed = 1;
nodes = (
"99 367 LINE",
"117 366 LINE",
"144 718 LINE",
"124 719 LINE"
);
},
{
closed = 1;
nodes = (
"240 609 LINE SMOOTH",
"335 615 OFFCURVE",
"359 638 OFFCURVE",
"376 720 CURVE",
"351 701 OFFCURVE",
"288 697 OFFCURVE",
"246 695 CURVE SMOOTH",
"127 688 LINE",
"121 602 LINE"
);
}
);
width = 454;
},
{
layerId = "E6B8952F-D64A-490A-9CF5-6DF985D88222";
paths = (
{
closed = 1;
nodes = (
"192 -10 OFFCURVE",
"348 109 OFFCURVE",
"405 239 CURVE SMOOTH",
"460 365 OFFCURVE",
"410 454 OFFCURVE",
"320 454 CURVE SMOOTH",
"251 454 OFFCURVE",
"181 424 OFFCURVE",
"152 386 CURVE",
"144 367 LINE",
"156 366 LINE",
"187 406 OFFCURVE",
"236 424 OFFCURVE",
"307 424 CURVE SMOOTH",
"365 424 OFFCURVE",
"382 379 OFFCURVE",
"321 239 CURVE SMOOTH",
"259 97 OFFCURVE",
"157 20 OFFCURVE",
"79 20 CURVE SMOOTH",
"0 20 OFFCURVE",
"46 99 OFFCURVE",
"13 99 CURVE SMOOTH",
"-12 99 OFFCURVE",
"-34 84 OFFCURVE",
"-42 61 CURVE SMOOTH",
"-58 18 OFFCURVE",
"-32 -10 OFFCURVE",
"64 -10 CURVE SMOOTH"
);
},
{
closed = 1;
nodes = (
"138 367 LINE",
"156 366 LINE",
"311 718 LINE",
"291 719 LINE"
);
},
{
closed = 1;
nodes = (
"397 609 LINE SMOOTH",
"494 613 OFFCURVE",
"527 638 OFFCURVE",
"574 720 CURVE",
"542 701 OFFCURVE",
"477 697 OFFCURVE",
"435 695 CURVE SMOOTH",
"283 688 LINE",
"246 602 LINE"
);
}
);
width = 448;
},
{
associatedMasterId = "9372F035-DA38-4B54-966C-CEBA9B53DD02";
backgroundImage = {
crop = "{{1635.926, 1082.222}, {258.889, 366.667}}";
imagePath = "../../1878 Limprimerie Berger Levrault Notice historique/Romain/JACOB-notice-187524.jpg";
locked = "1";
transform = "{2.7, 0, 0, 2.7, -4542, -3187}";
};
guideLines = (
{
angle = 86;
position = "{412, 239}";
},
{
angle = 86;
position = "{218, 436}";
},
{
angle = 86;
position = "{328, 239}";
},
{
angle = 86;
position = "{99, 367}";
}
);
layerId = "58152711-C4F4-4924-88DA-74C9DB89BF49";
name = "Oct 19 17, 12:22";
paths = (
{
closed = 1;
nodes = (
"290 -10 OFFCURVE",
"403 109 OFFCURVE",
"412 239 CURVE SMOOTH",
"421 365 OFFCURVE",
"339 454 OFFCURVE",
"249 454 CURVE SMOOTH",
"180 454 OFFCURVE",
"116 424 OFFCURVE",
"101 386 CURVE",
"95 367 LINE",
"117 366 LINE",
"133 406 OFFCURVE",
"176 424 OFFCURVE",
"247 424 CURVE SMOOTH",
"305 424 OFFCURVE",
"338 379 OFFCURVE",
"328 239 CURVE SMOOTH",
"318 97 OFFCURVE",
"244 20 OFFCURVE",
"166 20 CURVE SMOOTH",
"87 20 OFFCURVE",
"104 99 OFFCURVE",
"71 99 CURVE SMOOTH",
"46 99 OFFCURVE",
"30 84 OFFCURVE",
"30 61 CURVE SMOOTH",
"30 18 OFFCURVE",
"66 -10 OFFCURVE",
"162 -10 CURVE SMOOTH"
);
},
{
closed = 1;
nodes = (
"89 367 LINE",
"117 366 LINE",
"144 718 LINE",
"114 719 LINE"
);
},
{
closed = 1;
nodes = (
"270 609 LINE SMOOTH",
"365 613 OFFCURVE",
"389 638 OFFCURVE",
"406 720 CURVE",
"381 701 OFFCURVE",
"318 697 OFFCURVE",
"276 695 CURVE SMOOTH",
"127 688 LINE",
"121 602 LINE"
);
}
);
width = 454;
}
);
unicode = 0035;
},
{
glyphname = six;
lastChange = "2017-10-19 12:06:15 +0000";
layers = (
{
backgroundImage = {
crop = "{{1642.222, 1018.148}, {222.222, 366.667}}";
imagePath = "../../1878 Limprimerie Berger Levrault Notice historique/Romain/JACOB-notice-187532.jpg";
locked = "1";
transform = "{2.7, 0, 0, 2.7, -4459, -3029}";
};
layerId = "9372F035-DA38-4B54-966C-CEBA9B53DD02";
paths = (
{
closed = 1;
nodes = (
"133 720 OFFCURVE",
"55 495 OFFCURVE",
"48 295 CURVE SMOOTH",
"41 95 OFFCURVE",
"127 -10 OFFCURVE",
"247 -10 CURVE SMOOTH",
"367 -10 OFFCURVE",
"456 88 OFFCURVE",
"460 222 CURVE SMOOTH",
"465 356 OFFCURVE",
"383 454 OFFCURVE",
"263 454 CURVE SMOOTH",
"163 454 OFFCURVE",
"113 366 OFFCURVE",
"97 279 CURVE",
"111 264 LINE",
"132 351 OFFCURVE",
"184 424 OFFCURVE",
"262 424 CURVE SMOOTH",
"340 424 OFFCURVE",
"385 351 OFFCURVE",
"380 222 CURVE SMOOTH",
"376 93 OFFCURVE",
"326 20 OFFCURVE",
"248 20 CURVE SMOOTH",
"170 20 OFFCURVE",
"121 93 OFFCURVE",
"125 222 CURVE SMOOTH",
"129 330 LINE SMOOTH",
"136 538 OFFCURVE",
"197 696 OFFCURVE",
"302 696 CURVE SMOOTH",
"348 696 OFFCURVE",
"365 677 OFFCURVE",
"370 655 CURVE SMOOTH",
"372 648 OFFCURVE",
"366 640 OFFCURVE",
"365 622 CURVE SMOOTH",
"365 602 OFFCURVE",
"381 585 OFFCURVE",
"400 585 CURVE SMOOTH",
"425 585 OFFCURVE",
"439 608 OFFCURVE",
"440 631 CURVE SMOOTH",
"441 674 OFFCURVE",
"393 720 OFFCURVE",
"313 720 CURVE SMOOTH"
);
}
);
width = 515;
},
{
layerId = "E6B8952F-D64A-490A-9CF5-6DF985D88222";
paths = (
{
closed = 1;
nodes = (
"369 696 OFFCURVE",
"257 538 OFFCURVE",
"181 330 CURVE SMOOTH",
"142 222 LINE SMOOTH",
"95 93 OFFCURVE",
"120 20 OFFCURVE",
"198 20 CURVE SMOOTH",
"276 20 OFFCURVE",
"350 93 OFFCURVE",
"397 222 CURVE SMOOTH",
"444 351 OFFCURVE",
"423 424 OFFCURVE",
"345 424 CURVE SMOOTH",
"267 424 OFFCURVE",
"189 351 OFFCURVE",
"142 222 CURVE",
"112 222 LINE",
"160 356 OFFCURVE",
"256 454 OFFCURVE",
"356 454 CURVE SMOOTH",
"476 454 OFFCURVE",
"525 356 OFFCURVE",
"477 222 CURVE SMOOTH",
"428 88 OFFCURVE",
"307 -10 OFFCURVE",
"187 -10 CURVE SMOOTH",
"67 -10 OFFCURVE",
"15 95 OFFCURVE",
"88 295 CURVE SMOOTH",
"161 495 OFFCURVE",
"313 720 OFFCURVE",
"493 720 CURVE SMOOTH",
"593 720 OFFCURVE",
"587 681 OFFCURVE",
"578 657 CURVE SMOOTH",
"569 633 OFFCURVE",
"541 620 OFFCURVE",
"522 620 CURVE SMOOTH",
"490 620 OFFCURVE",
"519 696 OFFCURVE",
"474 696 CURVE SMOOTH"
);
}
);
width = 531;
},
{
associatedMasterId = "9372F035-DA38-4B54-966C-CEBA9B53DD02";
backgroundImage = {
crop = "{{1642.222, 1018.148}, {222.222, 366.667}}";
imagePath = "../../1878 Limprimerie Berger Levrault Notice historique/Romain/JACOB-notice-187532.jpg";
locked = "1";
transform = "{2.7, 0, 0, 2.7, -4459, -3029}";
};
layerId = "6E89150A-E72A-4564-81A7-A9291D9375D5";
name = "Oct 18 17, 15:07";
paths = (
{
closed = 1;
nodes = (
"185 696 OFFCURVE",
"130 538 OFFCURVE",
"130 330 CURVE SMOOTH",
"130 222 LINE SMOOTH",
"130 93 OFFCURVE",
"182 20 OFFCURVE",
"260 20 CURVE SMOOTH",
"338 20 OFFCURVE",
"385 93 OFFCURVE",
"385 222 CURVE SMOOTH",
"385 351 OFFCURVE",
"338 424 OFFCURVE",
"260 424 CURVE SMOOTH",
"182 424 OFFCURVE",
"130 351 OFFCURVE",
"130 222 CURVE",
"93 237 LINE",
"93 371 OFFCURVE",
"160 454 OFFCURVE",
"260 454 CURVE SMOOTH",
"380 454 OFFCURVE",
"465 356 OFFCURVE",
"465 222 CURVE SMOOTH",
"465 88 OFFCURVE",
"380 -10 OFFCURVE",
"260 -10 CURVE SMOOTH",
"140 -10 OFFCURVE",
"50 95 OFFCURVE",
"50 295 CURVE SMOOTH",
"50 495 OFFCURVE",
"120 720 OFFCURVE",
"300 720 CURVE SMOOTH",
"400 720 OFFCURVE",
"408 681 OFFCURVE",
"408 657 CURVE SMOOTH",
"408 633 OFFCURVE",
"385 620 OFFCURVE",
"366 620 CURVE SMOOTH",
"334 620 OFFCURVE",
"335 696 OFFCURVE",
"290 696 CURVE SMOOTH"
);
}
);
width = 515;
},
{
associatedMasterId = "9372F035-DA38-4B54-966C-CEBA9B53DD02";
backgroundImage = {
crop = "{{1642.222, 1018.148}, {222.222, 366.667}}";
imagePath = "../../1878 Limprimerie Berger Levrault Notice historique/Romain/JACOB-notice-187532.jpg";
locked = "1";
transform = "{2.7, 0, 0, 2.7, -4459, -3029}";
};
layerId = "F77D03D3-707F-4F18-A4CF-2007DD9D4E85";
name = "Oct 18 17, 15:10";
paths = (
{
closed = 1;
nodes = (
"185 696 OFFCURVE",
"126 538 OFFCURVE",
"130 330 CURVE SMOOTH",
"132 222 LINE SMOOTH",
"134 93 OFFCURVE",
"182 20 OFFCURVE",
"260 20 CURVE SMOOTH",
"338 20 OFFCURVE",
"382 93 OFFCURVE",
"382 222 CURVE SMOOTH",
"382 351 OFFCURVE",
"338 424 OFFCURVE",
"260 424 CURVE SMOOTH",
"182 424 OFFCURVE",
"132 351 OFFCURVE",
"114 264 CURVE",
"100 279 LINE",
"113 366 OFFCURVE",
"160 454 OFFCURVE",
"260 454 CURVE SMOOTH",
"380 454 OFFCURVE",
"465 356 OFFCURVE",
"465 222 CURVE SMOOTH",
"465 88 OFFCURVE",
"380 -10 OFFCURVE",
"260 -10 CURVE SMOOTH",
"140 -10 OFFCURVE",
"50 95 OFFCURVE",
"50 295 CURVE SMOOTH",
"50 495 OFFCURVE",
"120 720 OFFCURVE",
"300 720 CURVE SMOOTH",
"400 720 OFFCURVE",
"408 681 OFFCURVE",
"408 657 CURVE SMOOTH",
"408 633 OFFCURVE",
"385 620 OFFCURVE",
"366 620 CURVE SMOOTH",
"334 620 OFFCURVE",
"335 696 OFFCURVE",
"290 696 CURVE SMOOTH"
);
}
);
width = 515;
},
{
associatedMasterId = "9372F035-DA38-4B54-966C-CEBA9B53DD02";
backgroundImage = {
crop = "{{1642.222, 1018.148}, {222.222, 366.667}}";
imagePath = "../../1878 Limprimerie Berger Levrault Notice historique/Romain/JACOB-notice-187532.jpg";
locked = "1";
transform = "{2.7, 0, 0, 2.7, -4459, -3029}";
};
layerId = "4A48F7DF-EE26-40E9-8270-7C8A51BE9ABD";
name = "Oct 18 17, 15:17";
paths = (
{
closed = 1;
nodes = (
"185 696 OFFCURVE",
"126 538 OFFCURVE",
"130 330 CURVE SMOOTH",
"132 222 LINE SMOOTH",
"134 93 OFFCURVE",
"182 20 OFFCURVE",
"260 20 CURVE SMOOTH",
"338 20 OFFCURVE",
"382 93 OFFCURVE",
"382 222 CURVE SMOOTH",
"382 351 OFFCURVE",
"338 424 OFFCURVE",
"260 424 CURVE SMOOTH",
"182 424 OFFCURVE",
"132 351 OFFCURVE",
"114 264 CURVE",
"100 279 LINE",
"113 366 OFFCURVE",
"160 454 OFFCURVE",
"260 454 CURVE SMOOTH",
"380 454 OFFCURVE",
"465 356 OFFCURVE",
"465 222 CURVE SMOOTH",
"465 88 OFFCURVE",
"380 -10 OFFCURVE",
"260 -10 CURVE SMOOTH",
"140 -10 OFFCURVE",
"50 95 OFFCURVE",
"50 295 CURVE SMOOTH",
"50 495 OFFCURVE",
"120 720 OFFCURVE",
"300 720 CURVE SMOOTH",
"400 720 OFFCURVE",
"408 681 OFFCURVE",
"408 657 CURVE SMOOTH",
"408 633 OFFCURVE",
"385 620 OFFCURVE",
"366 620 CURVE SMOOTH",
"334 620 OFFCURVE",
"335 696 OFFCURVE",
"290 696 CURVE SMOOTH"
);
}
);
width = 515;
},
{
associatedMasterId = "9372F035-DA38-4B54-966C-CEBA9B53DD02";
backgroundImage = {
crop = "{{1642.222, 1018.148}, {222.222, 366.667}}";
imagePath = "../../1878 Limprimerie Berger Levrault Notice historique/Romain/JACOB-notice-187532.jpg";
locked = "1";
transform = "{2.7, 0, 0, 2.7, -4459, -3029}";
};
layerId = "59F8C279-3B87-4289-900C-49B132859B89";
name = "Oct 19 17, 12:25";
paths = (
{
closed = 1;
nodes = (
"185 696 OFFCURVE",
"130 538 OFFCURVE",
"130 330 CURVE SMOOTH",
"130 222 LINE SMOOTH",
"130 93 OFFCURVE",
"182 20 OFFCURVE",
"260 20 CURVE SMOOTH",
"338 20 OFFCURVE",
"385 93 OFFCURVE",
"385 222 CURVE SMOOTH",
"385 351 OFFCURVE",
"338 424 OFFCURVE",
"260 424 CURVE SMOOTH",
"182 424 OFFCURVE",
"132 351 OFFCURVE",
"114 264 CURVE",
"100 279 LINE",
"113 366 OFFCURVE",
"160 454 OFFCURVE",
"260 454 CURVE SMOOTH",
"380 454 OFFCURVE",
"465 356 OFFCURVE",
"465 222 CURVE SMOOTH",
"465 88 OFFCURVE",
"380 -10 OFFCURVE",
"260 -10 CURVE SMOOTH",
"140 -10 OFFCURVE",
"50 95 OFFCURVE",
"50 295 CURVE SMOOTH",
"50 495 OFFCURVE",
"120 720 OFFCURVE",
"300 720 CURVE SMOOTH",
"400 720 OFFCURVE",
"408 681 OFFCURVE",
"408 657 CURVE SMOOTH",
"408 633 OFFCURVE",
"385 620 OFFCURVE",
"366 620 CURVE SMOOTH",
"334 620 OFFCURVE",
"335 696 OFFCURVE",
"290 696 CURVE SMOOTH"
);
}
);
width = 515;
},
{
associatedMasterId = "9372F035-DA38-4B54-966C-CEBA9B53DD02";
backgroundImage = {
crop = "{{1642.222, 1018.148}, {222.222, 366.667}}";
imagePath = "../../1878 Limprimerie Berger Levrault Notice historique/Romain/JACOB-notice-187532.jpg";
locked = "1";
transform = "{2.7, 0, 0, 2.7, -4459, -3029}";
};
layerId = "D876240B-EAD5-4CA5-BFB8-712753EAD0E6";
name = "Oct 19 17, 12:27";
paths = (
{
closed = 1;
nodes = (
"120 720 OFFCURVE",
"50 495 OFFCURVE",
"50 295 CURVE SMOOTH",
"50 95 OFFCURVE",
"140 -10 OFFCURVE",
"260 -10 CURVE SMOOTH",
"380 -10 OFFCURVE",
"465 88 OFFCURVE",
"465 222 CURVE SMOOTH",
"465 356 OFFCURVE",
"380 454 OFFCURVE",
"260 454 CURVE SMOOTH",
"160 454 OFFCURVE",
"113 366 OFFCURVE",
"100 279 CURVE",
"114 264 LINE",
"132 351 OFFCURVE",
"182 424 OFFCURVE",
"260 424 CURVE SMOOTH",
"338 424 OFFCURVE",
"385 351 OFFCURVE",
"385 222 CURVE SMOOTH",
"385 93 OFFCURVE",
"338 20 OFFCURVE",
"260 20 CURVE SMOOTH",
"182 20 OFFCURVE",
"130 93 OFFCURVE",
"130 222 CURVE SMOOTH",
"130 330 LINE SMOOTH",
"130 538 OFFCURVE",
"185 696 OFFCURVE",
"290 696 CURVE SMOOTH",
"336 696 OFFCURVE",
"354 677 OFFCURVE",
"360 655 CURVE SMOOTH",
"362 648 OFFCURVE",
"356 640 OFFCURVE",
"356 622 CURVE SMOOTH",
"356 602 OFFCURVE",
"373 585 OFFCURVE",
"392 585 CURVE SMOOTH",
"417 585 OFFCURVE",
"430 608 OFFCURVE",
"430 631 CURVE SMOOTH",
"430 674 OFFCURVE",
"380 720 OFFCURVE",
"300 720 CURVE SMOOTH"
);
}
);
width = 515;
}
);
unicode = 0036;
},
{
color = 0;
glyphname = seven;
lastChange = "2017-10-19 10:16:49 +0000";
layers = (
{
background = {
paths = (
{
closed = 1;
nodes = (
"68 440 LINE",
"68 510 LINE",
"45 510 LINE",
"45 258 LINE",
"68 258 LINE",
"68 358 LINE",
"383 358 LINE",
"399 428 LINE",
"150 -215 LINE SMOOTH",
"129 -270 OFFCURVE",
"133 -312 OFFCURVE",
"167 -312 CURVE SMOOTH",
"177 -312 OFFCURVE",
"205 -300 OFFCURVE",
"220 -249 CURVE SMOOTH",
"428 440 LINE"
);
}
);
};
guideLines = (
{
position = "{-1807, 283}";
}
);
layerId = "9372F035-DA38-4B54-966C-CEBA9B53DD02";
paths = (
{
closed = 1;
nodes = (
"429 450 LINE",
"67 450 LINE",
"67 520 LINE",
"45 520 LINE",
"45 268 LINE",
"67 268 LINE",
"67 368 LINE",
"383 368 LINE",
"393 438 LINE",
"144 -205 LINE SMOOTH",
"123 -260 OFFCURVE",
"133 -302 OFFCURVE",
"167 -302 CURVE SMOOTH",
"187 -302 OFFCURVE",
"211 -290 OFFCURVE",
"226 -239 CURVE SMOOTH",
"429 434 LINE"
);
}
);
width = 488;
},
{
associatedMasterId = "9372F035-DA38-4B54-966C-CEBA9B53DD02";
background = {
paths = (
{
closed = 1;
nodes = (
"54 440 LINE",
"54 510 LINE",
"36 510 LINE",
"36 258 LINE",
"54 258 LINE",
"54 358 LINE",
"369 358 LINE",
"395 440 LINE",
"136 -215 LINE SMOOTH",
"114 -270 OFFCURVE",
"119 -312 OFFCURVE",
"153 -312 CURVE SMOOTH",
"178 -312 OFFCURVE",
"193 -296 OFFCURVE",
"209 -243 CURVE SMOOTH",
"414 440 LINE"
);
}
);
};
layerId = "04677746-CD67-4685-B628-2597F82A9F2A";
name = "Oct 13 17, 15:08";
paths = (
{
closed = 1;
nodes = (
"54 440 LINE",
"54 510 LINE",
"36 510 LINE",
"36 258 LINE",
"54 258 LINE",
"54 358 LINE",
"369 358 LINE",
"395 440 LINE",
"136 -215 LINE SMOOTH",
"114 -270 OFFCURVE",
"119 -312 OFFCURVE",
"153 -312 CURVE SMOOTH",
"163 -312 OFFCURVE",
"179 -302 OFFCURVE",
"199 -252 CURVE SMOOTH",
"231 -175 OFFCURVE",
"280 -7 OFFCURVE",
"390 360 CURVE SMOOTH",
"414 440 LINE"
);
}
);
width = 444;
},
{
layerId = "E6B8952F-D64A-490A-9CF5-6DF985D88222";
paths = (
{
closed = 1;
nodes = (
"154 440 LINE",
"180 510 LINE",
"162 510 LINE",
"70 258 LINE",
"88 258 LINE",
"124 358 LINE",
"439 358 LINE",
"481 428 LINE",
"-2 -215 LINE SMOOTH",
"-43 -270 OFFCURVE",
"-55 -312 OFFCURVE",
"-21 -312 CURVE SMOOTH",
"-11 -312 OFFCURVE",
"22 -300 OFFCURVE",
"55 -249 CURVE SMOOTH",
"514 440 LINE"
);
}
);
width = 488;
},
{
associatedMasterId = "9372F035-DA38-4B54-966C-CEBA9B53DD02";
background = {
paths = (
{
closed = 1;
nodes = (
"68 440 LINE",
"68 510 LINE",
"45 510 LINE",
"45 258 LINE",
"68 258 LINE",
"68 358 LINE",
"383 358 LINE",
"399 428 LINE",
"150 -215 LINE SMOOTH",
"129 -270 OFFCURVE",
"133 -312 OFFCURVE",
"167 -312 CURVE SMOOTH",
"177 -312 OFFCURVE",
"205 -300 OFFCURVE",
"220 -249 CURVE SMOOTH",
"428 440 LINE"
);
}
);
};
guideLines = (
{
position = "{-1807, 283}";
}
);
layerId = "CE91D0DB-40DE-4819-AC3A-CB5CAD25C3D0";
name = "Oct 19 17, 12:16";
paths = (
{
closed = 1;
nodes = (
"424 450 LINE",
"67 450 LINE",
"67 520 LINE",
"45 520 LINE",
"45 268 LINE",
"67 268 LINE",
"67 368 LINE",
"383 368 LINE",
"399 438 LINE",
"144 -205 LINE SMOOTH",
"122 -260 OFFCURVE",
"133 -302 OFFCURVE",
"167 -302 CURVE SMOOTH",
"187 -302 OFFCURVE",
"211 -290 OFFCURVE",
"226 -239 CURVE SMOOTH",
"424 434 LINE"
);
}
);
width = 488;
}
);
unicode = 0037;
},
{
glyphname = eight;
lastChange = "2017-10-19 10:18:25 +0000";
layers = (
{
background = {
components = (
{
name = o;
transform = "{1, 0, 0, 1, -20, 0}";
}
);
};
backgroundImage = {
crop = "{{1538.148, 884.444}, {185.185, 366.667}}";
imagePath = "../../ANRT-Baskerwille/GLYPHS/Master/Glyphs-171013-01/chiffres/JACOB-notice-187525.jpg";
locked = "1";
transform = "{2.646, -0.046, 0.046, 2.646, -4122, -2481}";
};
guideLines = (
{
angle = 90;
position = "{235, 515}";
}
);
layerId = "9372F035-DA38-4B54-966C-CEBA9B53DD02";
paths = (
{
closed = 1;
nodes = (
"215 362 LINE",
"153 308 OFFCURVE",
"78 253 OFFCURVE",
"78 158 CURVE SMOOTH",
"78 86 OFFCURVE",
"131 14 OFFCURVE",
"235 14 CURVE SMOOTH",
"317 14 OFFCURVE",
"380 64 OFFCURVE",
"380 153 CURVE SMOOTH",
"380 217 OFFCURVE",
"315 262 OFFCURVE",
"229 314 CURVE SMOOTH",
"147 372 LINE SMOOTH",
"94 415 OFFCURVE",
"54 472 OFFCURVE",
"54 563 CURVE SMOOTH",
"54 662 OFFCURVE",
"143 724 OFFCURVE",
"234 724 CURVE SMOOTH",
"335 724 OFFCURVE",
"389 657 OFFCURVE",
"389 580 CURVE SMOOTH",
"389 492 OFFCURVE",
"325 437 OFFCURVE",
"270 394 CURVE",
"250 409 LINE",
"293 443 OFFCURVE",
"361 500 OFFCURVE",
"361 575 CURVE SMOOTH",
"361 638 OFFCURVE",
"319 694 OFFCURVE",
"242 694 CURVE SMOOTH",
"173 694 OFFCURVE",
"122 647 OFFCURVE",
"122 580 CURVE SMOOTH",
"122 531 OFFCURVE",
"156 496 OFFCURVE",
"231 454 CURVE SMOOTH",
"312 399 LINE SMOOTH",
"385 343 OFFCURVE",
"440 276 OFFCURVE",
"440 186 CURVE SMOOTH",
"440 74 OFFCURVE",
"359 -14 OFFCURVE",
"235 -14 CURVE SMOOTH",
"104 -14 OFFCURVE",
"50 70 OFFCURVE",
"50 155 CURVE SMOOTH",
"50 263 OFFCURVE",
"127 319 OFFCURVE",
"190 375 CURVE"
);
}
);
width = 490;
},
{
associatedMasterId = "9372F035-DA38-4B54-966C-CEBA9B53DD02";
layerId = "54229142-6325-4BEF-B5C7-A92690552DE7";
name = "Oct 13 17, 14:39";
paths = (
{
closed = 1;
nodes = (
"298 347 LINE",
"298 347 OFFCURVE",
"160 272 OFFCURVE",
"160 147 CURVE SMOOTH",
"160 75 OFFCURVE",
"213 21 OFFCURVE",
"296 21 CURVE SMOOTH",
"338 21 OFFCURVE",
"450 40 OFFCURVE",
"450 153 CURVE SMOOTH",
"450 303 OFFCURVE",
"132 331 OFFCURVE",
"132 557 CURVE SMOOTH",
"132 636 OFFCURVE",
"204 720 OFFCURVE",
"305 720 CURVE SMOOTH",
"392 720 OFFCURVE",
"457 674 OFFCURVE",
"457 585 CURVE SMOOTH",
"457 502 OFFCURVE",
"323 396 OFFCURVE",
"323 396 CURVE",
"318 413 LINE",
"318 413 OFFCURVE",
"434 502 OFFCURVE",
"434 583 CURVE SMOOTH",
"434 657 OFFCURVE",
"363 690 OFFCURVE",
"313 690 CURVE SMOOTH",
"251 690 OFFCURVE",
"203 643 OFFCURVE",
"203 566 CURVE SMOOTH",
"203 416 OFFCURVE",
"512 416 OFFCURVE",
"512 209 CURVE SMOOTH",
"512 58 OFFCURVE",
"398 -10 OFFCURVE",
"306 -10 CURVE SMOOTH",
"204 -10 OFFCURVE",
"135 36 OFFCURVE",
"135 152 CURVE SMOOTH",
"135 272 OFFCURVE",
"291 364 OFFCURVE",
"291 364 CURVE"
);
}
);
width = 600;
},
{
associatedMasterId = "9372F035-DA38-4B54-966C-CEBA9B53DD02";
guideLines = (
{
angle = 90;
position = "{250, -100}";
}
);
layerId = "55AC7368-26CF-4BDA-8755-E2879CD2BE96";
name = "Oct 16 17, 12:26";
paths = (
{
closed = 1;
nodes = (
"240 360 LINE",
"142 298 OFFCURVE",
"75 221 OFFCURVE",
"75 162 CURVE SMOOTH",
"75 68 OFFCURVE",
"143 9 OFFCURVE",
"245 9 CURVE SMOOTH",
"332 9 OFFCURVE",
"390 63 OFFCURVE",
"390 138 CURVE SMOOTH",
"390 183 OFFCURVE",
"340 244 OFFCURVE",
"265 296 CURVE SMOOTH",
"182 354 LINE SMOOTH",
"118 400 OFFCURVE",
"75 477 OFFCURVE",
"75 547 CURVE SMOOTH",
"75 651 OFFCURVE",
"143 720 OFFCURVE",
"246 720 CURVE SMOOTH",
"343 720 OFFCURVE",
"408 658 OFFCURVE",
"408 564 CURVE SMOOTH",
"408 494 OFFCURVE",
"355 416 OFFCURVE",
"275 369 CURVE",
"260 380 LINE",
"334 423 OFFCURVE",
"383 500 OFFCURVE",
"383 574 CURVE SMOOTH",
"383 644 OFFCURVE",
"331 690 OFFCURVE",
"254 690 CURVE SMOOTH",
"183 690 OFFCURVE",
"135 640 OFFCURVE",
"135 581 CURVE SMOOTH",
"135 525 OFFCURVE",
"181 482 OFFCURVE",
"249 435 CURVE SMOOTH",
"333 376 LINE SMOOTH",
"403 327 OFFCURVE",
"450 256 OFFCURVE",
"450 196 CURVE SMOOTH",
"450 74 OFFCURVE",
"372 -10 OFFCURVE",
"255 -10 CURVE SMOOTH",
"132 -10 OFFCURVE",
"50 39 OFFCURVE",
"50 173 CURVE SMOOTH",
"50 239 OFFCURVE",
"120 308 OFFCURVE",
"223 372 CURVE"
);
}
);
width = 500;
},
{
associatedMasterId = "9372F035-DA38-4B54-966C-CEBA9B53DD02";
backgroundImage = {
crop = "{{1538.148, 884.444}, {185.185, 366.667}}";
imagePath = "../../Glyphs-171017/archive/chiffres/JACOB-notice-187525.jpg";
transform = "{2.646, -0.046, 0.046, 2.646, -4109, -2481}";
};
guideLines = (
{
angle = 90;
position = "{250, -100}";
}
);
layerId = "A3E92046-4EF0-45DD-BE5E-81BFA9C1A53F";
name = "Oct 16 17, 12:36";
paths = (
{
closed = 1;
nodes = (
"240 360 LINE",
"142 300 OFFCURVE",
"75 236 OFFCURVE",
"75 156 CURVE SMOOTH",
"75 57 OFFCURVE",
"143 9 OFFCURVE",
"245 9 CURVE SMOOTH",
"332 9 OFFCURVE",
"390 65 OFFCURVE",
"390 133 CURVE SMOOTH",
"390 188 OFFCURVE",
"340 246 OFFCURVE",
"265 296 CURVE SMOOTH",
"182 354 LINE SMOOTH",
"118 400 OFFCURVE",
"75 465 OFFCURVE",
"75 547 CURVE SMOOTH",
"75 651 OFFCURVE",
"143 720 OFFCURVE",
"246 720 CURVE SMOOTH",
"343 720 OFFCURVE",
"408 664 OFFCURVE",
"408 570 CURVE SMOOTH",
"408 500 OFFCURVE",
"355 416 OFFCURVE",
"275 369 CURVE",
"260 380 LINE",
"334 423 OFFCURVE",
"383 500 OFFCURVE",
"383 574 CURVE SMOOTH",
"383 644 OFFCURVE",
"331 690 OFFCURVE",
"254 690 CURVE SMOOTH",
"183 690 OFFCURVE",
"135 640 OFFCURVE",
"135 581 CURVE SMOOTH",
"135 525 OFFCURVE",
"181 482 OFFCURVE",
"249 435 CURVE SMOOTH",
"333 376 LINE SMOOTH",
"403 328 OFFCURVE",
"450 263 OFFCURVE",
"450 179 CURVE SMOOTH",
"450 76 OFFCURVE",
"372 -10 OFFCURVE",
"245 -10 CURVE SMOOTH",
"132 -10 OFFCURVE",
"50 35 OFFCURVE",
"50 156 CURVE SMOOTH",
"50 248 OFFCURVE",
"123 309 OFFCURVE",
"223 372 CURVE"
);
}
);
width = 500;
},
{
associatedMasterId = "9372F035-DA38-4B54-966C-CEBA9B53DD02";
backgroundImage = {
crop = "{{1538.148, 884.444}, {185.185, 366.667}}";
imagePath = "../../Glyphs-171017/archive/chiffres/JACOB-notice-187525.jpg";
locked = "1";
transform = "{2.646, -0.046, 0.046, 2.646, -4127, -2481}";
};
guideLines = (
{
angle = 90;
position = "{226, -100}";
},
{
angle = 90;
position = "{50, -200}";
},
{
angle = 90;
position = "{74, -200}";
},
{
angle = 90;
position = "{344, -200}";
},
{
angle = 90;
position = "{368, -200}";
},
{
angle = 230.4038;
position = "{6, 170}";
},
{
angle = -30.1414;
position = "{6, 442}";
},
{
angle = -30.1414;
position = "{7, 561}";
},
{
angle = 230.4038;
position = "{11, 10}";
}
);
layerId = "0C43F830-87D6-43BF-966A-97C1067239D5";
name = "Oct 16 17, 14:42";
paths = (
{
closed = 1;
nodes = (
"213 340 LINE",
"146 297 OFFCURVE",
"74 248 OFFCURVE",
"74 162 CURVE SMOOTH",
"74 76 OFFCURVE",
"133 20 OFFCURVE",
"221 20 CURVE SMOOTH",
"309 20 OFFCURVE",
"368 75 OFFCURVE",
"368 143 CURVE SMOOTH",
"368 208 OFFCURVE",
"319 261 OFFCURVE",
"234 310 CURVE SMOOTH",
"186 338 LINE SMOOTH",
"102 386 OFFCURVE",
"50 456 OFFCURVE",
"50 555 CURVE SMOOTH",
"50 656 OFFCURVE",
"131 720 OFFCURVE",
"222 720 CURVE SMOOTH",
"312 720 OFFCURVE",
"368 657 OFFCURVE",
"368 575 CURVE SMOOTH",
"368 493 OFFCURVE",
"313 450 OFFCURVE",
"251 412 CURVE",
"232 423 LINE",
"282 452 OFFCURVE",
"344 493 OFFCURVE",
"344 565 CURVE SMOOTH",
"344 637 OFFCURVE",
"307 690 OFFCURVE",
"230 690 CURVE SMOOTH",
"153 690 OFFCURVE",
"118 641 OFFCURVE",
"118 581 CURVE SMOOTH",
"118 521 OFFCURVE",
"144 479 OFFCURVE",
"216 439 CURVE SMOOTH",
"266 411 LINE SMOOTH",
"356 361 OFFCURVE",
"428 283 OFFCURVE",
"428 185 CURVE SMOOTH",
"428 86 OFFCURVE",
"351 -10 OFFCURVE",
"231 -10 CURVE SMOOTH",
"111 -10 OFFCURVE",
"50 66 OFFCURVE",
"50 166 CURVE SMOOTH",
"50 266 OFFCURVE",
"133 308 OFFCURVE",
"194 352 CURVE"
);
}
);
width = 478;
},
{
associatedMasterId = "9372F035-DA38-4B54-966C-CEBA9B53DD02";
backgroundImage = {
crop = "{{1538.148, 884.444}, {185.185, 366.667}}";
imagePath = "../../ANRT-Baskerwille/GLYPHS/Master/Glyphs-171013-01/chiffres/JACOB-notice-187525.jpg";
locked = "1";
transform = "{2.646, -0.046, 0.046, 2.646, -4127, -2481}";
};
layerId = "F94D5C3F-A2D8-4C82-83C0-05B669DDCC8F";
name = "Oct 17 17, 12:08";
paths = (
{
closed = 1;
nodes = (
"207 340 LINE",
"147 295 OFFCURVE",
"76 248 OFFCURVE",
"76 162 CURVE SMOOTH",
"76 76 OFFCURVE",
"133 20 OFFCURVE",
"221 20 CURVE SMOOTH",
"309 20 OFFCURVE",
"368 75 OFFCURVE",
"368 143 CURVE SMOOTH",
"368 208 OFFCURVE",
"319 261 OFFCURVE",
"234 310 CURVE SMOOTH",
"186 338 LINE SMOOTH",
"102 386 OFFCURVE",
"50 456 OFFCURVE",
"50 555 CURVE SMOOTH",
"50 656 OFFCURVE",
"131 720 OFFCURVE",
"222 720 CURVE SMOOTH",
"312 720 OFFCURVE",
"370 657 OFFCURVE",
"370 575 CURVE SMOOTH",
"370 488 OFFCURVE",
"311 441 OFFCURVE",
"256 398 CURVE",
"232 413 LINE",
"275 447 OFFCURVE",
"342 489 OFFCURVE",
"342 566 CURVE SMOOTH",
"342 638 OFFCURVE",
"307 690 OFFCURVE",
"230 690 CURVE SMOOTH",
"153 690 OFFCURVE",
"118 641 OFFCURVE",
"118 581 CURVE SMOOTH",
"118 521 OFFCURVE",
"144 479 OFFCURVE",
"216 439 CURVE SMOOTH",
"266 411 LINE SMOOTH",
"356 361 OFFCURVE",
"428 283 OFFCURVE",
"428 185 CURVE SMOOTH",
"428 86 OFFCURVE",
"351 -10 OFFCURVE",
"231 -10 CURVE SMOOTH",
"111 -10 OFFCURVE",
"48 66 OFFCURVE",
"48 166 CURVE SMOOTH",
"48 266 OFFCURVE",
"127 311 OFFCURVE",
"182 357 CURVE"
);
}
);
width = 478;
},
{
associatedMasterId = "9372F035-DA38-4B54-966C-CEBA9B53DD02";
backgroundImage = {
crop = "{{1538.148, 884.444}, {185.185, 366.667}}";
imagePath = "../../ANRT-Baskerwille/GLYPHS/Master/Glyphs-171013-01/chiffres/JACOB-notice-187525.jpg";
locked = "1";
transform = "{2.646, -0.046, 0.046, 2.646, -4122, -2481}";
};
layerId = "DFF01F65-B643-46A8-AC40-117BC7F5F14A";
name = "Oct 17 17, 12:25";
paths = (
{
closed = 1;
nodes = (
"212 354 LINE",
"147 309 OFFCURVE",
"78 258 OFFCURVE",
"78 172 CURVE SMOOTH",
"78 86 OFFCURVE",
"138 16 OFFCURVE",
"226 16 CURVE SMOOTH",
"324 16 OFFCURVE",
"380 75 OFFCURVE",
"380 153 CURVE SMOOTH",
"380 208 OFFCURVE",
"319 269 OFFCURVE",
"239 324 CURVE SMOOTH",
"191 357 LINE SMOOTH",
"99 420 OFFCURVE",
"54 462 OFFCURVE",
"54 563 CURVE SMOOTH",
"54 662 OFFCURVE",
"143 724 OFFCURVE",
"234 724 CURVE SMOOTH",
"335 724 OFFCURVE",
"389 657 OFFCURVE",
"389 575 CURVE SMOOTH",
"389 492 OFFCURVE",
"325 437 OFFCURVE",
"270 394 CURVE",
"246 409 LINE",
"289 443 OFFCURVE",
"361 500 OFFCURVE",
"361 566 CURVE SMOOTH",
"361 638 OFFCURVE",
"319 694 OFFCURVE",
"242 694 CURVE SMOOTH",
"165 694 OFFCURVE",
"122 647 OFFCURVE",
"122 587 CURVE SMOOTH",
"122 527 OFFCURVE",
"153 489 OFFCURVE",
"221 444 CURVE SMOOTH",
"271 411 LINE SMOOTH",
"356 355 OFFCURVE",
"440 283 OFFCURVE",
"440 195 CURVE SMOOTH",
"440 86 OFFCURVE",
"356 -14 OFFCURVE",
"236 -14 CURVE SMOOTH",
"116 -14 OFFCURVE",
"50 76 OFFCURVE",
"50 176 CURVE SMOOTH",
"50 276 OFFCURVE",
"127 325 OFFCURVE",
"187 371 CURVE"
);
}
);
width = 490;
},
{
layerId = "E6B8952F-D64A-490A-9CF5-6DF985D88222";
paths = (
{
closed = 1;
nodes = (
"273 362 LINE",
"191 308 OFFCURVE",
"96 253 OFFCURVE",
"61 158 CURVE SMOOTH",
"35 86 OFFCURVE",
"62 14 OFFCURVE",
"166 14 CURVE SMOOTH",
"248 14 OFFCURVE",
"329 64 OFFCURVE",
"361 153 CURVE SMOOTH",
"386 221 OFFCURVE",
"343 269 OFFCURVE",
"283 324 CURVE SMOOTH",
"222 382 LINE SMOOTH",
"178 423 OFFCURVE",
"153 477 OFFCURVE",
"185 563 CURVE SMOOTH",
"221 662 OFFCURVE",
"332 724 OFFCURVE",
"423 724 CURVE SMOOTH",
"524 724 OFFCURVE",
"554 657 OFFCURVE",
"526 580 CURVE SMOOTH",
"494 492 OFFCURVE",
"410 437 OFFCURVE",
"339 394 CURVE",
"325 409 LINE",
"380 443 OFFCURVE",
"469 500 OFFCURVE",
"496 575 CURVE SMOOTH",
"519 638 OFFCURVE",
"497 694 OFFCURVE",
"420 694 CURVE SMOOTH",
"351 694 OFFCURVE",
"283 647 OFFCURVE",
"259 580 CURVE SMOOTH",
"240 527 OFFCURVE",
"257 489 OFFCURVE",
"308 444 CURVE SMOOTH",
"369 389 LINE SMOOTH",
"429 336 OFFCURVE",
"465 272 OFFCURVE",
"433 186 CURVE SMOOTH",
"393 74 OFFCURVE",
"280 -14 OFFCURVE",
"156 -14 CURVE SMOOTH",
"25 -14 OFFCURVE",
"1 70 OFFCURVE",
"32 155 CURVE SMOOTH",
"72 263 OFFCURVE",
"169 319 OFFCURVE",
"252 375 CURVE"
);
}
);
width = 505;
},
{
associatedMasterId = "9372F035-DA38-4B54-966C-CEBA9B53DD02";
background = {
components = (
{
name = o;
transform = "{1, 0, 0, 1, -20, 0}";
}
);
};
backgroundImage = {
crop = "{{1538.148, 884.444}, {185.185, 366.667}}";
imagePath = "../../ANRT-Baskerwille/GLYPHS/Master/Glyphs-171013-01/chiffres/JACOB-notice-187525.jpg";
locked = "1";
transform = "{2.646, -0.046, 0.046, 2.646, -4122, -2481}";
};
guideLines = (
{
angle = 90;
position = "{235, 515}";
}
);
layerId = "31F7C99D-B193-4903-8B33-37A5EAD17879";
name = "Oct 19 17, 12:17";
paths = (
{
closed = 1;
nodes = (
"215 362 LINE",
"153 308 OFFCURVE",
"78 253 OFFCURVE",
"78 158 CURVE SMOOTH",
"78 86 OFFCURVE",
"131 14 OFFCURVE",
"235 14 CURVE SMOOTH",
"317 14 OFFCURVE",
"380 64 OFFCURVE",
"380 153 CURVE SMOOTH",
"380 221 OFFCURVE",
"319 269 OFFCURVE",
"239 324 CURVE SMOOTH",
"157 382 LINE SMOOTH",
"98 423 OFFCURVE",
"54 477 OFFCURVE",
"54 563 CURVE SMOOTH",
"54 662 OFFCURVE",
"143 724 OFFCURVE",
"234 724 CURVE SMOOTH",
"335 724 OFFCURVE",
"389 657 OFFCURVE",
"389 580 CURVE SMOOTH",
"389 492 OFFCURVE",
"325 437 OFFCURVE",
"270 394 CURVE",
"250 409 LINE",
"293 443 OFFCURVE",
"361 500 OFFCURVE",
"361 575 CURVE SMOOTH",
"361 638 OFFCURVE",
"319 694 OFFCURVE",
"242 694 CURVE SMOOTH",
"173 694 OFFCURVE",
"122 647 OFFCURVE",
"122 580 CURVE SMOOTH",
"122 527 OFFCURVE",
"153 489 OFFCURVE",
"221 444 CURVE SMOOTH",
"302 389 LINE SMOOTH",
"381 336 OFFCURVE",
"440 272 OFFCURVE",
"440 186 CURVE SMOOTH",
"440 74 OFFCURVE",
"359 -14 OFFCURVE",
"235 -14 CURVE SMOOTH",
"104 -14 OFFCURVE",
"50 70 OFFCURVE",
"50 155 CURVE SMOOTH",
"50 263 OFFCURVE",
"127 319 OFFCURVE",
"190 375 CURVE"
);
}
);
width = 490;
},
{
associatedMasterId = "9372F035-DA38-4B54-966C-CEBA9B53DD02";
background = {
components = (
{
name = o;
transform = "{1, 0, 0, 1, -20, 0}";
}
);
};
backgroundImage = {
crop = "{{1538.148, 884.444}, {185.185, 366.667}}";
imagePath = "../../ANRT-Baskerwille/GLYPHS/Master/Glyphs-171013-01/chiffres/JACOB-notice-187525.jpg";
locked = "1";
transform = "{2.646, -0.046, 0.046, 2.646, -4122, -2481}";
};
guideLines = (
{
angle = 90;
position = "{235, 515}";
}
);
layerId = "56E5BF57-8703-4C4C-A1A3-D8B230732EFF";
name = "Oct 19 17, 12:18";
paths = (
{
closed = 1;
nodes = (
"215 362 LINE",
"153 308 OFFCURVE",
"78 253 OFFCURVE",
"78 158 CURVE SMOOTH",
"78 86 OFFCURVE",
"131 14 OFFCURVE",
"235 14 CURVE SMOOTH",
"317 14 OFFCURVE",
"380 64 OFFCURVE",
"380 153 CURVE SMOOTH",
"380 217 OFFCURVE",
"315 262 OFFCURVE",
"229 314 CURVE SMOOTH",
"147 372 LINE SMOOTH",
"94 415 OFFCURVE",
"54 472 OFFCURVE",
"54 563 CURVE SMOOTH",
"54 662 OFFCURVE",
"143 724 OFFCURVE",
"234 724 CURVE SMOOTH",
"335 724 OFFCURVE",
"389 657 OFFCURVE",
"389 580 CURVE SMOOTH",
"389 492 OFFCURVE",
"325 437 OFFCURVE",
"270 394 CURVE",
"250 409 LINE",
"293 443 OFFCURVE",
"361 500 OFFCURVE",
"361 575 CURVE SMOOTH",
"361 638 OFFCURVE",
"319 694 OFFCURVE",
"242 694 CURVE SMOOTH",
"173 694 OFFCURVE",
"122 647 OFFCURVE",
"122 580 CURVE SMOOTH",
"122 531 OFFCURVE",
"156 496 OFFCURVE",
"231 454 CURVE SMOOTH",
"312 399 LINE SMOOTH",
"385 343 OFFCURVE",
"440 276 OFFCURVE",
"440 186 CURVE SMOOTH",
"440 74 OFFCURVE",
"359 -14 OFFCURVE",
"235 -14 CURVE SMOOTH",
"104 -14 OFFCURVE",
"50 70 OFFCURVE",
"50 155 CURVE SMOOTH",
"50 263 OFFCURVE",
"127 319 OFFCURVE",
"190 375 CURVE"
);
}
);
width = 490;
}
);
unicode = 0038;
},
{
color = 0;
glyphname = nine;
lastChange = "2017-10-19 12:32:25 +0000";
layers = (
{
background = {
paths = (
{
closed = 1;
nodes = (
"120 454 OFFCURVE",
"40 356 OFFCURVE",
"40 222 CURVE SMOOTH",
"40 88 OFFCURVE",
"120 -14 OFFCURVE",
"240 -14 CURVE SMOOTH",
"298 -14 OFFCURVE",
"343 20 OFFCURVE",
"370 72 CURVE",
"368 -131 OFFCURVE",
"315 -266 OFFCURVE",
"220 -266 CURVE SMOOTH",
"178 -266 OFFCURVE",
"166 -190 OFFCURVE",
"134 -190 CURVE SMOOTH",
"115 -190 OFFCURVE",
"92 -205 OFFCURVE",
"92 -227 CURVE SMOOTH",
"92 -255 OFFCURVE",
"120 -290 OFFCURVE",
"210 -290 CURVE SMOOTH",
"360 -290 OFFCURVE",
"455 -148 OFFCURVE",
"455 142 CURVE SMOOTH",
"455 382 OFFCURVE",
"370 454 OFFCURVE",
"240 454 CURVE SMOOTH"
);
},
{
closed = 1;
nodes = (
"162 16 OFFCURVE",
"120 93 OFFCURVE",
"120 222 CURVE SMOOTH",
"120 351 OFFCURVE",
"162 424 OFFCURVE",
"240 424 CURVE SMOOTH",
"318 424 OFFCURVE",
"370 342 OFFCURVE",
"370 213 CURVE SMOOTH",
"370 84 OFFCURVE",
"318 16 OFFCURVE",
"240 16 CURVE SMOOTH"
);
}
);
};
backgroundImage = {
crop = "{{1642.222, 1018.148}, {222.222, 366.667}}";
imagePath = "../../1878 Limprimerie Berger Levrault Notice historique/Romain/JACOB-notice-187532.jpg";
locked = "1";
transform = "{2.7, 0, 0, 2.7, -4479, -3029}";
};
layerId = "9372F035-DA38-4B54-966C-CEBA9B53DD02";
paths = (
{
closed = 1;
nodes = (
"347 -290 OFFCURVE",
"447 -148 OFFCURVE",
"457 142 CURVE SMOOTH",
"465 382 OFFCURVE",
"383 454 OFFCURVE",
"253 454 CURVE SMOOTH",
"133 454 OFFCURVE",
"50 356 OFFCURVE",
"45 222 CURVE SMOOTH",
"40 88 OFFCURVE",
"117 -14 OFFCURVE",
"237 -14 CURVE SMOOTH",
"305 -14 OFFCURVE",
"351 23 OFFCURVE",
"382 79 CURVE",
"371 101 LINE",
"363 -134 OFFCURVE",
"309 -266 OFFCURVE",
"208 -266 CURVE SMOOTH",
"162 -266 OFFCURVE",
"144 -247 OFFCURVE",
"138 -225 CURVE SMOOTH",
"136 -218 OFFCURVE",
"142 -210 OFFCURVE",
"142 -192 CURVE SMOOTH",
"142 -172 OFFCURVE",
"125 -155 OFFCURVE",
"106 -155 CURVE SMOOTH",
"81 -155 OFFCURVE",
"68 -178 OFFCURVE",
"68 -201 CURVE SMOOTH",
"68 -244 OFFCURVE",
"106 -290 OFFCURVE",
"197 -290 CURVE SMOOTH"
);
},
{
closed = 1;
nodes = (
"160 16 OFFCURVE",
"120 93 OFFCURVE",
"125 222 CURVE SMOOTH",
"130 361 OFFCURVE",
"174 424 OFFCURVE",
"252 424 CURVE SMOOTH",
"330 424 OFFCURVE",
"379 352 OFFCURVE",
"375 213 CURVE SMOOTH",
"374 188 OFFCURVE",
"372 131 OFFCURVE",
"369 103 CURVE",
"338 53 OFFCURVE",
"304 16 OFFCURVE",
"238 16 CURVE SMOOTH"
);
}
);
width = 495;
},
{
associatedMasterId = "9372F035-DA38-4B54-966C-CEBA9B53DD02";
backgroundImage = {
crop = "{{1642.222, 1018.148}, {222.222, 366.667}}";
imagePath = "../../../../1878 Limprimerie Berger Levrault Notice historique/Romain/JACOB-notice-187532.jpg";
locked = "1";
transform = "{2.7, 0, 0, 2.7, -4459, -3029}";
};
layerId = "94346306-215A-4841-A0A6-E5DE18493020";
name = "Oct 16 17, 15:13";
paths = (
{
closed = 1;
nodes = (
"460 350 OFFCURVE",
"372 454 OFFCURVE",
"260 454 CURVE SMOOTH",
"148 454 OFFCURVE",
"60 345 OFFCURVE",
"60 222 CURVE SMOOTH",
"60 105 OFFCURVE",
"148 12 OFFCURVE",
"260 12 CURVE SMOOTH",
"372 12 OFFCURVE",
"410 95 OFFCURVE",
"410 212 CURVE",
"390 212 LINE",
"390 107 OFFCURVE",
"354 36 OFFCURVE",
"260 36 CURVE SMOOTH",
"166 36 OFFCURVE",
"130 117 OFFCURVE",
"130 222 CURVE SMOOTH",
"130 334 OFFCURVE",
"166 430 OFFCURVE",
"260 430 CURVE SMOOTH",
"354 430 OFFCURVE",
"390 329 OFFCURVE",
"390 222 CURVE SMOOTH",
"383 -9 OFFCURVE",
"361 -265 OFFCURVE",
"257 -265 CURVE SMOOTH",
"178 -265 OFFCURVE",
"161 -172 OFFCURVE",
"128 -172 CURVE SMOOTH",
"103 -172 OFFCURVE",
"87 -187 OFFCURVE",
"87 -216 CURVE SMOOTH",
"87 -254 OFFCURVE",
"169 -289 OFFCURVE",
"265 -289 CURVE SMOOTH",
"424 -289 OFFCURVE",
"460 -29 OFFCURVE",
"460 162 CURVE SMOOTH"
);
}
);
width = 520;
},
{
layerId = "E6B8952F-D64A-490A-9CF5-6DF985D88222";
paths = (
{
closed = 1;
nodes = (
"220 454 OFFCURVE",
"105 356 OFFCURVE",
"56 222 CURVE SMOOTH",
"7 88 OFFCURVE",
"50 -14 OFFCURVE",
"170 -14 CURVE SMOOTH",
"228 -14 OFFCURVE",
"285 20 OFFCURVE",
"331 72 CURVE",
"255 -131 OFFCURVE",
"153 -266 OFFCURVE",
"58 -266 CURVE SMOOTH",
"16 -266 OFFCURVE",
"32 -190 OFFCURVE",
"0 -190 CURVE SMOOTH",
"-19 -190 OFFCURVE",
"-47 -205 OFFCURVE",
"-55 -227 CURVE SMOOTH",
"-66 -255 OFFCURVE",
"-50 -290 OFFCURVE",
"40 -290 CURVE SMOOTH",
"190 -290 OFFCURVE",
"336 -148 OFFCURVE",
"442 142 CURVE SMOOTH",
"529 382 OFFCURVE",
"470 454 OFFCURVE",
"340 454 CURVE SMOOTH"
);
},
{
closed = 1;
nodes = (
"103 16 OFFCURVE",
"89 93 OFFCURVE",
"136 222 CURVE SMOOTH",
"183 351 OFFCURVE",
"251 424 OFFCURVE",
"329 424 CURVE SMOOTH",
"407 424 OFFCURVE",
"430 342 OFFCURVE",
"383 213 CURVE SMOOTH",
"336 84 OFFCURVE",
"259 16 OFFCURVE",
"181 16 CURVE SMOOTH"
);
}
);
width = 530;
},
{
associatedMasterId = "9372F035-DA38-4B54-966C-CEBA9B53DD02";
background = {
paths = (
{
closed = 1;
nodes = (
"120 454 OFFCURVE",
"40 356 OFFCURVE",
"40 222 CURVE SMOOTH",
"40 88 OFFCURVE",
"120 -14 OFFCURVE",
"240 -14 CURVE SMOOTH",
"298 -14 OFFCURVE",
"343 20 OFFCURVE",
"370 72 CURVE",
"368 -131 OFFCURVE",
"315 -266 OFFCURVE",
"220 -266 CURVE SMOOTH",
"178 -266 OFFCURVE",
"166 -190 OFFCURVE",
"134 -190 CURVE SMOOTH",
"115 -190 OFFCURVE",
"92 -205 OFFCURVE",
"92 -227 CURVE SMOOTH",
"92 -255 OFFCURVE",
"120 -290 OFFCURVE",
"210 -290 CURVE SMOOTH",
"360 -290 OFFCURVE",
"455 -148 OFFCURVE",
"455 142 CURVE SMOOTH",
"455 382 OFFCURVE",
"370 454 OFFCURVE",
"240 454 CURVE SMOOTH"
);
},
{
closed = 1;
nodes = (
"162 16 OFFCURVE",
"120 93 OFFCURVE",
"120 222 CURVE SMOOTH",
"120 351 OFFCURVE",
"162 424 OFFCURVE",
"240 424 CURVE SMOOTH",
"318 424 OFFCURVE",
"370 342 OFFCURVE",
"370 213 CURVE SMOOTH",
"370 84 OFFCURVE",
"318 16 OFFCURVE",
"240 16 CURVE SMOOTH"
);
}
);
};
backgroundImage = {
crop = "{{1642.222, 1018.148}, {222.222, 366.667}}";
imagePath = "../../1878 Limprimerie Berger Levrault Notice historique/Romain/JACOB-notice-187532.jpg";
locked = "1";
transform = "{2.7, 0, 0, 2.7, -4479, -3029}";
};
layerId = "D40EFEDD-5245-41EC-AA9F-2C8B2530B7E2";
name = "Oct 18 17, 15:03";
paths = (
{
closed = 1;
nodes = (
"120 454 OFFCURVE",
"40 356 OFFCURVE",
"40 222 CURVE SMOOTH",
"40 88 OFFCURVE",
"120 -14 OFFCURVE",
"240 -14 CURVE SMOOTH",
"308 -14 OFFCURVE",
"342 0 OFFCURVE",
"382 69 CURVE",
"370 101 LINE",
"371 -134 OFFCURVE",
"321 -266 OFFCURVE",
"220 -266 CURVE SMOOTH",
"178 -266 OFFCURVE",
"166 -190 OFFCURVE",
"134 -190 CURVE SMOOTH",
"115 -190 OFFCURVE",
"92 -205 OFFCURVE",
"92 -227 CURVE SMOOTH",
"92 -255 OFFCURVE",
"120 -290 OFFCURVE",
"210 -290 CURVE SMOOTH",
"360 -290 OFFCURVE",
"455 -148 OFFCURVE",
"455 142 CURVE SMOOTH",
"455 382 OFFCURVE",
"370 454 OFFCURVE",
"240 454 CURVE SMOOTH"
);
},
{
closed = 1;
nodes = (
"162 16 OFFCURVE",
"120 93 OFFCURVE",
"120 222 CURVE SMOOTH",
"120 361 OFFCURVE",
"162 424 OFFCURVE",
"240 424 CURVE SMOOTH",
"318 424 OFFCURVE",
"370 352 OFFCURVE",
"370 213 CURVE SMOOTH",
"370 188 OFFCURVE",
"370 153 OFFCURVE",
"368 125 CURVE",
"350 61 OFFCURVE",
"306 16 OFFCURVE",
"240 16 CURVE SMOOTH"
);
}
);
width = 495;
},
{
associatedMasterId = "9372F035-DA38-4B54-966C-CEBA9B53DD02";
background = {
paths = (
{
closed = 1;
nodes = (
"120 454 OFFCURVE",
"40 356 OFFCURVE",
"40 222 CURVE SMOOTH",
"40 88 OFFCURVE",
"120 -14 OFFCURVE",
"240 -14 CURVE SMOOTH",
"298 -14 OFFCURVE",
"343 20 OFFCURVE",
"370 72 CURVE",
"368 -131 OFFCURVE",
"315 -266 OFFCURVE",
"220 -266 CURVE SMOOTH",
"178 -266 OFFCURVE",
"166 -190 OFFCURVE",
"134 -190 CURVE SMOOTH",
"115 -190 OFFCURVE",
"92 -205 OFFCURVE",
"92 -227 CURVE SMOOTH",
"92 -255 OFFCURVE",
"120 -290 OFFCURVE",
"210 -290 CURVE SMOOTH",
"360 -290 OFFCURVE",
"455 -148 OFFCURVE",
"455 142 CURVE SMOOTH",
"455 382 OFFCURVE",
"370 454 OFFCURVE",
"240 454 CURVE SMOOTH"
);
},
{
closed = 1;
nodes = (
"162 16 OFFCURVE",
"120 93 OFFCURVE",
"120 222 CURVE SMOOTH",
"120 351 OFFCURVE",
"162 424 OFFCURVE",
"240 424 CURVE SMOOTH",
"318 424 OFFCURVE",
"370 342 OFFCURVE",
"370 213 CURVE SMOOTH",
"370 84 OFFCURVE",
"318 16 OFFCURVE",
"240 16 CURVE SMOOTH"
);
}
);
};
backgroundImage = {
crop = "{{1642.222, 1018.148}, {222.222, 366.667}}";
imagePath = "../../1878 Limprimerie Berger Levrault Notice historique/Romain/JACOB-notice-187532.jpg";
locked = "1";
transform = "{2.7, 0, 0, 2.7, -4479, -3029}";
};
layerId = "AA27EC6C-CCA8-4C5E-B38D-E5F1D77BB0BB";
name = "Oct 19 17, 14:31";
paths = (
{
closed = 1;
nodes = (
"133 454 OFFCURVE",
"50 356 OFFCURVE",
"45 222 CURVE SMOOTH",
"40 88 OFFCURVE",
"117 -14 OFFCURVE",
"237 -14 CURVE SMOOTH",
"305 -14 OFFCURVE",
"351 23 OFFCURVE",
"382 79 CURVE",
"371 101 LINE",
"363 -134 OFFCURVE",
"309 -266 OFFCURVE",
"208 -266 CURVE SMOOTH",
"166 -266 OFFCURVE",
"157 -190 OFFCURVE",
"125 -190 CURVE SMOOTH",
"106 -190 OFFCURVE",
"82 -205 OFFCURVE",
"81 -227 CURVE SMOOTH",
"80 -255 OFFCURVE",
"107 -290 OFFCURVE",
"197 -290 CURVE SMOOTH",
"347 -290 OFFCURVE",
"447 -148 OFFCURVE",
"457 142 CURVE SMOOTH",
"465 382 OFFCURVE",
"383 454 OFFCURVE",
"253 454 CURVE SMOOTH"
);
},
{
closed = 1;
nodes = (
"160 16 OFFCURVE",
"120 93 OFFCURVE",
"125 222 CURVE SMOOTH",
"130 361 OFFCURVE",
"174 424 OFFCURVE",
"252 424 CURVE SMOOTH",
"330 424 OFFCURVE",
"379 352 OFFCURVE",
"375 213 CURVE SMOOTH",
"374 188 OFFCURVE",
"372 131 OFFCURVE",
"369 103 CURVE",
"338 53 OFFCURVE",
"304 16 OFFCURVE",
"238 16 CURVE SMOOTH"
);
}
);
width = 495;
}
);
unicode = 0039;
},
{
glyphname = colon;
lastChange = "2017-10-19 09:51:26 +0000";
layers = (
{
backgroundImage = {
crop = "{{1807.407, 1602.222}, {222.222, 366.667}}";
imagePath = "../../1878 Limprimerie Berger Levrault Notice historique/Romain/JACOB-notice-187526.jpg";
locked = "1";
transform = "{2.7, 0, 0, 2.7, -5028, -4606}";
};
components = (
{
name = period;
transform = "{1, 0, 0, 1, 0, 318}";
},
{
name = period;
}
);
layerId = "9372F035-DA38-4B54-966C-CEBA9B53DD02";
width = 274;
},
{
layerId = "E6B8952F-D64A-490A-9CF5-6DF985D88222";
paths = (
{
closed = 1;
nodes = (
"98 -9 OFFCURVE",
"145 25 OFFCURVE",
"160 68 CURVE SMOOTH",
"175 110 OFFCURVE",
"154 144 OFFCURVE",
"112 144 CURVE SMOOTH",
"69 144 OFFCURVE",
"23 110 OFFCURVE",
"7 68 CURVE SMOOTH",
"-9 25 OFFCURVE",
"13 -9 OFFCURVE",
"56 -9 CURVE SMOOTH"
);
},
{
closed = 1;
nodes = (
"205 288 OFFCURVE",
"252 322 OFFCURVE",
"267 365 CURVE SMOOTH",
"282 407 OFFCURVE",
"261 441 OFFCURVE",
"219 441 CURVE SMOOTH",
"176 441 OFFCURVE",
"130 407 OFFCURVE",
"114 365 CURVE SMOOTH",
"98 322 OFFCURVE",
"120 288 OFFCURVE",
"163 288 CURVE SMOOTH"
);
}
);
width = 275;
}
);
leftMetricsKey = "=period";
rightMetricsKey = "=period";
unicode = 003A;
},
{
glyphname = comma;
lastChange = "2017-10-19 14:52:31 +0000";
layers = (
{
layerId = "E6B8952F-D64A-490A-9CF5-6DF985D88222";
paths = (
{
closed = 1;
nodes = (
"104 121 LINE",
"144 121 OFFCURVE",
"167 84 OFFCURVE",
"136 0 CURVE SMOOTH",
"105 -86 OFFCURVE",
"26 -154 OFFCURVE",
"-56 -194 CURVE",
"-50 -217 LINE",
"46 -166 OFFCURVE",
"128 -107 OFFCURVE",
"168 3 CURVE SMOOTH",
"201 93 OFFCURVE",
"181 150 OFFCURVE",
"115 150 CURVE"
);
},
{
closed = 1;
nodes = (
"101 -10 OFFCURVE",
"144 36 OFFCURVE",
"163 90 CURVE SMOOTH",
"176 124 OFFCURVE",
"159 150 OFFCURVE",
"115 150 CURVE SMOOTH",
"71 150 OFFCURVE",
"22 114 OFFCURVE",
"6 70 CURVE SMOOTH",
"-10 26 OFFCURVE",
"13 -10 OFFCURVE",
"57 -10 CURVE SMOOTH"
);
}
);
width = 306;
},
{
associatedMasterId = "E6B8952F-D64A-490A-9CF5-6DF985D88222";
layerId = "E4EAE8CE-D36E-4A68-919C-EE4DB6C6ACB9";
name = "Oct 17 17, 16:54";
paths = (
{
closed = 1;
nodes = (
"104 121 LINE",
"144 121 OFFCURVE",
"170 84 OFFCURVE",
"139 0 CURVE SMOOTH",
"108 -86 OFFCURVE",
"29 -156 OFFCURVE",
"-53 -196 CURVE",
"-50 -217 LINE",
"46 -166 OFFCURVE",
"127 -107 OFFCURVE",
"167 3 CURVE SMOOTH",
"200 93 OFFCURVE",
"181 150 OFFCURVE",
"115 150 CURVE"
);
},
{
closed = 1;
nodes = (
"101 -10 OFFCURVE",
"144 36 OFFCURVE",
"163 90 CURVE SMOOTH",
"176 124 OFFCURVE",
"159 150 OFFCURVE",
"115 150 CURVE SMOOTH",
"71 150 OFFCURVE",
"22 114 OFFCURVE",
"6 70 CURVE SMOOTH",
"-10 26 OFFCURVE",
"13 -10 OFFCURVE",
"57 -10 CURVE SMOOTH"
);
}
);
width = 305;
},
{
associatedMasterId = "9372F035-DA38-4B54-966C-CEBA9B53DD02";
layerId = "3ACB785A-D06A-420C-AFAC-A22264BDB2F6";
name = "Oct 19 17, 14:44";
paths = (
{
closed = 1;
nodes = (
"133 110 LINE",
"171 110 OFFCURVE",
"208 75 OFFCURVE",
"208 -4 CURVE SMOOTH",
"208 -86 OFFCURVE",
"157 -153 OFFCURVE",
"93 -191 CURVE",
"104 -211 LINE",
"177 -162 OFFCURVE",
"234 -106 OFFCURVE",
"234 -2 CURVE SMOOTH",
"234 84 OFFCURVE",
"196 138 OFFCURVE",
"133 138 CURVE"
);
},
{
closed = 1;
nodes = (
"175 -14 OFFCURVE",
"200 30 OFFCURVE",
"200 81 CURVE SMOOTH",
"200 113 OFFCURVE",
"175 138 OFFCURVE",
"133 138 CURVE SMOOTH",
"93 138 OFFCURVE",
"60 104 OFFCURVE",
"60 62 CURVE SMOOTH",
"60 20 OFFCURVE",
"93 -14 OFFCURVE",
"133 -14 CURVE SMOOTH"
);
}
);
width = 291;
},
{
associatedMasterId = "9372F035-DA38-4B54-966C-CEBA9B53DD02";
backgroundImage = {
crop = "{{0, 0}, {300, 1038}}";
imagePath = "../../../../Glyphset Images/Ponctuation/Baskerwille_Img_comma.tif";
locked = "1";
transform = "{1, 0, 0, 1, 0, -300}";
};
layerId = "18C3982A-5295-4B16-B18E-4D622A96F531";
name = "Oct 19 17, 15:13";
paths = (
{
closed = 1;
nodes = (
"54 20 OFFCURVE",
"83 -14 OFFCURVE",
"126 -14 CURVE SMOOTH",
"181 -14 OFFCURVE",
"198 38 OFFCURVE",
"170 73 CURVE",
"170 84 LINE",
"198 73 OFFCURVE",
"211 26 OFFCURVE",
"211 0 CURVE SMOOTH",
"211 -47 OFFCURVE",
"178 -117 OFFCURVE",
"119 -149 CURVE SMOOTH",
"95 -163 OFFCURVE",
"80 -170 OFFCURVE",
"87 -191 CURVE SMOOTH",
"96 -215 OFFCURVE",
"124 -196 OFFCURVE",
"150 -176 CURVE SMOOTH",
"205 -133 OFFCURVE",
"236 -51 OFFCURVE",
"236 14 CURVE SMOOTH",
"236 69 OFFCURVE",
"205 138 OFFCURVE",
"133 138 CURVE SMOOTH",
"84 138 OFFCURVE",
"54 102 OFFCURVE",
"54 62 CURVE SMOOTH"
);
}
);
width = 291;
},
{
associatedMasterId = "9372F035-DA38-4B54-966C-CEBA9B53DD02";
backgroundImage = {
crop = "{{0, 0}, {300, 1038}}";
imagePath = "../../../../Glyphset Images/Ponctuation/Baskerwille_Img_comma.tif";
locked = "1";
transform = "{1, 0, 0, 1, 0, -300}";
};
layerId = "54E24505-8A9C-4068-8C2D-65B5173CBB7F";
name = "Oct 19 17, 16:13";
paths = (
{
closed = 1;
nodes = (
"54 20 OFFCURVE",
"83 -14 OFFCURVE",
"126 -14 CURVE SMOOTH",
"173 -14 OFFCURVE",
"198 35 OFFCURVE",
"172 68 CURVE SMOOTH",
"162 80 OFFCURVE",
"178 87 OFFCURVE",
"194 67 CURVE SMOOTH",
"204 54 OFFCURVE",
"207 35 OFFCURVE",
"207 15 CURVE SMOOTH",
"207 -44 OFFCURVE",
"178 -117 OFFCURVE",
"119 -149 CURVE SMOOTH",
"95 -163 OFFCURVE",
"80 -170 OFFCURVE",
"87 -191 CURVE SMOOTH",
"96 -215 OFFCURVE",
"124 -196 OFFCURVE",
"150 -176 CURVE SMOOTH",
"199 -138 OFFCURVE",
"236 -52 OFFCURVE",
"236 18 CURVE SMOOTH",
"236 73 OFFCURVE",
"205 138 OFFCURVE",
"133 138 CURVE SMOOTH",
"95 138 OFFCURVE",
"54 102 OFFCURVE",
"54 62 CURVE SMOOTH"
);
}
);
width = 291;
},
{
associatedMasterId = "9372F035-DA38-4B54-966C-CEBA9B53DD02";
backgroundImage = {
crop = "{{0, 0}, {300, 1038}}";
imagePath = "../../../../Glyphset Images/Ponctuation/Baskerwille_Img_comma.tif";
locked = "1";
transform = "{0.85737, 0, 0, 0.85737, 0, -155.949}";
};
layerId = "8BEBBFA0-7A58-49F3-96F0-F00A79730C54";
name = "Oct 19 17, 16:52";
paths = (
{
closed = 1;
nodes = (
"85 -191 LINE",
"141 -162 OFFCURVE",
"223 -94 OFFCURVE",
"227 22 CURVE SMOOTH",
"229 74 OFFCURVE",
"201 134 OFFCURVE",
"132 134 CURVE SMOOTH",
"99 134 OFFCURVE",
"62 100 OFFCURVE",
"61 63 CURVE SMOOTH",
"60 26 OFFCURVE",
"84 -6 OFFCURVE",
"121 -6 CURVE SMOOTH",
"165 -6 OFFCURVE",
"189 38 OFFCURVE",
"166 69 CURVE SMOOTH",
"157 81 OFFCURVE",
"172 87 OFFCURVE",
"187 68 CURVE SMOOTH",
"197 56 OFFCURVE",
"199 38 OFFCURVE",
"199 19 CURVE SMOOTH",
"196 -70 OFFCURVE",
"150 -124 OFFCURVE",
"72 -161 CURVE"
);
}
);
width = 276;
},
{
backgroundImage = {
crop = "{{0, 0}, {300, 1038}}";
imagePath = "../../../../Glyphset Images/Ponctuation/Baskerwille_Img_comma.tif";
locked = "1";
transform = "{1, 0, 0, 1, 0, -300}";
};
layerId = "9372F035-DA38-4B54-966C-CEBA9B53DD02";
paths = (
{
closed = 1;
nodes = (
"54 20 OFFCURVE",
"83 -14 OFFCURVE",
"126 -14 CURVE SMOOTH",
"181 -14 OFFCURVE",
"198 38 OFFCURVE",
"170 73 CURVE",
"170 84 LINE",
"198 73 OFFCURVE",
"211 26 OFFCURVE",
"211 0 CURVE SMOOTH",
"211 -47 OFFCURVE",
"178 -117 OFFCURVE",
"119 -149 CURVE SMOOTH",
"95 -163 OFFCURVE",
"80 -170 OFFCURVE",
"87 -191 CURVE SMOOTH",
"96 -215 OFFCURVE",
"124 -196 OFFCURVE",
"150 -176 CURVE SMOOTH",
"205 -133 OFFCURVE",
"236 -51 OFFCURVE",
"236 14 CURVE SMOOTH",
"236 69 OFFCURVE",
"205 138 OFFCURVE",
"133 138 CURVE SMOOTH",
"84 138 OFFCURVE",
"54 102 OFFCURVE",
"54 62 CURVE SMOOTH"
);
}
);
width = 291;
}
);
leftMetricsKey = "=period";
rightMetricsKey = "=period";
unicode = 002C;
},
{
glyphname = exclam;
lastChange = "2017-10-17 14:05:16 +0000";
layers = (
{
backgroundImage = {
crop = "{{1855.556, 791.481}, {222.222, 366.667}}";
imagePath = "../../1878 Limprimerie Berger Levrault Notice historique/Romain/JACOB-notice-187529.jpg";
locked = "1";
transform = "{2.7, 0, 0, 2.7, -4986, -2417}";
};
layerId = "9372F035-DA38-4B54-966C-CEBA9B53DD02";
paths = (
{
closed = 1;
nodes = (
"159 -14 OFFCURVE",
"188 15 OFFCURVE",
"188 50 CURVE SMOOTH",
"188 85 OFFCURVE",
"159 114 OFFCURVE",
"124 114 CURVE SMOOTH",
"89 114 OFFCURVE",
"60 85 OFFCURVE",
"60 50 CURVE SMOOTH",
"60 15 OFFCURVE",
"89 -14 OFFCURVE",
"124 -14 CURVE SMOOTH"
);
},
{
closed = 1;
nodes = (
"138 199 LINE",
"179 660 LINE",
"181 700 OFFCURVE",
"148 724 OFFCURVE",
"124 724 CURVE SMOOTH",
"100 724 OFFCURVE",
"67 700 OFFCURVE",
"69 660 CURVE",
"110 199 LINE"
);
}
);
width = 248;
},
{
associatedMasterId = "9372F035-DA38-4B54-966C-CEBA9B53DD02";
backgroundImage = {
crop = "{{1855.556, 791.481}, {222.222, 366.667}}";
imagePath = "../../1878 Limprimerie Berger Levrault Notice historique/Romain/JACOB-notice-187529.jpg";
locked = "1";
transform = "{2.7, 0, 0, 2.7, -4986, -2417}";
};
layerId = "C3073120-921F-4828-B3BA-FA4BD898FD57";
name = "Oct 17 17, 13:43";
paths = (
{
closed = 1;
nodes = (
"69 656 LINE",
"67 696 OFFCURVE",
"100 720 OFFCURVE",
"124 720 CURVE SMOOTH",
"148 720 OFFCURVE",
"181 696 OFFCURVE",
"179 656 CURVE",
"136 179 LINE",
"112 179 LINE"
);
},
{
closed = 1;
nodes = (
"159.2 -8 OFFCURVE",
"188 20.8 OFFCURVE",
"188 56 CURVE SMOOTH",
"188 91.2 OFFCURVE",
"159.2 120 OFFCURVE",
"124 120 CURVE SMOOTH",
"88.8 120 OFFCURVE",
"60 91.2 OFFCURVE",
"60 56 CURVE SMOOTH",
"60 20.8 OFFCURVE",
"88.8 -8 OFFCURVE",
"124 -8 CURVE SMOOTH"
);
}
);
width = 248;
},
{
layerId = "E6B8952F-D64A-490A-9CF5-6DF985D88222";
paths = (
{
closed = 1;
nodes = (
"74 -14 OFFCURVE",
"114 15 OFFCURVE",
"127 50 CURVE SMOOTH",
"140 85 OFFCURVE",
"121 114 OFFCURVE",
"86 114 CURVE SMOOTH",
"51 114 OFFCURVE",
"11 85 OFFCURVE",
"-1 50 CURVE SMOOTH",
"-13 15 OFFCURVE",
"4 -14 OFFCURVE",
"39 -14 CURVE SMOOTH"
);
},
{
closed = 1;
nodes = (
"131 199 LINE",
"340 660 LINE",
"356 700 OFFCURVE",
"332 724 OFFCURVE",
"308 724 CURVE SMOOTH",
"284 724 OFFCURVE",
"242 700 OFFCURVE",
"230 660 CURVE",
"103 199 LINE"
);
}
);
width = 248;
}
);
leftMetricsKey = period;
rightMetricsKey = "=period";
unicode = 0021;
},
{
glyphname = period;
lastChange = "2017-10-19 13:12:13 +0000";
layers = (
{
layerId = "9372F035-DA38-4B54-966C-CEBA9B53DD02";
paths = (
{
closed = 1;
nodes = (
"143 -11 OFFCURVE",
"172 18 OFFCURVE",
"174 53 CURVE SMOOTH",
"176 87 OFFCURVE",
"150 115 OFFCURVE",
"118 115 CURVE SMOOTH",
"86 115 OFFCURVE",
"57 87 OFFCURVE",
"55 53 CURVE SMOOTH",
"53 18 OFFCURVE",
"79 -11 OFFCURVE",
"111 -11 CURVE SMOOTH"
);
}
);
width = 227;
},
{
layerId = "E6B8952F-D64A-490A-9CF5-6DF985D88222";
paths = (
{
closed = 1;
nodes = (
"101 -10 OFFCURVE",
"150 26 OFFCURVE",
"166 70 CURVE SMOOTH",
"182 114 OFFCURVE",
"159 150 OFFCURVE",
"115 150 CURVE SMOOTH",
"71 150 OFFCURVE",
"22 114 OFFCURVE",
"6 70 CURVE SMOOTH",
"-10 26 OFFCURVE",
"13 -10 OFFCURVE",
"57 -10 CURVE SMOOTH"
);
}
);
width = 280;
}
);
unicode = 002E;
},
{
glyphname = question;
lastChange = "2017-10-19 13:12:27 +0000";
layers = (
{
backgroundImage = {
crop = "{{0, 0}, {600, 971}}";
imagePath = "../../Glyphs-171017/?/?.tif";
locked = "1";
transform = "{1, 0, 0, 1, -133, -237}";
};
components = (
{
name = period;
transform = "{-1, 0, 0, 1, 268, 0}";
}
);
layerId = "9372F035-DA38-4B54-966C-CEBA9B53DD02";
paths = (
{
closed = 1;
nodes = (
"90 467 LINE",
"102 214 LINE",
"103 188 OFFCURVE",
"125 175 OFFCURVE",
"141 176 CURVE SMOOTH",
"157 177 OFFCURVE",
"177 196 OFFCURVE",
"174 221 CURVE",
"114 468 LINE"
);
},
{
closed = 1;
nodes = (
"295 698 OFFCURVE",
"321 641 OFFCURVE",
"317 540 CURVE SMOOTH",
"314 447 OFFCURVE",
"295 381 OFFCURVE",
"231 381 CURVE SMOOTH",
"155 381 OFFCURVE",
"128 415 OFFCURVE",
"114 468 CURVE",
"90 467 LINE",
"92 408 OFFCURVE",
"149 354 OFFCURVE",
"232 354 CURVE SMOOTH",
"322 354 OFFCURVE",
"393 430 OFFCURVE",
"397 540 CURVE SMOOTH",
"401 652 OFFCURVE",
"310 724 OFFCURVE",
"219 724 CURVE SMOOTH",
"146 724 OFFCURVE",
"68 693 OFFCURVE",
"67 640 CURVE SMOOTH",
"66 609 OFFCURVE",
"87 591 OFFCURVE",
"114 591 CURVE SMOOTH",
"139 591 OFFCURVE",
"159 612 OFFCURVE",
"160 637 CURVE SMOOTH",
"160 657 OFFCURVE",
"152 665 OFFCURVE",
"152 676 CURVE SMOOTH",
"153 696 OFFCURVE",
"185 698 OFFCURVE",
"220 698 CURVE SMOOTH"
);
}
);
width = 454;
},
{
layerId = "E6B8952F-D64A-490A-9CF5-6DF985D88222";
paths = (
{
closed = 1;
nodes = (
"120 -15 OFFCURVE",
"160 14 OFFCURVE",
"172 49 CURVE SMOOTH",
"184 84 OFFCURVE",
"167 113 OFFCURVE",
"132 113 CURVE SMOOTH",
"97 113 OFFCURVE",
"57 84 OFFCURVE",
"44 49 CURVE SMOOTH",
"31 14 OFFCURVE",
"50 -15 OFFCURVE",
"85 -15 CURVE SMOOTH"
);
},
{
closed = 1;
nodes = (
"180 467 LINE",
"109 214 LINE",
"102 188 OFFCURVE",
"120 175 OFFCURVE",
"137 176 CURVE SMOOTH",
"153 177 OFFCURVE",
"179 196 OFFCURVE",
"184 221 CURVE",
"205 468 LINE"
);
},
{
closed = 1;
nodes = (
"462 698 OFFCURVE",
"469 641 OFFCURVE",
"432 540 CURVE SMOOTH",
"398 447 OFFCURVE",
"357 381 OFFCURVE",
"293 381 CURVE SMOOTH",
"217 381 OFFCURVE",
"202 415 OFFCURVE",
"205 468 CURVE",
"180 467 LINE",
"163 408 OFFCURVE",
"202 354 OFFCURVE",
"285 354 CURVE SMOOTH",
"375 354 OFFCURVE",
"472 430 OFFCURVE",
"512 540 CURVE SMOOTH",
"553 652 OFFCURVE",
"485 724 OFFCURVE",
"394 724 CURVE SMOOTH",
"321 724 OFFCURVE",
"234 693 OFFCURVE",
"214 640 CURVE SMOOTH",
"202 609 OFFCURVE",
"219 591 OFFCURVE",
"246 591 CURVE SMOOTH",
"271 591 OFFCURVE",
"297 612 OFFCURVE",
"306 637 CURVE SMOOTH",
"313 657 OFFCURVE",
"308 665 OFFCURVE",
"312 676 CURVE SMOOTH",
"319 696 OFFCURVE",
"352 698 OFFCURVE",
"387 698 CURVE SMOOTH"
);
}
);
width = 455;
}
);
unicode = 003F;
},
{
glyphname = bracketleft;
lastChange = "2017-10-19 13:57:04 +0000";
layers = (
{
guideLines = (
{
position = "{-1814, -192}";
}
);
layerId = "9372F035-DA38-4B54-966C-CEBA9B53DD02";
paths = (
{
closed = 1;
nodes = (
"20 -193 LINE",
"65 -193 LINE",
"65 710 LINE",
"20 710 LINE"
);
},
{
closed = 1;
nodes = (
"42 606 LINE",
"65 664 OFFCURVE",
"99 675 OFFCURVE",
"204 680 CURVE",
"204 710 LINE",
"42 710 LINE"
);
},
{
closed = 1;
nodes = (
"204 -193 LINE",
"204 -164 LINE",
"99 -154 OFFCURVE",
"65 -148 OFFCURVE",
"42 -90 CURVE",
"42 -193 LINE"
);
}
);
width = 214;
},
{
layerId = "E6B8952F-D64A-490A-9CF5-6DF985D88222";
width = 600;
},
{
associatedMasterId = "9372F035-DA38-4B54-966C-CEBA9B53DD02";
guideLines = (
{
position = "{-1644, -192}";
}
);
layerId = "F0DA7053-D335-4BCD-84F3-6FD94527D8D6";
name = "Oct 19 17, 15:33";
paths = (
{
closed = 1;
nodes = (
"180 -193 LINE",
"235 -193 LINE",
"235 710 LINE",
"180 710 LINE"
);
},
{
closed = 1;
nodes = (
"212 -193 LINE",
"364 -193 LINE",
"364 -158 LINE",
"212 -158 LINE"
);
},
{
closed = 1;
nodes = (
"212 680 LINE",
"364 680 LINE",
"364 710 LINE",
"212 710 LINE"
);
}
);
width = 600;
}
);
leftMetricsKey = parenleft;
rightMetricsKey = parenleft;
unicode = 005B;
},
{
color = 0;
glyphname = parenleft;
lastChange = "2017-10-19 13:56:43 +0000";
layers = (
{
backgroundImage = {
crop = "{{0, 0}, {3264, 2448}}";
imagePath = "../../1878 Limprimerie Berger Levrault Notice historique/Romain/JACOB-notice-187522.jpg";
locked = "1";
transform = "{2.7, 0, 0, 1.51613, -3230, -1720}";
};
components = (
{
name = parenright;
transform = "{-1, 0, 0, 1, 310, 0}";
}
);
layerId = "9372F035-DA38-4B54-966C-CEBA9B53DD02";
width = 310;
},
{
guideLines = (
{
angle = 70;
position = "{-63, -280}";
},
{
angle = 70;
position = "{-141, -280}";
}
);
layerId = "E6B8952F-D64A-490A-9CF5-6DF985D88222";
paths = (
{
closed = 1;
nodes = (
"200 439 OFFCURVE",
"385 628 OFFCURVE",
"529 705 CURVE",
"545 741 LINE",
"364 661 OFFCURVE",
"147 509 OFFCURVE",
"52 249 CURVE SMOOTH",
"-43 -12 OFFCURVE",
"61 -202 OFFCURVE",
"162 -310 CURVE",
"173 -274 LINE",
"91 -166 OFFCURVE",
"60 58 OFFCURVE",
"130 249 CURVE SMOOTH"
);
}
);
width = 345;
}
);
unicode = 0028;
},
{
color = 3;
glyphname = emdash;
lastChange = "2017-10-18 10:05:55 +0000";
layers = (
{
layerId = "9372F035-DA38-4B54-966C-CEBA9B53DD02";
paths = (
{
closed = 1;
nodes = (
"50 201 LINE",
"1214 201 LINE",
"1214 248 LINE",
"50 248 LINE"
);
}
);
width = 1264;
},
{
layerId = "E6B8952F-D64A-490A-9CF5-6DF985D88222";
width = 600;
}
);
unicode = 2014;
},
{
color = 3;
glyphname = endash;
lastChange = "2017-10-18 10:08:14 +0000";
layers = (
{
guideLines = (
{
position = "{-12, 249}";
},
{
position = "{-11, 201}";
}
);
layerId = "9372F035-DA38-4B54-966C-CEBA9B53DD02";
paths = (
{
closed = 1;
nodes = (
"611 201 LINE",
"611 249 LINE",
"29 249 LINE",
"29 201 LINE"
);
}
);
width = 640;
},
{
layerId = "E6B8952F-D64A-490A-9CF5-6DF985D88222";
width = 600;
}
);
unicode = 2013;
},
{
color = 3;
glyphname = hyphen;
lastChange = "2017-10-18 09:43:52 +0000";
layers = (
{
backgroundImage = {
crop = "{{1127.778, 1374.074}, {222.222, 366.667}}";
imagePath = "../../../../1878 Limprimerie Berger Levrault Notice historique/Romain/JACOB-notice-187513.jpg";
locked = "1";
transform = "{2.7, 0, 0, 2.7, -3119, -3990}";
};
layerId = "9372F035-DA38-4B54-966C-CEBA9B53DD02";
paths = (
{
closed = 1;
nodes = (
"60 189 LINE",
"389 189 LINE",
"389 255 LINE",
"60 255 LINE"
);
}
);
width = 449;
},
{
layerId = "E6B8952F-D64A-490A-9CF5-6DF985D88222";
paths = (
{
closed = 1;
nodes = (
"39 189 LINE",
"368 189 LINE",
"392 255 LINE",
"63 255 LINE"
);
}
);
width = 429;
}
);
unicode = 002D;
},
{
glyphname = guillemetleft;
lastChange = "2017-10-19 09:56:27 +0000";
layers = (
{
layerId = "9372F035-DA38-4B54-966C-CEBA9B53DD02";
paths = (
{
closed = 1;
nodes = (
"270 289 OFFCURVE",
"295 350 OFFCURVE",
"363 369 CURVE",
"353 399 LINE",
"264 378 OFFCURVE",
"215 307 OFFCURVE",
"215 218 CURVE SMOOTH",
"215 130 OFFCURVE",
"264 58 OFFCURVE",
"353 37 CURVE",
"363 67 LINE",
"295 86 OFFCURVE",
"270 147 OFFCURVE",
"270 218 CURVE SMOOTH"
);
},
{
closed = 1;
nodes = (
"105 289 OFFCURVE",
"130 350 OFFCURVE",
"198 369 CURVE",
"188 399 LINE",
"99 378 OFFCURVE",
"50 306 OFFCURVE",
"50 218 CURVE SMOOTH",
"50 130 OFFCURVE",
"99 58 OFFCURVE",
"188 37 CURVE",
"198 67 LINE",
"130 85 OFFCURVE",
"105 146 OFFCURVE",
"105 218 CURVE SMOOTH"
);
}
);
width = 428;
},
{
guideLines = (
{
angle = -110;
position = "{-39, 0}";
},
{
angle = -110;
position = "{16, 0}";
},
{
angle = 180;
position = "{-80, 37}";
},
{
angle = 180;
position = "{0, 400}";
},
{
angle = 180;
position = "{3, 370}";
},
{
angle = 180;
position = "{-60, 61}";
},
{
angle = 180;
position = "{-60, 220}";
},
{
angle = -110;
position = "{101, 0}";
},
{
angle = -110;
position = "{156, 0}";
}
);
layerId = "E6B8952F-D64A-490A-9CF5-6DF985D88222";
paths = (
{
closed = 1;
nodes = (
"132 317 OFFCURVE",
"168 368 OFFCURVE",
"221 377 CURVE",
"217 400 LINE",
"127 384 OFFCURVE",
"78 319 OFFCURVE",
"45 230 CURVE SMOOTH",
"16 152 OFFCURVE",
"51 71 OFFCURVE",
"106 40 CURVE",
"125 60 LINE",
"84 87 OFFCURVE",
"74 158 OFFCURVE",
"100 230 CURVE SMOOTH"
);
},
{
closed = 1;
nodes = (
"272 317 OFFCURVE",
"308 368 OFFCURVE",
"361 377 CURVE",
"357 400 LINE",
"267 384 OFFCURVE",
"218 319 OFFCURVE",
"185 230 CURVE SMOOTH",
"156 152 OFFCURVE",
"175 75 OFFCURVE",
"246 40 CURVE",
"265 60 LINE",
"208 91 OFFCURVE",
"214 158 OFFCURVE",
"240 230 CURVE SMOOTH"
);
}
);
width = 368;
},
{
associatedMasterId = "E6B8952F-D64A-490A-9CF5-6DF985D88222";
guideLines = (
{
angle = -110;
position = "{178, 218}";
}
);
layerId = "5DB8CADD-BD29-4EA8-833D-FBECD286626B";
name = "Oct 17 17, 16:41";
paths = (
{
closed = 1;
nodes = (
"261 289 OFFCURVE",
"308 350 OFFCURVE",
"383 369 CURVE",
"384 399 LINE",
"287 378 OFFCURVE",
"213 307 OFFCURVE",
"180 218 CURVE SMOOTH",
"148 130 OFFCURVE",
"171 58 OFFCURVE",
"252 37 CURVE",
"273 67 LINE",
"212 86 OFFCURVE",
"209 147 OFFCURVE",
"235 218 CURVE SMOOTH"
);
},
{
closed = 1;
nodes = (
"121 289 OFFCURVE",
"168 350 OFFCURVE",
"243 369 CURVE",
"244 399 LINE",
"147 378 OFFCURVE",
"72 306 OFFCURVE",
"40 218 CURVE SMOOTH",
"8 130 OFFCURVE",
"31 58 OFFCURVE",
"112 37 CURVE",
"133 67 LINE",
"72 85 OFFCURVE",
"69 146 OFFCURVE",
"95 218 CURVE SMOOTH"
);
}
);
width = 368;
}
);
unicode = 00AB;
},
{
glyphname = quoteright;
lastChange = "2017-10-19 13:07:38 +0000";
layers = (
{
backgroundImage = {
crop = "{{0, 0}, {200, 1038}}";
imagePath = "../../../../Glyphset Images/Ponctuation/Baskerwille_Img_quoteright.tif";
locked = "1";
transform = "{1, 0, 0, 1, 9, -296}";
};
layerId = "9372F035-DA38-4B54-966C-CEBA9B53DD02";
paths = (
{
closed = 1;
nodes = (
"32 622 OFFCURVE",
"56 598 OFFCURVE",
"91 598 CURVE SMOOTH",
"115 598 OFFCURVE",
"138 616 OFFCURVE",
"138 635 CURVE SMOOTH",
"138 648 OFFCURVE",
"130 654 OFFCURVE",
"136 657 CURVE SMOOTH",
"148 663 OFFCURVE",
"155 635 OFFCURVE",
"155 611 CURVE SMOOTH",
"155 548 OFFCURVE",
"112 500 OFFCURVE",
"63 471 CURVE",
"77 447 LINE",
"134 484 OFFCURVE",
"177 532 OFFCURVE",
"177 613 CURVE SMOOTH",
"177 680 OFFCURVE",
"145.027 721.968 OFFCURVE",
"97.054 722 CURVE SMOOTH",
"58 722 OFFCURVE",
"32 696 OFFCURVE",
"32 657 CURVE SMOOTH"
);
}
);
width = 213;
},
{
layerId = "E6B8952F-D64A-490A-9CF5-6DF985D88222";
paths = (
{
closed = 1;
nodes = (
"277 698 LINE",
"308 698 OFFCURVE",
"327 669 OFFCURVE",
"304 604 CURVE SMOOTH",
"279 537 OFFCURVE",
"216 489 OFFCURVE",
"153 458 CURVE",
"158 436 LINE",
"232 475 OFFCURVE",
"304 522 OFFCURVE",
"335 607 CURVE SMOOTH",
"360 677 OFFCURVE",
"336 720 OFFCURVE",
"285 720 CURVE"
);
},
{
closed = 1;
nodes = (
"268 590 OFFCURVE",
"304 623 OFFCURVE",
"322 673 CURVE SMOOTH",
"332 701 OFFCURVE",
"317 720 OFFCURVE",
"285 720 CURVE SMOOTH",
"244 720 OFFCURVE",
"207 693 OFFCURVE",
"192 652 CURVE SMOOTH",
"179 615 OFFCURVE",
"195 590 OFFCURVE",
"232 590 CURVE SMOOTH"
);
}
);
width = 225;
},
{
associatedMasterId = "9372F035-DA38-4B54-966C-CEBA9B53DD02";
backgroundImage = {
crop = "{{0, 0}, {200, 1038}}";
imagePath = "../../../../Glyphset Images/Ponctuation/Baskerwille_Img_quoteright.tif";
locked = "1";
transform = "{1, 0, 0, 1, 9, -296}";
};
layerId = "08BE96E8-A247-4829-A5F5-577391F832BC";
name = "Oct 19 17, 15:05";
paths = (
{
closed = 1;
nodes = (
"97 701 LINE",
"126 701 OFFCURVE",
"155 673 OFFCURVE",
"155 611 CURVE SMOOTH",
"155 548 OFFCURVE",
"112 500 OFFCURVE",
"63 471 CURVE",
"74 452 LINE",
"131 489 OFFCURVE",
"181 532 OFFCURVE",
"181 613 CURVE SMOOTH",
"181 680 OFFCURVE",
"145 722 OFFCURVE",
"97 722 CURVE"
);
},
{
closed = 1;
nodes = (
"125 598 OFFCURVE",
"148 629 OFFCURVE",
"148 677 CURVE SMOOTH",
"148 703 OFFCURVE",
"127 722 OFFCURVE",
"97 722 CURVE SMOOTH",
"58 722 OFFCURVE",
"32 696 OFFCURVE",
"32 657 CURVE SMOOTH",
"32 622 OFFCURVE",
"56 598 OFFCURVE",
"91 598 CURVE SMOOTH"
);
}
);
visible = 1;
width = 213;
}
);
unicode = 2019;
},
{
glyphname = greater;
lastChange = "2017-10-19 10:00:18 +0000";
layers = (
{
layerId = "9372F035-DA38-4B54-966C-CEBA9B53DD02";
paths = (
{
closed = 1;
nodes = (
"422 199 LINE",
"492 212 LINE",
"492 185 LINE",
"150 22 LINE",
"150 66 LINE"
);
},
{
closed = 1;
nodes = (
"150 375 LINE",
"492 212 LINE",
"492 185 LINE",
"422 199 LINE",
"150 333 LINE"
);
}
);
width = 600;
},
{
layerId = "E6B8952F-D64A-490A-9CF5-6DF985D88222";
width = 600;
}
);
unicode = 003E;
},
{
color = 3;
glyphname = degree;
lastChange = "2017-10-18 10:05:27 +0000";
layers = (
{
backgroundImage = {
crop = "{{1218.889, 637.037}, {222.222, 366.667}}";
imagePath = "../../../../1878 Limprimerie Berger Levrault Notice historique/Romain/IMG_3190.JPG";
locked = "1";
transform = "{2.7, 0, 0, 2.7, -3419, -2000}";
};
layerId = "9372F035-DA38-4B54-966C-CEBA9B53DD02";
paths = (
{
closed = 1;
nodes = (
"229 400 OFFCURVE",
"284 455 OFFCURVE",
"284 525 CURVE SMOOTH",
"284 595 OFFCURVE",
"229 650 OFFCURVE",
"159 650 CURVE SMOOTH",
"89 650 OFFCURVE",
"34 595 OFFCURVE",
"34 525 CURVE SMOOTH",
"34 455 OFFCURVE",
"89 400 OFFCURVE",
"159 400 CURVE SMOOTH"
);
},
{
closed = 1;
nodes = (
"105 419 OFFCURVE",
"83 465 OFFCURVE",
"83 525 CURVE SMOOTH",
"83 585 OFFCURVE",
"105 631 OFFCURVE",
"159 631 CURVE SMOOTH",
"213 631 OFFCURVE",
"235 585 OFFCURVE",
"235 525 CURVE SMOOTH",
"235 465 OFFCURVE",
"213 419 OFFCURVE",
"159 419 CURVE SMOOTH"
);
}
);
width = 318;
},
{
layerId = "E6B8952F-D64A-490A-9CF5-6DF985D88222";
width = 600;
}
);
unicode = 00B0;
},
{
glyphname = slashlongcomb;
lastChange = "2017-10-19 13:28:41 +0000";
layers = (
{
guideLines = (
{
angle = 180;
position = "{64, -198}";
},
{
angle = 180;
position = "{66, 710}";
}
);
layerId = "9372F035-DA38-4B54-966C-CEBA9B53DD02";
paths = (
{
closed = 1;
nodes = (
"30 -198 LINE",
"80 -198 LINE",
"448 710 LINE",
"398 710 LINE"
);
}
);
width = 478;
},
{
layerId = "E6B8952F-D64A-490A-9CF5-6DF985D88222";
width = 600;
}
);
unicode = 0338;
},
{
color = 3;
glyphname = acute;
lastChange = "2017-10-18 12:15:45 +0000";
layers = (
{
backgroundImage = {
crop = "{{0, 0}, {3264, 2448}}";
imagePath = "../../../../1878 Limprimerie Berger Levrault Notice historique/Romain/JACOB-notice-187509.jpg";
locked = "1";
transform = "{2.7, 0, 0, 2.7, -4991, -4198}";
};
components = (
{
name = e;
transform = "{1, 0, 0, 1, 51, 0}";
}
);
layerId = "9372F035-DA38-4B54-966C-CEBA9B53DD02";
paths = (
{
closed = 1;
nodes = (
"288 671 LINE SMOOTH",
"295 727 OFFCURVE",
"327 733 OFFCURVE",
"347 724 CURVE SMOOTH",
"374 712 OFFCURVE",
"364 673 OFFCURVE",
"347 642 CURVE SMOOTH",
"281 520 LINE",
"269 520 LINE"
);
}
);
width = 600;
},
{
layerId = "E6B8952F-D64A-490A-9CF5-6DF985D88222";
width = 600;
}
);
unicode = 00B4;
},
{
color = 3;
glyphname = circumflex;
lastChange = "2017-10-19 09:59:45 +0000";
layers = (
{
layerId = "9372F035-DA38-4B54-966C-CEBA9B53DD02";
paths = (
{
closed = 1;
nodes = (
"209 513 LINE",
"293 700 LINE",
"315 700 LINE",
"307 635 LINE",
"301 635 LINE",
"223 513 LINE"
);
},
{
closed = 1;
nodes = (
"307 635 LINE",
"301 635 LINE",
"293 700 LINE",
"315 700 LINE",
"399 513 LINE",
"385 513 LINE"
);
}
);
width = 600;
},
{
layerId = "E6B8952F-D64A-490A-9CF5-6DF985D88222";
width = 600;
}
);
unicode = 02C6;
},
{
color = 3;
glyphname = dieresis;
lastChange = "2017-10-19 09:57:49 +0000";
layers = (
{
layerId = "9372F035-DA38-4B54-966C-CEBA9B53DD02";
paths = (
{
closed = 1;
nodes = (
"223 540 OFFCURVE",
"241 560 OFFCURVE",
"241 584 CURVE SMOOTH",
"241 608 OFFCURVE",
"223 628 OFFCURVE",
"201 628 CURVE SMOOTH",
"178 628 OFFCURVE",
"160 608 OFFCURVE",
"160 584 CURVE SMOOTH",
"160 560 OFFCURVE",
"178 540 OFFCURVE",
"201 540 CURVE SMOOTH"
);
},
{
closed = 1;
nodes = (
"418 540 OFFCURVE",
"436 560 OFFCURVE",
"436 584 CURVE SMOOTH",
"436 608 OFFCURVE",
"418 628 OFFCURVE",
"396 628 CURVE SMOOTH",
"373 628 OFFCURVE",
"355 608 OFFCURVE",
"355 584 CURVE SMOOTH",
"355 560 OFFCURVE",
"373 540 OFFCURVE",
"396 540 CURVE SMOOTH"
);
}
);
width = 600;
},
{
layerId = "E6B8952F-D64A-490A-9CF5-6DF985D88222";
width = 600;
},
{
associatedMasterId = "9372F035-DA38-4B54-966C-CEBA9B53DD02";
layerId = "E2589237-5F00-46DD-8CBD-8937007EF937";
name = "Oct 18 17, 14:32";
paths = (
{
closed = 1;
nodes = (
"225 540 OFFCURVE",
"244 560 OFFCURVE",
"244 584 CURVE SMOOTH",
"244 608 OFFCURVE",
"225 628 OFFCURVE",
"201 628 CURVE SMOOTH",
"176 628 OFFCURVE",
"157 608 OFFCURVE",
"157 584 CURVE SMOOTH",
"157 560 OFFCURVE",
"176 540 OFFCURVE",
"201 540 CURVE SMOOTH"
);
},
{
closed = 1;
nodes = (
"420 540 OFFCURVE",
"439 560 OFFCURVE",
"439 584 CURVE SMOOTH",
"439 608 OFFCURVE",
"420 628 OFFCURVE",
"396 628 CURVE SMOOTH",
"371 628 OFFCURVE",
"352 608 OFFCURVE",
"352 584 CURVE SMOOTH",
"352 560 OFFCURVE",
"371 540 OFFCURVE",
"396 540 CURVE SMOOTH"
);
}
);
width = 600;
}
);
unicode = 00A8;
},
{
glyphname = acute.case;
lastChange = "2017-10-18 14:07:16 +0000";
layers = (
{
backgroundImage = {
crop = "{{0, 0}, {3264, 2448}}";
imagePath = "../../../../1878 Limprimerie Berger Levrault Notice historique/Romain/JACOB-notice-187516.jpg";
locked = "1";
transform = "{2.6441, 0, 0, 2.6441, -3504, -2703}";
};
layerId = "9372F035-DA38-4B54-966C-CEBA9B53DD02";
paths = (
{
closed = 1;
nodes = (
"407 935 LINE",
"314 760 LINE",
"302 760 LINE",
"326 935 LINE"
);
}
);
width = 600;
},
{
layerId = "E6B8952F-D64A-490A-9CF5-6DF985D88222";
width = 600;
}
);
},
{
glyphname = grave.case;
lastChange = "2017-10-18 14:11:16 +0000";
layers = (
{
layerId = "9372F035-DA38-4B54-966C-CEBA9B53DD02";
paths = (
{
closed = 1;
nodes = (
"407 760 LINE",
"395 760 LINE",
"302 935 LINE",
"383 935 LINE"
);
}
);
width = 600;
},
{
layerId = "E6B8952F-D64A-490A-9CF5-6DF985D88222";
width = 600;
}
);
},
{
export = 0;
glyphname = "_corner-bdc";
lastChange = "2017-10-17 12:23:19 +0000";
layers = (
{
associatedMasterId = "9372F035-DA38-4B54-966C-CEBA9B53DD02";
layerId = "22EA310E-A8A6-4E31-9984-701A46A378AA";
name = "Oct 13 17, 10:33";
paths = (
{
closed = 0;
nodes = (
"0 98 LINE SMOOTH",
"0 47 OFFCURVE",
"5 25 OFFCURVE",
"52 19 CURVE SMOOTH",
"85 15 LINE SMOOTH",
"87 15 OFFCURVE",
"88 14 OFFCURVE",
"88 12 CURVE SMOOTH",
"88 0 LINE SMOOTH",
"88 -2 OFFCURVE",
"87 -3 OFFCURVE",
"85 -3 CURVE SMOOTH",
"45 -3 OFFCURVE",
"4 0 OFFCURVE",
"-36 0 CURVE SMOOTH"
);
}
);
width = 600;
},
{
associatedMasterId = "9372F035-DA38-4B54-966C-CEBA9B53DD02";
layerId = "42BA8E2A-11D2-4138-856E-2AE9709097F1";
name = "Oct 13 17, 12:06";
paths = (
{
closed = 0;
nodes = (
"0 118 LINE SMOOTH",
"0 37 OFFCURVE",
"25 25 OFFCURVE",
"72 19 CURVE SMOOTH",
"88 17 LINE",
"88 -3 LINE",
"-35 0 LINE"
);
}
);
visible = 1;
width = 600;
},
{
layerId = "9372F035-DA38-4B54-966C-CEBA9B53DD02";
paths = (
{
closed = 0;
nodes = (
"0 121 LINE SMOOTH",
"0 31 OFFCURVE",
"14 29 OFFCURVE",
"72 22 CURVE SMOOTH",
"88 20 LINE",
"88 -3 LINE",
"-35 0 LINE"
);
}
);
width = 600;
},
{
layerId = "E6B8952F-D64A-490A-9CF5-6DF985D88222";
paths = (
{
closed = 0;
nodes = (
"-23 121 LINE SMOOTH",
"-23 31 OFFCURVE",
"-9 29 OFFCURVE",
"49 22 CURVE SMOOTH",
"65 20 LINE",
"65 -3 LINE",
"-58 0 LINE"
);
}
);
width = 600;
}
);
},
{
export = 0;
glyphname = "_corner-cap";
lastChange = "2017-10-17 11:46:15 +0000";
layers = (
{
layerId = "9372F035-DA38-4B54-966C-CEBA9B53DD02";
paths = (
{
closed = 0;
nodes = (
"0 199 LINE SMOOTH",
"0 48 OFFCURVE",
"14 29 OFFCURVE",
"64 24 CURVE SMOOTH",
"136 17 LINE",
"136 -3 LINE",
"-19 0 LINE"
);
}
);
width = 600;
},
{
layerId = "E6B8952F-D64A-490A-9CF5-6DF985D88222";
width = 600;
}
);
},
{
glyphname = "_part-o";
lastChange = "2017-10-17 11:46:15 +0000";
layers = (
{
layerId = "9372F035-DA38-4B54-966C-CEBA9B53DD02";
paths = (
{
closed = 1;
nodes = (
"141 450 OFFCURVE",
"50 354 OFFCURVE",
"50 224 CURVE",
"140 224 LINE",
"140 364 OFFCURVE",
"181 424 OFFCURVE",
"269 424 CURVE",
"269 450 LINE"
);
}
);
width = 600;
},
{
layerId = "E6B8952F-D64A-490A-9CF5-6DF985D88222";
width = 600;
}
);
},
{
export = 0;
glyphname = _part;
lastChange = "2017-10-17 11:46:15 +0000";
layers = (
{
background = {
paths = (
{
closed = 1;
nodes = (
"108 404 OFFCURVE",
"80 410 OFFCURVE",
"36 410 CURVE",
"36 430 LINE",
"85 430 OFFCURVE",
"153 440 OFFCURVE",
"164 440 CURVE SMOOTH",
"176 440 OFFCURVE",
"178 428 OFFCURVE",
"178 421 CURVE",
"178 344 LINE",
"108 332 LINE"
);
}
);
};
layerId = "9372F035-DA38-4B54-966C-CEBA9B53DD02";
paths = (
{
closed = 1;
nodes = (
"118 329 LINE",
"118 401 OFFCURVE",
"84 407 OFFCURVE",
"30 407 CURVE",
"30 430 LINE",
"85 430 OFFCURVE",
"133 435 OFFCURVE",
"188 445 CURVE",
"188 344 LINE"
);
}
);
width = 600;
},
{
layerId = "E6B8952F-D64A-490A-9CF5-6DF985D88222";
width = 600;
}
);
},
{
export = 0;
glyphname = "_part-bdc";
lastChange = "2017-10-17 11:46:15 +0000";
layers = (
{
background = {
paths = (
{
closed = 1;
nodes = (
"108 404 OFFCURVE",
"80 410 OFFCURVE",
"36 410 CURVE",
"36 430 LINE",
"85 430 OFFCURVE",
"153 440 OFFCURVE",
"164 440 CURVE SMOOTH",
"176 440 OFFCURVE",
"178 428 OFFCURVE",
"178 421 CURVE",
"178 344 LINE",
"108 332 LINE"
);
}
);
};
layerId = "9372F035-DA38-4B54-966C-CEBA9B53DD02";
paths = (
{
closed = 1;
nodes = (
"118 335 LINE",
"118 407 OFFCURVE",
"84 413 OFFCURVE",
"30 413 CURVE",
"30 436 LINE",
"85 436 OFFCURVE",
"133 441 OFFCURVE",
"188 451 CURVE",
"188 350 LINE"
);
}
);
width = 600;
},
{
layerId = "E6B8952F-D64A-490A-9CF5-6DF985D88222";
width = 600;
}
);
},
{
export = 0;
glyphname = "_part-bdc-n";
lastChange = "2017-10-17 11:46:15 +0000";
layers = (
{
background = {
hints = (
{
origin = "{0, 13}";
type = Corner;
name = "_corner-bd";
},
{
origin = "{0, 14}";
type = Corner;
name = "_corner-bg";
}
);
paths = (
{
closed = 1;
nodes = (
"405 365 OFFCURVE",
"394 422 OFFCURVE",
"323 421 CURVE SMOOTH",
"204 419 OFFCURVE",
"164 296 OFFCURVE",
"162 253 CURVE",
"152 301 LINE",
"153 314 OFFCURVE",
"193 450 OFFCURVE",
"333 450 CURVE SMOOTH",
"435 450 OFFCURVE",
"475 402 OFFCURVE",
"475 331 CURVE SMOOTH",
"475 0 LINE",
"405 0 LINE",
"405 326 LINE SMOOTH"
);
}
);
};
hints = (
{
origin = "{0, 14}";
scale = "{-1, 1}";
type = Corner;
name = "_corner-bdc";
options = 1;
},
{
origin = "{0, 13}";
type = Corner;
name = "_corner-bdc";
}
);
layerId = "9372F035-DA38-4B54-966C-CEBA9B53DD02";
paths = (
{
closed = 1;
nodes = (
"415 388 OFFCURVE",
"391 425 OFFCURVE",
"333 424 CURVE SMOOTH",
"214 422 OFFCURVE",
"174 300 OFFCURVE",
"172 257 CURVE",
"162 306 LINE",
"163 319 OFFCURVE",
"203 454 OFFCURVE",
"343 454 CURVE SMOOTH",
"445 454 OFFCURVE",
"485 406 OFFCURVE",
"485 335 CURVE SMOOTH",
"485 0 LINE",
"415 0 LINE",
"415 330 LINE SMOOTH"
);
}
);
width = 603;
},
{
layerId = "E6B8952F-D64A-490A-9CF5-6DF985D88222";
width = 600;
}
);
},
{
export = 0;
glyphname = "_part-curve-cap-left";
lastChange = "2017-10-17 11:46:15 +0000";
layers = (
{
backgroundImage = {
crop = "{{1156.582, 857.493}, {311.957, 386.047}}";
imagePath = "../../1878 Limprimerie Berger Levrault Notice historique/Romain/JACOB-notice-187521.jpg";
locked = "1";
transform = "{-2.64, -0.046, -0.046, 2.64, 3945, -2500}";
};
layerId = "9372F035-DA38-4B54-966C-CEBA9B53DD02";
paths = (
{
closed = 1;
nodes = (
"203 -11 OFFCURVE",
"69 151 OFFCURVE",
"69 353 CURVE SMOOTH",
"69 555 OFFCURVE",
"203 721 OFFCURVE",
"420 721 CURVE",
"420 696 LINE",
"242 696 OFFCURVE",
"179 517 OFFCURVE",
"179 353 CURVE SMOOTH",
"179 189 OFFCURVE",
"242 14 OFFCURVE",
"420 14 CURVE",
"420 -11 LINE"
);
}
);
width = 800;
},
{
layerId = "E6B8952F-D64A-490A-9CF5-6DF985D88222";
width = 600;
}
);
},
